<?xml version="1.0" encoding="utf-8"?>
<!-- Generator: Adobe Illustrator 24.1.2, SVG Export Plug-In . SVG Version: 6.00 Build 0)  -->
<svg version="1.1" xmlns="http://www.w3.org/2000/svg" xmlns:xlink="http://www.w3.org/1999/xlink" x="0px" y="0px"
	 viewBox="0 0 571 428" style="enable-background:new 0 0 571 428;" xml:space="preserve">
<style type="text/css">
	.st0{clip-path:url(#SVGID_2_);fill:#FFFFFF;}
	.st1{fill:#FFFFFF;}
	.st2{fill:none;stroke:#262626;stroke-width:0.8333;stroke-linecap:square;stroke-linejoin:round;stroke-miterlimit:10;}
	.st3{fill:#262626;}
	.st4{font-family:'MyriadPro-Regular';}
	.st5{font-size:16.6667px;}
	.st6{font-size:18.3333px;}
	.st7{fill:#0072BD;fill-opacity:0.302;}
	.st8{fill:none;stroke:#808080;stroke-width:0.8333;stroke-linecap:square;stroke-miterlimit:10;}
	.st9{fill:#808080;}
	.st10{fill:#D95319;fill-opacity:0.302;}
	.st11{fill:none;stroke:#808080;stroke-width:0.8333;stroke-linejoin:round;stroke-miterlimit:10;}
	.st12{fill:#7E2F8E;fill-opacity:0.302;}
	.st13{fill:#77AC30;fill-opacity:0.302;}
	.st14{fill:none;stroke:#000000;stroke-width:0.8333;stroke-linejoin:bevel;stroke-miterlimit:1;stroke-dasharray:10,6;}
	.st15{fill:none;stroke:#000000;stroke-miterlimit:10;}
	.st16{font-size:21px;}
	.st17{font-size:15px;}
</style>
<g id="Layer_1">
	<g>
		<g>
			<g>
				<defs>
					<rect id="SVGID_1_" width="571" height="428"/>
				</defs>
				<clipPath id="SVGID_2_">
					<use xlink:href="#SVGID_1_"  style="overflow:visible;"/>
				</clipPath>
				<rect class="st0" width="571" height="428"/>
			</g>
		</g>
		<g>
			<rect class="st1" width="571" height="428"/>
			<path class="st1" d="M74,382h443V32H74V382z"/>
		</g>
		<g>
			<line class="st2" x1="74" y1="382" x2="517" y2="382"/>
			<line class="st2" x1="129.4" y1="382" x2="129.4" y2="377.6"/>
			<line class="st2" x1="240.1" y1="382" x2="240.1" y2="377.6"/>
			<line class="st2" x1="350.9" y1="382" x2="350.9" y2="377.6"/>
			<line class="st2" x1="461.6" y1="382" x2="461.6" y2="377.6"/>
		</g>
		<g transform="translate(129.375,388.6667)">
			<text transform="matrix(1 0 0 1 -53.5 17)" class="st3 st4 st5">Same channel</text>
		</g>
		<g transform="translate(240.125,388.6667)">
			<text transform="matrix(1 0 0 1 -41.5 17)" class="st3 st4 st5">Near depth</text>
		</g>
		<g transform="translate(350.875,388.6667)">
			<text transform="matrix(1 0 0 1 -36 17)" class="st3 st4 st5">Far depth</text>
		</g>
		<g transform="translate(461.625,388.6667)">
			<text transform="matrix(1 0 0 1 -48 17)" class="st3 st4 st5">Cross-region</text>
		</g>
		<g>
			<line class="st2" x1="74" y1="382" x2="74" y2="32"/>
			<line class="st2" x1="74" y1="382" x2="78.4" y2="382"/>
			<line class="st2" x1="74" y1="314.3" x2="78.4" y2="314.3"/>
			<line class="st2" x1="74" y1="246.6" x2="78.4" y2="246.6"/>
			<line class="st2" x1="74" y1="178.9" x2="78.4" y2="178.9"/>
			<line class="st2" x1="74" y1="111.2" x2="78.4" y2="111.2"/>
			<line class="st2" x1="74" y1="32" x2="78.4" y2="32"/>
		</g>
		<g transform="translate(67.3333,382)">
			<text transform="matrix(1 0 0 1 -10 6.5)" class="st3 st4 st5">0</text>
		</g>
		<g transform="translate(67.3333,314.3008)">
			<text transform="matrix(1 0 0 1 -24 6.5)" class="st3 st4 st5">0.5</text>
		</g>
		<g transform="translate(67.3333,246.6015)">
			<text transform="matrix(1 0 0 1 -10 6.5)" class="st3 st4 st5">1</text>
		</g>
		<g transform="translate(67.3333,178.9023)">
			<text transform="matrix(1 0 0 1 -24 6.5)" class="st3 st4 st5">1.5</text>
		</g>
		<g transform="translate(67.3333,111.203)">
			<text transform="matrix(1 0 0 1 -10 6.5)" class="st3 st4 st5">2</text>
		</g>
		<g transform="translate(67.3333,32)">
			<text transform="matrix(1 0 0 1 -32 6.5)" class="st3 st4 st5">max</text>
		</g>
		<g transform="translate(30.3333,206.9998) rotate(-90)">
			<text transform="matrix(1 0 0 1 -102.0002 -5)" class="st3 st4 st6">Conditional entropy (bits)</text>
		</g>
		<g transform="translate(295.5003,29.25)">
			<text transform="matrix(1 0 0 1 -222.5 -5)" class="st4 st6">Conditional entropy by pair type across recordings</text>
		</g>
		<g transform="translate(129.8291,382)">
			<circle class="st7" cx="0" cy="0" r="5"/>
			<circle class="st7" cx="29.5" cy="0" r="5"/>
			<circle class="st7" cx="-7.5" cy="0" r="5"/>
			<circle class="st7" cx="5.2" cy="0" r="5"/>
			<circle class="st7" cx="6.6" cy="0" r="5"/>
			<circle class="st7" cx="13.8" cy="0" r="5"/>
			<circle class="st7" cx="-7" cy="0" r="5"/>
			<circle class="st7" cx="23.4" cy="0" r="5"/>
			<circle class="st7" cx="27.5" cy="0" r="5"/>
			<circle class="st7" cx="16.2" cy="0" r="5"/>
			<circle class="st7" cx="-14.7" cy="0" r="5"/>
			<circle class="st7" cx="19.3" cy="0" r="5"/>
			<circle class="st7" cx="-24.2" cy="0" r="5"/>
		</g>
		<g>
			<path class="st8" d="M162.6,382H96.2H162.6"/>
			<path class="st8" d="M128.3,382h2.2l0,0H128.3L128.3,382"/>
		</g>
		<g transform="translate(129.375,382)">
			<circle class="st1" cx="0" cy="0" r="5"/>
		</g>
		<g transform="translate(129.375,382)">
			<path class="st9" d="M0-4.6c2.5,0,4.6,2.1,4.6,4.6l0,0c0,2.5-2.1,4.6-4.6,4.6S-4.6,2.5-4.6,0S-2.5-4.6,0-4.6z M0-5.4
				C-3-5.4-5.4-3-5.4,0S-3,5.4,0,5.4S5.4,3,5.4,0l0,0C5.4-3,3-5.4,0-5.4z"/>
		</g>
		<g transform="translate(240.4163,206.2842)">
			<circle class="st10" cx="0" cy="0" r="5"/>
			<circle class="st10" cx="6.9" cy="-8.2" r="5"/>
			<circle class="st10" cx="13.2" cy="-5.8" r="5"/>
			<circle class="st10" cx="-6.8" cy="-17.7" r="5"/>
			<circle class="st10" cx="11.6" cy="-21.1" r="5"/>
			<circle class="st10" cx="6.6" cy="39.7" r="5"/>
			<circle class="st10" cx="-29.2" cy="-1.1" r="5"/>
			<circle class="st10" cx="-15.7" cy="-29.2" r="5"/>
			<circle class="st10" cx="21.2" cy="3.4" r="5"/>
			<circle class="st10" cx="-3.2" cy="-33.5" r="5"/>
			<circle class="st10" cx="-2" cy="-48.5" r="5"/>
			<circle class="st10" cx="23.8" cy="6.7" r="5"/>
			<circle class="st10" cx="5" cy="28.7" r="5"/>
		</g>
		<g>
			<path class="st10" d="M230.4,242.6l0.4,1.6l0.5,1.7H249l0.5-1.7l0.4-1.6l0.3-1.6l0.2-1.6l0.2-1.6l0.1-1.6l0.1-1.6l0.2-1.6
				l0.3-1.6l0.4-1.6l0.5-1.6l0.7-1.6l1-1.6l1.2-1.6l1.4-1.6l1.6-1.6l1.7-1.6l1.9-1.6l1.9-1.6l1.9-1.6l1.8-1.6l1.7-1.6l1.4-1.6
				l1.2-1.6l0.9-1.6l0.6-1.6l0.3-1.6l0-1.6l-0.2-1.6l-0.4-1.6l-0.6-1.6l-0.7-1.6l-0.8-1.6l-0.9-1.6l-0.9-1.6l-0.9-1.6l-0.9-1.6
				l-0.9-1.6l-0.9-1.6l-0.9-1.6l-0.9-1.6l-0.9-1.6l-1-1.6l-1-1.6l-1-1.6l-1-1.6l-1-1.6l-1-1.6l-1-1.6l-1-1.6l-1-1.6l-1-1.6l-0.9-1.6
				l-0.9-1.6l-0.9-1.7h-19l-0.9,1.7l-0.9,1.6l-0.9,1.6l-1,1.6l-1,1.6l-1,1.6l-1,1.6l-1,1.6l-1,1.6l-1,1.6l-1,1.6l-1,1.6l-1,1.6
				l-0.9,1.6l-0.9,1.6l-0.9,1.6l-0.9,1.6l-0.9,1.6l-0.9,1.6l-0.9,1.6l-0.9,1.6l-0.9,1.6l-0.8,1.6l-0.7,1.6l-0.6,1.6l-0.4,1.6
				l-0.2,1.6l0,1.6l0.3,1.6l0.6,1.6l0.9,1.6l1.2,1.6l1.4,1.6l1.7,1.6l1.8,1.6l1.9,1.6l1.9,1.6l1.9,1.6l1.7,1.6l1.6,1.6l1.4,1.6
				l1.2,1.6l1,1.6l0.7,1.6l0.5,1.6l0.4,1.6l0.3,1.6l0.2,1.6l0.1,1.6l0.1,1.6l0.2,1.6l0.2,1.6L230.4,242.6z"/>
		</g>
		<g>
			<path class="st8" d="M249,245.9l0.5-1.7l0.4-1.6l0.3-1.6l0.2-1.6l0.2-1.6l0.1-1.6l0.1-1.6l0.2-1.6l0.3-1.6l0.4-1.6l0.5-1.6
				l0.7-1.6l1-1.6l1.2-1.6l1.4-1.6l1.6-1.6l1.7-1.6l1.9-1.6l1.9-1.6l1.9-1.6l1.8-1.6l1.7-1.6l1.4-1.6l1.2-1.6l0.9-1.6l0.6-1.6
				l0.3-1.6l0-1.6l-0.2-1.6l-0.4-1.6l-0.6-1.6l-0.7-1.6l-0.8-1.6l-0.9-1.6l-0.9-1.6l-0.9-1.6l-0.9-1.6l-0.9-1.6l-0.9-1.6l-0.9-1.6
				l-0.9-1.6l-0.9-1.6l-1-1.6l-1-1.6l-1-1.6l-1-1.6l-1-1.6l-1-1.6l-1-1.6l-1-1.6l-1-1.6l-1-1.6l-0.9-1.6l-0.9-1.6l-0.9-1.7h-19
				l-0.9,1.7l-0.9,1.6l-0.9,1.6l-1,1.6l-1,1.6l-1,1.6l-1,1.6l-1,1.6l-1,1.6l-1,1.6l-1,1.6l-1,1.6l-1,1.6l-0.9,1.6l-0.9,1.6l-0.9,1.6
				l-0.9,1.6l-0.9,1.6l-0.9,1.6l-0.9,1.6l-0.9,1.6l-0.9,1.6l-0.8,1.6l-0.7,1.6l-0.6,1.6l-0.4,1.6l-0.2,1.6l0,1.6l0.3,1.6l0.6,1.6
				l0.9,1.6l1.2,1.6l1.4,1.6l1.7,1.6l1.8,1.6l1.9,1.6l1.9,1.6l1.9,1.6l1.7,1.6l1.6,1.6l1.4,1.6l1.2,1.6l1,1.6l0.7,1.6l0.5,1.6
				l0.4,1.6l0.3,1.6l0.2,1.6l0.1,1.6l0.1,1.6l0.2,1.6l0.2,1.6l0.3,1.6l0.4,1.6l0.5,1.7H249"/>
		</g>
		<g>
			<path class="st9" d="M239,210.5h2.2v-27.3H239V210.5z"/>
		</g>
		<g>
			<path class="st8" d="M239,210.5h2.2v-27.3H239V210.5"/>
			<line class="st11" x1="240.1" y1="245.9" x2="240.1" y2="157.7"/>
		</g>
		<g transform="translate(240.125,200.528)">
			<circle class="st1" cx="0" cy="0" r="5"/>
		</g>
		<g transform="translate(240.125,200.528)">
			<path class="st9" d="M0-4.6c2.5,0,4.6,2.1,4.6,4.6l0,0c0,2.5-2.1,4.6-4.6,4.6S-4.6,2.5-4.6,0S-2.5-4.6,0-4.6z M0-5.4
				C-3-5.4-5.4-3-5.4,0S-3,5.4,0,5.4S5.4,3,5.4,0l0,0C5.4-3,3-5.4,0-5.4z"/>
		</g>
		<g transform="translate(379.0636,218.1441)">
			<circle class="st12" cx="0" cy="0" r="5"/>
			<circle class="st12" cx="-45.5" cy="-10" r="5"/>
			<circle class="st12" cx="-54.4" cy="-9.9" r="5"/>
			<circle class="st12" cx="-34.9" cy="0.3" r="5"/>
			<circle class="st12" cx="-28.2" cy="-35.6" r="5"/>
			<circle class="st12" cx="-26.4" cy="17.1" r="5"/>
			<circle class="st12" cx="3.5" cy="-6.7" r="5"/>
			<circle class="st12" cx="-28.5" cy="-27" r="5"/>
			<circle class="st12" cx="-34" cy="0.1" r="5"/>
			<circle class="st12" cx="-5.4" cy="-22.8" r="5"/>
			<circle class="st12" cx="-36.4" cy="-35.7" r="5"/>
			<circle class="st12" cx="-17.9" cy="-12.1" r="5"/>
			<circle class="st12" cx="-19.1" cy="25.2" r="5"/>
		</g>
		<g>
			<path class="st12" d="M380.3,203.9l-1-1.2l-1-1.2l-1-1.2l-0.9-1.2l-0.9-1.2l-0.8-1.2l-0.7-1.2l-0.6-1.2l-0.6-1.2l-0.5-1.2
				l-0.5-1.2l-0.5-1.2l-0.5-1.2l-0.6-1.2l-0.6-1.2l-0.7-1.2l-0.8-2.3h-34.3l-0.8,2.3l-0.7,1.2l-0.6,1.2l-0.6,1.2l-0.5,1.2l-0.5,1.2
				l-0.5,1.2l-0.5,1.2l-0.6,1.2l-0.6,1.2l-0.7,1.2l-0.8,1.2l-0.9,1.2l-0.9,1.2l-1,1.2l-1,1.2l-1,1.2l-1,1.2l-0.9,1.2l-0.8,1.2
				l-0.6,1.2l-0.4,1.2l-0.2,1.2l0.1,1.2l0.3,1.2l0.6,1.2l0.8,1.2l1,1.2l1.2,1.2l1.4,1.2l1.5,1.2l1.6,1.2l1.6,1.2l1.6,1.2l1.5,1.2
				l1.4,1.2l1.3,1.2l1.1,1.2l1,1.2l0.9,1.2l0.7,1.2l0.6,1.2l0.5,1.2l0.5,1.2l0.4,1.2l0.4,1.2l0.4,1.2l0.5,1.2l0.5,2.3h19.5l0.5-2.3
				l0.5-1.2l0.4-1.2l0.4-1.2l0.4-1.2l0.5-1.2l0.5-1.2l0.6-1.2l0.7-1.2l0.9-1.2l1-1.2l1.1-1.2l1.3-1.2l1.4-1.2l1.5-1.2l1.6-1.2
				l1.6-1.2l1.6-1.2l1.5-1.2l1.4-1.2l1.2-1.2l1-1.2l0.8-1.2l0.6-1.2l0.3-1.2l0.1-1.2l-0.2-1.2l-0.4-1.2l-0.6-1.2l-0.8-1.2l-0.9-1.2
				L380.3,203.9z"/>
		</g>
		<g>
			<path class="st8" d="M360.6,243.3l0.5-2.3l0.5-1.2l0.4-1.2l0.4-1.2l0.4-1.2l0.5-1.2l0.5-1.2l0.6-1.2l0.7-1.2l0.9-1.2l1-1.2
				l1.1-1.2l1.3-1.2l1.4-1.2l1.5-1.2l1.6-1.2l1.6-1.2l1.6-1.2l1.5-1.2l1.4-1.2l1.2-1.2l1-1.2l0.8-1.2l0.6-1.2l0.3-1.2l0.1-1.2
				l-0.2-1.2l-0.4-1.2l-0.6-1.2l-0.8-1.2l-0.9-1.2l-1-1.2l-1-1.2l-1-1.2l-1-1.2l-0.9-1.2l-0.9-1.2l-0.8-1.2l-0.7-1.2l-0.6-1.2
				l-0.6-1.2l-0.5-1.2l-0.5-1.2l-0.5-1.2l-0.5-1.2l-0.6-1.2l-0.6-1.2l-0.7-1.2l-0.8-2.3h-34.3l-0.8,2.3l-0.7,1.2l-0.6,1.2l-0.6,1.2
				l-0.5,1.2l-0.5,1.2l-0.5,1.2l-0.5,1.2l-0.6,1.2l-0.6,1.2l-0.7,1.2l-0.8,1.2l-0.9,1.2l-0.9,1.2l-1,1.2l-1,1.2l-1,1.2l-1,1.2
				l-0.9,1.2l-0.8,1.2l-0.6,1.2l-0.4,1.2l-0.2,1.2l0.1,1.2l0.3,1.2l0.6,1.2l0.8,1.2l1,1.2l1.2,1.2l1.4,1.2l1.5,1.2l1.6,1.2l1.6,1.2
				l1.6,1.2l1.5,1.2l1.4,1.2l1.3,1.2l1.1,1.2l1,1.2l0.9,1.2l0.7,1.2l0.6,1.2l0.5,1.2l0.5,1.2l0.4,1.2l0.4,1.2l0.4,1.2l0.5,1.2
				l0.5,2.3H360.6"/>
		</g>
		<g>
			<path class="st9" d="M349.8,218.3h2.2v-24h-2.2V218.3z"/>
		</g>
		<g>
			<path class="st8" d="M349.8,218.3h2.2v-24h-2.2V218.3"/>
			<line class="st11" x1="350.9" y1="243.3" x2="350.9" y2="182.4"/>
		</g>
		<g transform="translate(350.875,208.2733)">
			<circle class="st1" cx="0" cy="0" r="5"/>
		</g>
		<g transform="translate(350.875,208.2733)">
			<path class="st9" d="M0-4.6c2.5,0,4.6,2.1,4.6,4.6l0,0c0,2.5-2.1,4.6-4.6,4.6S-4.6,2.5-4.6,0S-2.5-4.6,0-4.6z M0-5.4
				C-3-5.4-5.4-3-5.4,0S-3,5.4,0,5.4S5.4,3,5.4,0l0,0C5.4-3,3-5.4,0-5.4z"/>
		</g>
		<g transform="translate(471.8615,136.4297)">
			<circle class="st13" cx="0" cy="0" r="5"/>
			<circle class="st13" cx="-21" cy="23.5" r="5"/>
			<circle class="st13" cx="-9" cy="30.1" r="5"/>
			<circle class="st13" cx="-39.1" cy="20.7" r="5"/>
			<circle class="st13" cx="13.7" cy="2.2" r="5"/>
			<circle class="st13" cx="-11.4" cy="53.5" r="5"/>
			<circle class="st13" cx="-20.9" cy="-3.9" r="5"/>
			<circle class="st13" cx="19.5" cy="7.2" r="5"/>
			<circle class="st13" cx="-12.4" cy="22.6" r="5"/>
			<circle class="st13" cx="-18.6" cy="-11.2" r="5"/>
			<circle class="st13" cx="-16.3" cy="-30.2" r="5"/>
			<circle class="st13" cx="-4.8" cy="6.7" r="5"/>
			<circle class="st13" cx="-33" cy="12.6" r="5"/>
		</g>
		<g>
			<path class="st13" d="M469.2,184.4l0.6-1.6l0.7-1.6l0.8-1.6l0.9-1.6l1.1-1.6l1.2-1.6l1.3-1.6l1.4-1.6l1.5-1.6l1.6-1.6l1.6-1.6
				l1.6-1.6l1.6-1.6l1.5-1.6l1.4-1.6l1.3-1.6l1.2-1.6l1.1-1.6l0.9-1.6l0.8-1.6l0.6-1.6l0.4-1.6l0.3-1.6l0.1-1.6l-0.1-1.6l-0.3-1.6
				l-0.5-1.6l-0.7-1.6l-0.9-1.6l-1.1-1.6l-1.2-1.6l-1.4-1.6l-1.5-1.6l-1.6-1.6l-1.6-1.6l-1.6-1.6l-1.6-1.6l-1.6-1.6l-1.5-1.6
				l-1.4-1.6l-1.3-1.6l-1.2-1.6l-1.1-1.6l-1-1.6l-0.9-1.6l-0.8-1.6l-0.7-1.6l-0.6-2.3h-14.5l-0.6,2.3l-0.7,1.6l-0.8,1.6l-0.9,1.6
				l-1,1.6l-1.1,1.6l-1.2,1.6l-1.3,1.6l-1.4,1.6l-1.5,1.6l-1.6,1.6l-1.6,1.6l-1.6,1.6l-1.6,1.6l-1.6,1.6l-1.5,1.6l-1.4,1.6L432,136
				l-1.1,1.6l-0.9,1.6l-0.7,1.6l-0.5,1.6l-0.3,1.6l-0.1,1.6l0.1,1.6l0.3,1.6l0.4,1.6l0.6,1.6l0.8,1.6l0.9,1.6l1.1,1.6l1.2,1.6
				l1.3,1.6l1.4,1.6l1.5,1.6l1.6,1.6l1.6,1.6l1.6,1.6l1.6,1.6l1.5,1.6l1.4,1.6l1.3,1.6l1.2,1.6l1.1,1.6l0.9,1.6l0.8,1.6l0.7,1.6
				l0.6,1.6l0.5,1.6l0.5,1.6l0.4,2.3h12.3l0.4-2.3l0.5-1.6L469.2,184.4z"/>
		</g>
		<g>
			<path class="st8" d="M467.8,189.9l0.4-2.3l0.5-1.6l0.5-1.6l0.6-1.6l0.7-1.6l0.8-1.6l0.9-1.6l1.1-1.6l1.2-1.6l1.3-1.6l1.4-1.6
				l1.5-1.6l1.6-1.6l1.6-1.6l1.6-1.6l1.6-1.6l1.5-1.6l1.4-1.6l1.3-1.6l1.2-1.6l1.1-1.6l0.9-1.6l0.8-1.6l0.6-1.6l0.4-1.6l0.3-1.6
				l0.1-1.6l-0.1-1.6l-0.3-1.6l-0.5-1.6l-0.7-1.6l-0.9-1.6l-1.1-1.6l-1.2-1.6l-1.4-1.6l-1.5-1.6l-1.6-1.6l-1.6-1.6l-1.6-1.6
				l-1.6-1.6l-1.6-1.6l-1.5-1.6l-1.4-1.6l-1.3-1.6l-1.2-1.6l-1.1-1.6l-1-1.6l-0.9-1.6l-0.8-1.6l-0.7-1.6l-0.6-2.3h-14.5l-0.6,2.3
				l-0.7,1.6l-0.8,1.6l-0.9,1.6l-1,1.6l-1.1,1.6l-1.2,1.6l-1.3,1.6l-1.4,1.6l-1.5,1.6l-1.6,1.6l-1.6,1.6l-1.6,1.6l-1.6,1.6l-1.6,1.6
				l-1.5,1.6l-1.4,1.6L432,136l-1.1,1.6l-0.9,1.6l-0.7,1.6l-0.5,1.6l-0.3,1.6l-0.1,1.6l0.1,1.6l0.3,1.6l0.4,1.6l0.6,1.6l0.8,1.6
				l0.9,1.6l1.1,1.6l1.2,1.6l1.3,1.6l1.4,1.6l1.5,1.6l1.6,1.6l1.6,1.6l1.6,1.6l1.6,1.6l1.5,1.6l1.4,1.6l1.3,1.6l1.2,1.6l1.1,1.6
				l0.9,1.6l0.8,1.6l0.7,1.6l0.6,1.6l0.5,1.6l0.5,1.6l0.4,2.3H467.8"/>
		</g>
		<g>
			<path class="st9" d="M460.5,159.3h2.2v-23.8h-2.2V159.3z"/>
		</g>
		<g>
			<path class="st8" d="M460.5,159.3h2.2v-23.8h-2.2V159.3"/>
			<line class="st11" x1="461.6" y1="189.9" x2="461.6" y2="106.2"/>
		</g>
		<g transform="translate(461.625,143.6443)">
			<circle class="st1" cx="0" cy="0" r="5"/>
		</g>
		<g transform="translate(461.625,143.6443)">
			<path class="st9" d="M0-4.6c2.5,0,4.6,2.1,4.6,4.6l0,0c0,2.5-2.1,4.6-4.6,4.6S-4.6,2.5-4.6,0S-2.5-4.6,0-4.6z M0-5.4
				C-3-5.4-5.4-3-5.4,0S-3,5.4,0,5.4S5.4,3,5.4,0l0,0C5.4-3,3-5.4,0-5.4z"/>
		</g>
		<g>
			<line class="st14" x1="74" y1="32" x2="517" y2="32"/>
		</g>
	</g>
</g>
<g id="Annotation">
	<polyline class="st15" points="135,94.5 135,78 232.7,78 232.7,94.5 	"/>
	<polyline class="st15" points="246.3,94.5 246.3,78 344,78 344,94.5 	"/>
	<polyline class="st15" points="357.7,94.5 357.7,78 455.5,78 455.5,94.5 	"/>
	<text transform="matrix(1.0758 0 0 1 169.7754 81.0854)" class="st4 st16">***</text>
	<text transform="matrix(1.0758 0 0 1 392.5361 81.0854)" class="st4 st16">***</text>
	<text transform="matrix(1.0758 0 0 1 284.2188 74.1816)" class="st4 st17">n.s.</text>
</g>
</svg>
