<?xml version="1.0" encoding="utf-8"?>
<!-- Generator: Adobe Illustrator 24.1.2, SVG Export Plug-In . SVG Version: 6.00 Build 0)  -->
<svg version="1.1" id="Layer_1" xmlns="http://www.w3.org/2000/svg" xmlns:xlink="http://www.w3.org/1999/xlink" x="0px" y="0px"
	 viewBox="0 0 565 432" style="enable-background:new 0 0 565 432;" xml:space="preserve">
<style type="text/css">
	.st0{clip-path:url(#SVGID_2_);fill:#FFFFFF;}
	.st1{fill:#FFFFFF;}
	.st2{fill:none;stroke:#262626;stroke-width:0.8333;stroke-linecap:square;stroke-linejoin:round;stroke-miterlimit:10;}
	.st3{fill:#262626;}
	.st4{font-family:'MyriadPro-Regular';}
	.st5{font-size:16.6667px;}
	.st6{font-size:18.3333px;}
	.st7{font-size:15px;}
	.st8{fill:none;stroke:#333333;stroke-width:0.8333;stroke-linecap:square;stroke-linejoin:round;stroke-miterlimit:10;}
	.st9{fill:#0072BE;}
	.st10{fill:#DA5319;}
	.st11{fill:#7E2F8E;}
	.st12{fill:#77AD30;}
</style>
<g>
	<g>
		<g>
			<defs>
				<rect id="SVGID_1_" width="565" height="432"/>
			</defs>
			<clipPath id="SVGID_2_">
				<use xlink:href="#SVGID_1_"  style="overflow:visible;"/>
			</clipPath>
			<rect class="st0" width="565" height="432"/>
		</g>
	</g>
	<g>
		<rect class="st1" width="565" height="432"/>
		<path class="st1" d="M112,338h333V32H112V338z"/>
	</g>
	<g>
		<line class="st2" x1="112" y1="338" x2="445" y2="338"/>
		<line class="st2" x1="112" y1="32" x2="445" y2="32"/>
		<line class="st2" x1="132.8" y1="338" x2="132.8" y2="334.7"/>
		<line class="st2" x1="174.4" y1="338" x2="174.4" y2="334.7"/>
		<line class="st2" x1="216.1" y1="338" x2="216.1" y2="334.7"/>
		<line class="st2" x1="257.7" y1="338" x2="257.7" y2="334.7"/>
		<line class="st2" x1="299.3" y1="338" x2="299.3" y2="334.7"/>
		<line class="st2" x1="340.9" y1="338" x2="340.9" y2="334.7"/>
		<line class="st2" x1="382.6" y1="338" x2="382.6" y2="334.7"/>
		<line class="st2" x1="424.2" y1="338" x2="424.2" y2="334.7"/>
		<line class="st2" x1="132.8" y1="32" x2="132.8" y2="35.3"/>
		<line class="st2" x1="174.4" y1="32" x2="174.4" y2="35.3"/>
		<line class="st2" x1="216.1" y1="32" x2="216.1" y2="35.3"/>
		<line class="st2" x1="257.7" y1="32" x2="257.7" y2="35.3"/>
		<line class="st2" x1="299.3" y1="32" x2="299.3" y2="35.3"/>
		<line class="st2" x1="340.9" y1="32" x2="340.9" y2="35.3"/>
		<line class="st2" x1="382.6" y1="32" x2="382.6" y2="35.3"/>
		<line class="st2" x1="424.2" y1="32" x2="424.2" y2="35.3"/>
	</g>
	<g transform="translate(132.8125,344.6667) rotate(-45)">
		<text transform="matrix(1 0 0 1 -67 17.0001)" class="st3 st4 st5">V1 super</text>
	</g>
	<g transform="translate(174.4375,344.6667) rotate(-45)">
		<text transform="matrix(1 0 0 1 -100.0001 16.9999)" class="st3 st4 st5">V1 mid-super</text>
	</g>
	<g transform="translate(216.0625,344.6667) rotate(-45)">
		<text transform="matrix(1 0 0 1 -94.9999 16.9999)" class="st3 st4 st5">V1 mid-deep</text>
	</g>
	<g transform="translate(257.6875,344.6667) rotate(-45)">
		<text transform="matrix(1 0 0 1 -62.9999 16.9999)" class="st3 st4 st5">V1 deep</text>
	</g>
	<g transform="translate(299.3125,344.6667) rotate(-45)">
		<text transform="matrix(1 0 0 1 -73 17.0001)" class="st3 st4 st5">MC super</text>
	</g>
	<g transform="translate(340.9375,344.6667) rotate(-45)">
		<text transform="matrix(1 0 0 1 -105.0001 17.0001)" class="st3 st4 st5">MC mid-super</text>
	</g>
	<g transform="translate(382.5625,344.6667) rotate(-45)">
		<text transform="matrix(1 0 0 1 -100.0001 16.9999)" class="st3 st4 st5">MC mid-deep</text>
	</g>
	<g transform="translate(424.1875,344.6667) rotate(-45)">
		<text transform="matrix(1 0 0 1 -68.0001 16.9999)" class="st3 st4 st5">MC deep</text>
	</g>
	<g>
		<line class="st2" x1="112" y1="32" x2="112" y2="338"/>
		<line class="st2" x1="445" y1="32" x2="445" y2="338"/>
		<line class="st2" x1="112" y1="51.1" x2="115.3" y2="51.1"/>
		<line class="st2" x1="112" y1="89.4" x2="115.3" y2="89.4"/>
		<line class="st2" x1="112" y1="127.6" x2="115.3" y2="127.6"/>
		<line class="st2" x1="112" y1="165.9" x2="115.3" y2="165.9"/>
		<line class="st2" x1="112" y1="204.1" x2="115.3" y2="204.1"/>
		<line class="st2" x1="112" y1="242.4" x2="115.3" y2="242.4"/>
		<line class="st2" x1="112" y1="280.6" x2="115.3" y2="280.6"/>
		<line class="st2" x1="112" y1="318.9" x2="115.3" y2="318.9"/>
		<line class="st2" x1="445" y1="51.1" x2="441.7" y2="51.1"/>
		<line class="st2" x1="445" y1="89.4" x2="441.7" y2="89.4"/>
		<line class="st2" x1="445" y1="127.6" x2="441.7" y2="127.6"/>
		<line class="st2" x1="445" y1="165.9" x2="441.7" y2="165.9"/>
		<line class="st2" x1="445" y1="204.1" x2="441.7" y2="204.1"/>
		<line class="st2" x1="445" y1="242.4" x2="441.7" y2="242.4"/>
		<line class="st2" x1="445" y1="280.6" x2="441.7" y2="280.6"/>
		<line class="st2" x1="445" y1="318.9" x2="441.7" y2="318.9"/>
	</g>
	<g transform="translate(105.3333,51.125)">
		<text transform="matrix(1 0 0 1 -67 6.5)" class="st3 st4 st5">V1 super</text>
	</g>
	<g transform="translate(105.3333,89.375)">
		<text transform="matrix(1 0 0 1 -100 6.5)" class="st3 st4 st5">V1 mid-super</text>
	</g>
	<g transform="translate(105.3333,127.625)">
		<text transform="matrix(1 0 0 1 -95 6.5)" class="st3 st4 st5">V1 mid-deep</text>
	</g>
	<g transform="translate(105.3333,165.875)">
		<text transform="matrix(1 0 0 1 -63 6.5)" class="st3 st4 st5">V1 deep</text>
	</g>
	<g transform="translate(105.3333,204.125)">
		<text transform="matrix(1 0 0 1 -73 6.5)" class="st3 st4 st5">MC super</text>
	</g>
	<g transform="translate(105.3333,242.375)">
		<text transform="matrix(1 0 0 1 -105 6.5)" class="st3 st4 st5">MC mid-super</text>
	</g>
	<g transform="translate(105.3333,280.625)">
		<text transform="matrix(1 0 0 1 -100 6.5)" class="st3 st4 st5">MC mid-deep</text>
	</g>
	<g transform="translate(105.3333,318.875)">
		<text transform="matrix(1 0 0 1 -68 6.5)" class="st3 st4 st5">MC deep</text>
	</g>
	<g transform="translate(278.5002,29.241)">
		<text transform="matrix(1 0 0 1 -164 -5)" class="st4 st6">Median mutual information of classes</text>
	</g>
	<g transform="matrix(0.5,0,0,0.5,112,32)">
		<g>
			<defs>
				<polygon id="SVGID_3_" points="0,0 0,76.5 0,153 0,229.5 0,306 0,382.5 0,459 0,535.5 0,612 83.3,612 166.5,612 249.8,612 
					333,612 416.3,612 499.5,612 582.8,612 666,612 666,535.5 666,459 666,382.5 666,306 666,229.5 666,153 666,76.5 666,0 582.8,0 
					499.5,0 416.3,0 333,0 249.8,0 166.5,0 83.3,0 				"/>
			</defs>
			<clipPath id="SVGID_4_">
				<use xlink:href="#SVGID_3_"  style="overflow:visible;"/>
			</clipPath>
			
				<image style="overflow:visible;clip-path:url(#SVGID_4_);enable-background:new    ;" width="666" height="612" xlink:href="3511E020.png" >
			</image>
		</g>
	</g>
	<g>
		<line class="st2" x1="458" y1="337" x2="485" y2="337"/>
		<line class="st2" x1="458" y1="32" x2="485" y2="32"/>
		<line class="st2" x1="458" y1="337" x2="458" y2="32"/>
		<line class="st2" x1="485" y1="337" x2="485" y2="32"/>
	</g>
	<g transform="matrix(0.5,0,0,0.5,458,32)">
		<g>
			<defs>
				<rect id="SVGID_5_" x="13.5" y="152.5" width="27" height="305"/>
			</defs>
			<clipPath id="SVGID_6_">
				<use xlink:href="#SVGID_5_"  style="overflow:visible;"/>
			</clipPath>
			
				<image style="overflow:visible;clip-path:url(#SVGID_6_);enable-background:new    ;" width="54" height="610" xlink:href="3511E020.png" >
			</image>
		</g>
	</g>
	<g>
		<line class="st2" x1="485" y1="337" x2="485" y2="32"/>
		<line class="st2" x1="485" y1="313.8" x2="482" y2="313.8"/>
		<line class="st2" x1="485" y1="282" x2="482" y2="282"/>
		<line class="st2" x1="485" y1="250.2" x2="482" y2="250.2"/>
		<line class="st2" x1="485" y1="218.4" x2="482" y2="218.4"/>
		<line class="st2" x1="485" y1="186.6" x2="482" y2="186.6"/>
		<line class="st2" x1="485" y1="154.8" x2="482" y2="154.8"/>
		<line class="st2" x1="485" y1="123" x2="482" y2="123"/>
		<line class="st2" x1="485" y1="91.1" x2="482" y2="91.1"/>
		<line class="st2" x1="485" y1="59.3" x2="482" y2="59.3"/>
	</g>
	<g transform="translate(491.3333,313.8146)">
		<text transform="matrix(1 0 0 1 0 6)" class="st3 st4 st7">0.6</text>
	</g>
	<g transform="translate(491.3333,282.0046)">
		<text transform="matrix(1 0 0 1 0 6)" class="st3 st4 st7">0.8</text>
	</g>
	<g transform="translate(491.3333,250.1947)">
		<text transform="matrix(1 0 0 1 0 6)" class="st3 st4 st7">1</text>
	</g>
	<g transform="translate(491.3333,218.3847)">
		<text transform="matrix(1 0 0 1 0 6)" class="st3 st4 st7">1.2</text>
	</g>
	<g transform="translate(491.3333,186.5748)">
		<text transform="matrix(1 0 0 1 0 6)" class="st3 st4 st7">1.4</text>
	</g>
	<g transform="translate(491.3333,154.7648)">
		<text transform="matrix(1 0 0 1 0 6)" class="st3 st4 st7">1.6</text>
	</g>
	<g transform="translate(491.3333,122.9549)">
		<text transform="matrix(1 0 0 1 0 6)" class="st3 st4 st7">1.8</text>
	</g>
	<g transform="translate(491.3333,91.1449)">
		<text transform="matrix(1 0 0 1 0 6)" class="st3 st4 st7">2</text>
	</g>
	<g transform="translate(491.3333,59.335)">
		<text transform="matrix(1 0 0 1 0 6)" class="st3 st4 st7">2.2</text>
	</g>
	<g transform="translate(517.3333,184.4998) rotate(-90)">
		<text transform="matrix(1 0 0 1 -56.5002 16)" class="st3 st4 st7">Information (bits)</text>
	</g>
	<g>
		<line class="st2" x1="458" y1="32" x2="485" y2="32"/>
		<line class="st2" x1="458" y1="337" x2="485" y2="337"/>
		<line class="st2" x1="458" y1="337" x2="458" y2="32"/>
		<line class="st2" x1="485" y1="337" x2="485" y2="32"/>
		<line class="st8" x1="458" y1="337" x2="458" y2="337"/>
		<line class="st8" x1="458" y1="32" x2="458" y2="32"/>
		<line class="st8" x1="485" y1="337" x2="485" y2="337"/>
		<line class="st8" x1="485" y1="32" x2="485" y2="32"/>
	</g>
</g>
<g>
	<g>
		<path class="st9" d="M150.6,35.3V67h-35V35.3H150.6 M153.9,32h-41.6v38.3h41.6V32L153.9,32z"/>
	</g>
	<g>
		<path class="st9" d="M192.2,73.5v31.7h-35V73.5H192.2 M195.5,70.3h-41.6v38.3h41.6V70.3L195.5,70.3z"/>
	</g>
	<g>
		<path class="st9" d="M233.8,111.8v31.7h-35v-31.7H233.8 M237.1,108.5h-41.6v38.3h41.6V108.5L237.1,108.5z"/>
	</g>
	<g>
		<path class="st9" d="M275.4,150v31.7h-35V150H275.4 M278.6,146.8h-41.6V185h41.6V146.8L278.6,146.8z"/>
	</g>
	<g>
		<path class="st9" d="M317,188.3V220h-35v-31.7H317 M320.2,185h-41.6v38.3h41.6V185L320.2,185z"/>
	</g>
	<g>
		<path class="st9" d="M358.5,226.5v31.7h-35v-31.7H358.5 M361.8,223.3h-41.6v38.3h41.6V223.3L361.8,223.3z"/>
	</g>
	<g>
		<path class="st9" d="M400.1,264.8v31.7h-35v-31.7H400.1 M403.4,261.5h-41.6v38.3h41.6V261.5L403.4,261.5z"/>
	</g>
	<g>
		<path class="st9" d="M441.7,303v31.7h-35V303H441.7 M445,299.8h-41.6V338H445V299.8L445,299.8z"/>
	</g>
	<g>
		<path class="st10" d="M150.6,73.5v31.7h-35V73.5H150.6 M153.9,70.3h-41.6v38.3h41.6V70.3L153.9,70.3z"/>
	</g>
	<g>
		<path class="st10" d="M192.2,35.3V67h-35V35.3H192.2 M195.5,32h-41.6v38.3h41.6V32L195.5,32z"/>
	</g>
	<g>
		<path class="st10" d="M275.4,111.8v31.7h-35v-31.7H275.4 M278.6,108.5h-41.6v38.3h41.6V108.5L278.6,108.5z"/>
	</g>
	<g>
		<path class="st10" d="M233.8,150v31.7h-35V150H233.8 M237.1,146.8h-41.6V185h41.6V146.8L237.1,146.8z"/>
	</g>
	<g>
		<path class="st10" d="M317,226.5v31.7h-35v-31.7H317 M320.2,223.3h-41.6v38.3h41.6V223.3L320.2,223.3z"/>
	</g>
	<g>
		<path class="st10" d="M358.5,188.3V220h-35v-31.7H358.5 M361.8,185h-41.6v38.3h41.6V185L361.8,185z"/>
	</g>
	<g>
		<path class="st10" d="M400.1,303v31.7h-35V303H400.1 M403.4,299.8h-41.6V338h41.6V299.8L403.4,299.8z"/>
	</g>
	<g>
		<path class="st10" d="M441.7,264.8v31.7h-35v-31.7H441.7 M445,261.5h-41.6v38.3H445V261.5L445,261.5z"/>
	</g>
	<g>
		<path class="st11" d="M275.4,35.3v69.9h-76.6V35.3H275.4 M278.6,32h-83.2v76.5h83.2V32L278.6,32z"/>
	</g>
	<g>
		<path class="st11" d="M192.2,111.8v69.9h-76.6v-69.9H192.2 M195.5,108.5h-83.2V185h83.2V108.5L195.5,108.5z"/>
	</g>
	<g>
		<path class="st11" d="M358.5,264.8v69.9h-76.6v-69.9H358.5 M361.8,261.5h-83.2V338h83.2V261.5L361.8,261.5z"/>
	</g>
	<g>
		<path class="st11" d="M441.7,188.3v69.9h-76.6v-69.9H441.7 M445,185h-83.2v76.5H445V185L445,185z"/>
	</g>
	<g>
		<path class="st12" d="M441.7,35.3v146.4H281.9V35.3H441.7 M445,32H278.6v153H445V32L445,32z"/>
	</g>
	<g>
		<path class="st12" d="M275.4,188.3v146.4H115.6V188.3H275.4 M278.6,185H112.3v153h166.3V185L278.6,185z"/>
	</g>
</g>
</svg>
