<?xml version="1.0" encoding="utf-8"?>
<!-- Generator: Adobe Illustrator 24.1.2, SVG Export Plug-In . SVG Version: 6.00 Build 0)  -->
<svg version="1.1" id="Layer_1" xmlns="http://www.w3.org/2000/svg" xmlns:xlink="http://www.w3.org/1999/xlink" x="0px" y="0px"
	 viewBox="0 0 565 432" style="enable-background:new 0 0 565 432;" xml:space="preserve">
<style type="text/css">
	.st0{clip-path:url(#SVGID_2_);fill:#FFFFFF;}
	.st1{fill:#FFFFFF;}
	.st2{fill:none;stroke:#262626;stroke-width:0.8333;stroke-linecap:square;stroke-linejoin:round;stroke-miterlimit:10;}
	.st3{fill:#262626;}
	.st4{font-family:'MyriadPro-Regular';}
	.st5{font-size:16.6667px;}
	.st6{font-size:18.3333px;}
	.st7{font-size:15px;}
	.st8{fill:none;stroke:#333333;stroke-width:0.8333;stroke-linecap:square;stroke-linejoin:round;stroke-miterlimit:10;}
	.st9{fill:#0072BE;}
	.st10{fill:#DA5319;}
	.st11{fill:#7E2F8E;}
	.st12{fill:#77AD30;}
</style>
<g>
	<g>
		<g>
			<defs>
				<rect id="SVGID_1_" width="565" height="432"/>
			</defs>
			<clipPath id="SVGID_2_">
				<use xlink:href="#SVGID_1_"  style="overflow:visible;"/>
			</clipPath>
			<rect class="st0" width="565" height="432"/>
		</g>
	</g>
	<g>
		<rect class="st1" width="565" height="432"/>
		<path class="st1" d="M141,312h304V32H141V312z"/>
	</g>
	<g>
		<line class="st2" x1="141" y1="312" x2="445" y2="312"/>
		<line class="st2" x1="141" y1="32" x2="445" y2="32"/>
		<line class="st2" x1="160" y1="312" x2="160" y2="309"/>
		<line class="st2" x1="198" y1="312" x2="198" y2="309"/>
		<line class="st2" x1="236" y1="312" x2="236" y2="309"/>
		<line class="st2" x1="274" y1="312" x2="274" y2="309"/>
		<line class="st2" x1="312" y1="312" x2="312" y2="309"/>
		<line class="st2" x1="350" y1="312" x2="350" y2="309"/>
		<line class="st2" x1="388" y1="312" x2="388" y2="309"/>
		<line class="st2" x1="426" y1="312" x2="426" y2="309"/>
		<line class="st2" x1="160" y1="32" x2="160" y2="35"/>
		<line class="st2" x1="198" y1="32" x2="198" y2="35"/>
		<line class="st2" x1="236" y1="32" x2="236" y2="35"/>
		<line class="st2" x1="274" y1="32" x2="274" y2="35"/>
		<line class="st2" x1="312" y1="32" x2="312" y2="35"/>
		<line class="st2" x1="350" y1="32" x2="350" y2="35"/>
		<line class="st2" x1="388" y1="32" x2="388" y2="35"/>
		<line class="st2" x1="426" y1="32" x2="426" y2="35"/>
	</g>
	<g transform="translate(160,318.6667) rotate(-45)">
		<text transform="matrix(1 0 0 1 -67 17.0001)" class="st3 st4 st5">V1 super</text>
	</g>
	<g transform="translate(198,318.6667) rotate(-45)">
		<text transform="matrix(1 0 0 1 -100.0001 16.9999)" class="st3 st4 st5">V1 mid-super</text>
	</g>
	<g transform="translate(236,318.6667) rotate(-45)">
		<text transform="matrix(1 0 0 1 -94.9999 16.9999)" class="st3 st4 st5">V1 mid-deep</text>
	</g>
	<g transform="translate(274,318.6667) rotate(-45)">
		<text transform="matrix(1 0 0 1 -62.9999 16.9999)" class="st3 st4 st5">V1 deep</text>
	</g>
	<g transform="translate(312,318.6667) rotate(-45)">
		<text transform="matrix(1 0 0 1 -73 17.0001)" class="st3 st4 st5">MC super</text>
	</g>
	<g transform="translate(350,318.6667) rotate(-45)">
		<text transform="matrix(1 0 0 1 -105.0001 17.0001)" class="st3 st4 st5">MC mid-super</text>
	</g>
	<g transform="translate(388,318.6667) rotate(-45)">
		<text transform="matrix(1 0 0 1 -100.0001 16.9999)" class="st3 st4 st5">MC mid-deep</text>
	</g>
	<g transform="translate(426,318.6667) rotate(-45)">
		<text transform="matrix(1 0 0 1 -68.0001 16.9999)" class="st3 st4 st5">MC deep</text>
	</g>
	<g transform="translate(293.0002,409.4288)">
		<text transform="matrix(1 0 0 1 -12 19)" class="st3 st4 st6">R2</text>
	</g>
	<g>
		<line class="st2" x1="141" y1="32" x2="141" y2="312"/>
		<line class="st2" x1="445" y1="32" x2="445" y2="312"/>
		<line class="st2" x1="141" y1="49.5" x2="144" y2="49.5"/>
		<line class="st2" x1="141" y1="84.5" x2="144" y2="84.5"/>
		<line class="st2" x1="141" y1="119.5" x2="144" y2="119.5"/>
		<line class="st2" x1="141" y1="154.5" x2="144" y2="154.5"/>
		<line class="st2" x1="141" y1="189.5" x2="144" y2="189.5"/>
		<line class="st2" x1="141" y1="224.5" x2="144" y2="224.5"/>
		<line class="st2" x1="141" y1="259.5" x2="144" y2="259.5"/>
		<line class="st2" x1="141" y1="294.5" x2="144" y2="294.5"/>
		<line class="st2" x1="445" y1="49.5" x2="442" y2="49.5"/>
		<line class="st2" x1="445" y1="84.5" x2="442" y2="84.5"/>
		<line class="st2" x1="445" y1="119.5" x2="442" y2="119.5"/>
		<line class="st2" x1="445" y1="154.5" x2="442" y2="154.5"/>
		<line class="st2" x1="445" y1="189.5" x2="442" y2="189.5"/>
		<line class="st2" x1="445" y1="224.5" x2="442" y2="224.5"/>
		<line class="st2" x1="445" y1="259.5" x2="442" y2="259.5"/>
		<line class="st2" x1="445" y1="294.5" x2="442" y2="294.5"/>
	</g>
	<g transform="translate(134.3333,49.5)">
		<text transform="matrix(1 0 0 1 -67 6.5)" class="st3 st4 st5">V1 super</text>
	</g>
	<g transform="translate(134.3333,84.5)">
		<text transform="matrix(1 0 0 1 -100 6.5)" class="st3 st4 st5">V1 mid-super</text>
	</g>
	<g transform="translate(134.3333,119.5)">
		<text transform="matrix(1 0 0 1 -95 6.5)" class="st3 st4 st5">V1 mid-deep</text>
	</g>
	<g transform="translate(134.3333,154.5)">
		<text transform="matrix(1 0 0 1 -63 6.5)" class="st3 st4 st5">V1 deep</text>
	</g>
	<g transform="translate(134.3333,189.5)">
		<text transform="matrix(1 0 0 1 -73 6.5)" class="st3 st4 st5">MC super</text>
	</g>
	<g transform="translate(134.3333,224.5)">
		<text transform="matrix(1 0 0 1 -105 6.5)" class="st3 st4 st5">MC mid-super</text>
	</g>
	<g transform="translate(134.3333,259.5)">
		<text transform="matrix(1 0 0 1 -100 6.5)" class="st3 st4 st5">MC mid-deep</text>
	</g>
	<g transform="translate(134.3333,294.5)">
		<text transform="matrix(1 0 0 1 -68 6.5)" class="st3 st4 st5">MC deep</text>
	</g>
	<g transform="translate(24.3333,171.9999) rotate(-90)">
		<text transform="matrix(1 0 0 1 -12.0001 -5)" class="st3 st4 st6">R1</text>
	</g>
	<g transform="translate(293.0003,29.25)">
		<text transform="matrix(1 0 0 1 -185.5 -5)" class="st4 st6">Median conditional entropy of R2 given R1</text>
	</g>
	<g transform="matrix(0.5,0,0,0.5,141,32)">
		<g>
			<defs>
				<polygon id="SVGID_3_" points="0,0 0,70 0,140 0,210 0,280 0,350 0,420 0,490 0,560 76,560 152,560 228,560 304,560 380,560 
					456,560 532,560 608,560 608,490 608,420 608,350 608,280 608,210 608,140 608,70 608,0 532,0 456,0 380,0 304,0 228,0 152,0 
					76,0 				"/>
			</defs>
			<clipPath id="SVGID_4_">
				<use xlink:href="#SVGID_3_"  style="overflow:visible;"/>
			</clipPath>
			
				<image style="overflow:visible;clip-path:url(#SVGID_4_);enable-background:new    ;" width="608" height="560" xlink:href="6EB480D7.png" >
			</image>
		</g>
	</g>
	<g>
		<line class="st2" x1="457" y1="313" x2="484" y2="313"/>
		<line class="st2" x1="457" y1="33" x2="484" y2="33"/>
		<line class="st2" x1="457" y1="313" x2="457" y2="33"/>
		<line class="st2" x1="484" y1="313" x2="484" y2="33"/>
	</g>
	<g transform="matrix(0.5,0,0,0.5,457,33)">
		<g>
			<defs>
				<rect id="SVGID_5_" x="13.5" y="140" width="27" height="280"/>
			</defs>
			<clipPath id="SVGID_6_">
				<use xlink:href="#SVGID_5_"  style="overflow:visible;"/>
			</clipPath>
			
				<image style="overflow:visible;clip-path:url(#SVGID_6_);enable-background:new    ;" width="54" height="560" xlink:href="6EB480D5.png" >
			</image>
		</g>
	</g>
	<g>
		<line class="st2" x1="484" y1="313" x2="484" y2="33"/>
		<line class="st2" x1="484" y1="313" x2="481.2" y2="313"/>
		<line class="st2" x1="484" y1="238.8" x2="481.2" y2="238.8"/>
		<line class="st2" x1="484" y1="164.6" x2="481.2" y2="164.6"/>
		<line class="st2" x1="484" y1="90.4" x2="481.2" y2="90.4"/>
	</g>
	<g transform="translate(490.3333,313)">
		<text transform="matrix(1 0 0 1 0 6)" class="st3 st4 st7">0</text>
	</g>
	<g transform="translate(490.3333,238.7887)">
		<text transform="matrix(1 0 0 1 0 6)" class="st3 st4 st7">0.5</text>
	</g>
	<g transform="translate(490.3333,164.5775)">
		<text transform="matrix(1 0 0 1 0 6)" class="st3 st4 st7">1</text>
	</g>
	<g transform="translate(490.3333,90.3662)">
		<text transform="matrix(1 0 0 1 0 6)" class="st3 st4 st7">1.5</text>
	</g>
	<g transform="translate(516.3333,172.9999) rotate(-90)">
		<text transform="matrix(1 0 0 1 -45.0001 16)" class="st3 st4 st7">Entropy (bits)</text>
	</g>
	<g>
		<line class="st2" x1="457" y1="33" x2="484" y2="33"/>
		<line class="st2" x1="457" y1="313" x2="484" y2="313"/>
		<line class="st2" x1="457" y1="313" x2="457" y2="33"/>
		<line class="st2" x1="484" y1="313" x2="484" y2="33"/>
		<line class="st8" x1="457" y1="313" x2="457" y2="313"/>
		<line class="st8" x1="457" y1="33" x2="457" y2="33"/>
		<line class="st8" x1="484" y1="313" x2="484" y2="313"/>
		<line class="st8" x1="484" y1="33" x2="484" y2="33"/>
	</g>
</g>
<g>
	<path class="st9" d="M176,35v29h-32V35H176 M179,32h-38v35h38V32L179,32z"/>
</g>
<g>
	<path class="st9" d="M214,70v29h-32V70H214 M217,67h-38v35h38V67L217,67z"/>
</g>
<g>
	<path class="st9" d="M252,105v29h-32v-29H252 M255,102h-38v35h38V102L255,102z"/>
</g>
<g>
	<path class="st9" d="M290,140v29h-32v-29H290 M293,137h-38v35h38V137L293,137z"/>
</g>
<g>
	<path class="st9" d="M328,175v29h-32v-29H328 M331,172h-38v35h38V172L331,172z"/>
</g>
<g>
	<path class="st9" d="M366,210v29h-32v-29H366 M369,207h-38v35h38V207L369,207z"/>
</g>
<g>
	<path class="st9" d="M404,245v29h-32v-29H404 M407,242h-38v35h38V242L407,242z"/>
</g>
<g>
	<path class="st9" d="M442,280v29h-32v-29H442 M445,277h-38v35h38V277L445,277z"/>
</g>
<g>
	<path class="st10" d="M176,70v29h-32V70H176 M179,67h-38v35h38V67L179,67z"/>
</g>
<g>
	<path class="st10" d="M214,35v29h-32V35H214 M217,32h-38v35h38V32L217,32z"/>
</g>
<g>
	<path class="st10" d="M290,105v29h-32v-29H290 M293,102h-38v35h38V102L293,102z"/>
</g>
<g>
	<path class="st10" d="M252,140v29h-32v-29H252 M255,137h-38v35h38V137L255,137z"/>
</g>
<g>
	<path class="st10" d="M328,210v29h-32v-29H328 M331,207h-38v35h38V207L331,207z"/>
</g>
<g>
	<path class="st10" d="M366,175v29h-32v-29H366 M369,172h-38v35h38V172L369,172z"/>
</g>
<g>
	<path class="st10" d="M404,280v29h-32v-29H404 M407,277h-38v35h38V277L407,277z"/>
</g>
<g>
	<path class="st10" d="M442,245v29h-32v-29H442 M445,242h-38v35h38V242L445,242z"/>
</g>
<g>
	<path class="st11" d="M290,35v64h-70V35H290 M293,32h-76v70h76V32L293,32z"/>
</g>
<g>
	<path class="st11" d="M214,105v64h-70v-64H214 M217,102h-76v70h76V102L217,102z"/>
</g>
<g>
	<path class="st11" d="M366,245v64h-70v-64H366 M369,242h-76v70h76V242L369,242z"/>
</g>
<g>
	<path class="st11" d="M442,175v64h-70v-64H442 M445,172h-76v70h76V172L445,172z"/>
</g>
<g>
	<path class="st12" d="M442,35v134H296V35H442 M445,32H293v140h152V32L445,32z"/>
</g>
<g>
	<path class="st12" d="M290,175v134H144V175H290 M293,172H141v140h152V172L293,172z"/>
</g>
</svg>
