<?xml version="1.0" encoding="utf-8"?>
<!-- Generator: Adobe Illustrator 24.1.2, SVG Export Plug-In . SVG Version: 6.00 Build 0)  -->
<svg version="1.1" id="Layer_1" xmlns="http://www.w3.org/2000/svg" xmlns:xlink="http://www.w3.org/1999/xlink" x="0px" y="0px"
	 viewBox="0 0 683 430" style="enable-background:new 0 0 683 430;" xml:space="preserve">
<style type="text/css">
	.st0{clip-path:url(#SVGID_2_);fill:#FFFFFF;}
	.st1{fill:#FFFFFF;}
	.st2{fill:none;stroke:#262626;stroke-width:0.8333;stroke-linecap:square;stroke-linejoin:round;stroke-miterlimit:10;}
	.st3{fill:#262626;}
	.st4{fill:#0072BD;fill-opacity:0.302;}
	.st5{fill:none;stroke:#808080;stroke-width:0.8333;stroke-linecap:square;stroke-miterlimit:10;}
	.st6{fill:#808080;}
	.st7{fill:none;stroke:#808080;stroke-width:0.8333;stroke-linejoin:round;stroke-miterlimit:10;}
	.st8{fill:#D95319;fill-opacity:0.302;}
	.st9{fill:#7E2F8E;fill-opacity:0.302;}
	.st10{fill:#77AC30;fill-opacity:0.302;}
	.st11{fill:#A2142F;fill-opacity:0.302;}
	.st12{fill:none;stroke:#000000;stroke-width:0.8333;stroke-linejoin:bevel;stroke-miterlimit:1;stroke-dasharray:10,6;}
	.st13{fill:none;stroke:#000000;stroke-miterlimit:10;}
	.st14{font-family:'ArialMT';}
	.st15{font-size:21px;}
	.st16{font-size:15px;}
</style>
<g>
	<g>
		<defs>
			<rect id="SVGID_1_" width="683" height="430"/>
		</defs>
		<clipPath id="SVGID_2_">
			<use xlink:href="#SVGID_1_"  style="overflow:visible;"/>
		</clipPath>
		<rect class="st0" width="683" height="430"/>
	</g>
</g>
<g>
	<rect class="st1" width="683" height="430"/>
	<path class="st1" d="M89,380h530V32H89V380z"/>
</g>
<g>
	<line class="st2" x1="89" y1="380" x2="619" y2="380"/>
	<line class="st2" x1="142" y1="380" x2="142" y2="374.7"/>
	<line class="st2" x1="248" y1="380" x2="248" y2="374.7"/>
	<line class="st2" x1="354" y1="380" x2="354" y2="374.7"/>
	<line class="st2" x1="460" y1="380" x2="460" y2="374.7"/>
	<line class="st2" x1="566" y1="380" x2="566" y2="374.7"/>
</g>
<g transform="translate(142,386.6667)">
	<path class="st3" d="M-52.7,13.1l1.5-0.1c0.1,0.6,0.2,1.1,0.5,1.5c0.3,0.4,0.7,0.7,1.2,0.9c0.6,0.2,1.2,0.4,1.9,0.4
		c0.6,0,1.2-0.1,1.6-0.3c0.5-0.2,0.8-0.4,1.1-0.8c0.2-0.3,0.4-0.7,0.4-1c0-0.4-0.1-0.7-0.3-1c-0.2-0.3-0.6-0.5-1.1-0.7
		c-0.3-0.1-1-0.3-2.2-0.6c-1.1-0.3-1.9-0.5-2.4-0.8c-0.6-0.3-1-0.7-1.3-1.1c-0.3-0.5-0.4-1-0.4-1.5c0-0.6,0.2-1.2,0.5-1.7
		c0.3-0.5,0.9-0.9,1.5-1.2c0.7-0.3,1.4-0.4,2.2-0.4c0.9,0,1.7,0.1,2.4,0.4c0.7,0.3,1.2,0.7,1.6,1.3c0.4,0.6,0.6,1.2,0.6,1.9L-45,8.4
		C-45,7.6-45.3,7-45.8,6.6C-46.3,6.2-47,6-47.9,6c-1,0-1.7,0.2-2.1,0.5c-0.4,0.4-0.7,0.8-0.7,1.3c0,0.4,0.2,0.8,0.5,1.1
		s1.1,0.6,2.4,0.9c1.3,0.3,2.2,0.6,2.7,0.8c0.7,0.3,1.2,0.7,1.6,1.2c0.3,0.5,0.5,1.1,0.5,1.7c0,0.6-0.2,1.3-0.6,1.8
		c-0.4,0.6-0.9,1-1.6,1.3c-0.7,0.3-1.5,0.5-2.3,0.5c-1.1,0-2-0.2-2.8-0.5c-0.7-0.3-1.3-0.8-1.8-1.4C-52.5,14.6-52.7,13.9-52.7,13.1z
		 M-35.5,15.9c-0.6,0.5-1.1,0.8-1.6,1c-0.5,0.2-1.1,0.3-1.6,0.3c-1,0-1.7-0.2-2.2-0.7c-0.5-0.5-0.8-1.1-0.8-1.8
		c0-0.4,0.1-0.8,0.3-1.2c0.2-0.4,0.5-0.6,0.8-0.9c0.3-0.2,0.7-0.4,1.1-0.5c0.3-0.1,0.7-0.1,1.3-0.2c1.2-0.1,2.1-0.3,2.7-0.5
		c0-0.2,0-0.3,0-0.4c0-0.6-0.1-1-0.4-1.3c-0.4-0.3-0.9-0.5-1.7-0.5c-0.7,0-1.2,0.1-1.5,0.4c-0.3,0.2-0.6,0.7-0.8,1.3l-1.5-0.2
		c0.1-0.6,0.4-1.1,0.7-1.5c0.3-0.4,0.7-0.7,1.3-0.9c0.6-0.2,1.2-0.3,2-0.3c0.8,0,1.4,0.1,1.8,0.3c0.5,0.2,0.8,0.4,1,0.7
		c0.2,0.3,0.4,0.6,0.5,1c0.1,0.3,0.1,0.7,0.1,1.4v2c0,1.4,0,2.3,0.1,2.6c0.1,0.4,0.2,0.7,0.4,1.1h-1.6
		C-35.4,16.7-35.5,16.3-35.5,15.9z M-35.6,12.6c-0.5,0.2-1.4,0.4-2.4,0.6c-0.6,0.1-1,0.2-1.3,0.3s-0.5,0.3-0.6,0.5
		c-0.1,0.2-0.2,0.5-0.2,0.7c0,0.4,0.2,0.7,0.5,1c0.3,0.3,0.7,0.4,1.3,0.4c0.6,0,1.1-0.1,1.5-0.4c0.4-0.3,0.8-0.6,1-1
		c0.2-0.3,0.2-0.8,0.2-1.5V12.6z M-32,17V8.2h1.3v1.2c0.3-0.4,0.7-0.8,1.1-1c0.5-0.3,1-0.4,1.6-0.4c0.7,0,1.2,0.1,1.6,0.4
		c0.4,0.3,0.7,0.7,0.9,1.1c0.7-1,1.6-1.5,2.7-1.5c0.9,0,1.5,0.2,2,0.7c0.5,0.5,0.7,1.2,0.7,2.2v6h-1.5v-5.5c0-0.6,0-1-0.1-1.3
		c-0.1-0.3-0.3-0.5-0.5-0.6s-0.6-0.2-0.9-0.2c-0.6,0-1.1,0.2-1.5,0.6c-0.4,0.4-0.6,1.1-0.6,2V17h-1.5v-5.7c0-0.7-0.1-1.2-0.4-1.5
		s-0.6-0.5-1.2-0.5c-0.4,0-0.8,0.1-1.2,0.3c-0.4,0.2-0.6,0.5-0.8,1c-0.2,0.4-0.2,1-0.2,1.8V17H-32z M-12.1,14.2l1.5,0.2
		c-0.3,0.9-0.7,1.6-1.4,2.1c-0.7,0.5-1.5,0.8-2.5,0.8c-1.3,0-2.3-0.4-3.1-1.2c-0.8-0.8-1.1-1.9-1.1-3.3c0-1.5,0.4-2.6,1.1-3.5
		c0.8-0.8,1.8-1.2,3-1.2c1.2,0,2.2,0.4,2.9,1.2s1.1,1.9,1.1,3.4c0,0.1,0,0.2,0,0.4h-6.6c0.1,1,0.3,1.7,0.8,2.2
		c0.5,0.5,1.1,0.8,1.8,0.8c0.6,0,1-0.1,1.4-0.4C-12.6,15.3-12.3,14.8-12.1,14.2z M-17,11.8h4.9c-0.1-0.7-0.3-1.3-0.6-1.7
		c-0.5-0.6-1.1-0.9-1.9-0.9c-0.7,0-1.3,0.2-1.7,0.7C-16.7,10.4-17,11-17,11.8z M1.5,13.8L3,14c-0.2,1-0.6,1.8-1.2,2.4
		c-0.7,0.6-1.5,0.9-2.4,0.9c-1.2,0-2.2-0.4-2.9-1.2c-0.7-0.8-1.1-1.9-1.1-3.4c0-0.9,0.2-1.8,0.5-2.5c0.3-0.7,0.8-1.3,1.4-1.6
		C-2.1,8.2-1.4,8-0.7,8c1,0,1.7,0.2,2.3,0.7c0.6,0.5,1,1.2,1.2,2.1L1.4,11C1.3,10.4,1,10,0.7,9.7C0.3,9.4-0.1,9.2-0.6,9.2
		C-1.4,9.2-2,9.5-2.5,10c-0.5,0.5-0.7,1.4-0.7,2.6c0,1.2,0.2,2,0.7,2.6c0.5,0.5,1,0.8,1.8,0.8c0.6,0,1.1-0.2,1.5-0.5
		C1.2,15.1,1.4,14.5,1.5,13.8z M4.1,17V4.8h1.5v4.4C6.3,8.4,7.2,8,8.2,8c0.7,0,1.2,0.1,1.7,0.4c0.5,0.3,0.8,0.6,1,1.1
		c0.2,0.5,0.3,1.1,0.3,2V17H9.8v-5.6c0-0.7-0.2-1.3-0.5-1.6C9,9.4,8.5,9.3,7.9,9.3c-0.4,0-0.9,0.1-1.3,0.3C6.3,9.8,6,10.2,5.8,10.5
		c-0.2,0.4-0.3,0.9-0.3,1.6V17H4.1z M19.1,15.9c-0.6,0.5-1.1,0.8-1.6,1c-0.5,0.2-1.1,0.3-1.6,0.3c-1,0-1.7-0.2-2.2-0.7
		c-0.5-0.5-0.8-1.1-0.8-1.8c0-0.4,0.1-0.8,0.3-1.2c0.2-0.4,0.5-0.6,0.8-0.9c0.3-0.2,0.7-0.4,1.1-0.5c0.3-0.1,0.7-0.1,1.3-0.2
		c1.2-0.1,2.1-0.3,2.7-0.5c0-0.2,0-0.3,0-0.4c0-0.6-0.1-1-0.4-1.3c-0.4-0.3-0.9-0.5-1.7-0.5c-0.7,0-1.2,0.1-1.5,0.4
		c-0.3,0.2-0.6,0.7-0.8,1.3l-1.5-0.2c0.1-0.6,0.4-1.1,0.7-1.5c0.3-0.4,0.7-0.7,1.3-0.9c0.6-0.2,1.2-0.3,2-0.3c0.8,0,1.4,0.1,1.8,0.3
		s0.8,0.4,1,0.7c0.2,0.3,0.4,0.6,0.5,1c0.1,0.3,0.1,0.7,0.1,1.4v2c0,1.4,0,2.3,0.1,2.6c0.1,0.4,0.2,0.7,0.4,1.1h-1.6
		C19.2,16.7,19.1,16.3,19.1,15.9z M19,12.6c-0.5,0.2-1.4,0.4-2.4,0.6c-0.6,0.1-1,0.2-1.3,0.3c-0.3,0.1-0.5,0.3-0.6,0.5
		c-0.1,0.2-0.2,0.5-0.2,0.7c0,0.4,0.2,0.7,0.5,1c0.3,0.3,0.7,0.4,1.3,0.4c0.6,0,1.1-0.1,1.5-0.4c0.4-0.3,0.8-0.6,1-1
		c0.2-0.3,0.2-0.8,0.2-1.5V12.6z M22.6,17V8.2H24v1.3c0.6-1,1.6-1.5,2.8-1.5c0.5,0,1,0.1,1.5,0.3c0.4,0.2,0.8,0.4,1,0.8
		c0.2,0.3,0.4,0.7,0.5,1.1c0.1,0.3,0.1,0.8,0.1,1.5V17h-1.5v-5.4c0-0.6-0.1-1.1-0.2-1.4C28,10,27.8,9.7,27.5,9.5
		c-0.3-0.2-0.6-0.3-1-0.3c-0.6,0-1.2,0.2-1.6,0.6c-0.5,0.4-0.7,1.2-0.7,2.3V17H22.6z M31.9,17V8.2h1.3v1.3C33.9,8.5,34.8,8,36,8
		c0.5,0,1,0.1,1.5,0.3c0.4,0.2,0.8,0.4,1,0.8c0.2,0.3,0.4,0.7,0.5,1.1c0.1,0.3,0.1,0.8,0.1,1.5V17h-1.5v-5.4c0-0.6-0.1-1.1-0.2-1.4
		C37.3,10,37,9.7,36.7,9.5c-0.3-0.2-0.6-0.3-1-0.3c-0.6,0-1.2,0.2-1.6,0.6c-0.5,0.4-0.7,1.2-0.7,2.3V17H31.9z M47.2,14.2l1.5,0.2
		c-0.2,0.9-0.7,1.6-1.4,2.1c-0.7,0.5-1.5,0.8-2.5,0.8c-1.3,0-2.3-0.4-3.1-1.2c-0.8-0.8-1.1-1.9-1.1-3.3c0-1.5,0.4-2.6,1.1-3.5
		c0.8-0.8,1.8-1.2,3-1.2c1.2,0,2.2,0.4,2.9,1.2c0.7,0.8,1.1,1.9,1.1,3.4c0,0.1,0,0.2,0,0.4h-6.6c0.1,1,0.3,1.7,0.8,2.2
		c0.5,0.5,1.1,0.8,1.8,0.8c0.6,0,1-0.1,1.4-0.4C46.6,15.3,46.9,14.8,47.2,14.2z M42.3,11.8h4.9c-0.1-0.7-0.3-1.3-0.6-1.7
		c-0.5-0.6-1.1-0.9-1.9-0.9c-0.7,0-1.2,0.2-1.7,0.7C42.6,10.4,42.3,11,42.3,11.8z M50.4,17V4.8h1.5V17H50.4z"/>
</g>
<g transform="translate(248,386.6667)">
	<path class="st3" d="M-40.2,17V4.8h1.7l6.4,9.6V4.8h1.5V17h-1.6l-6.4-9.6V17H-40.2z M-22.3,14.2l1.5,0.2c-0.3,0.9-0.7,1.6-1.4,2.1
		c-0.7,0.5-1.5,0.8-2.5,0.8c-1.3,0-2.3-0.4-3.1-1.2c-0.8-0.8-1.1-1.9-1.1-3.3c0-1.5,0.4-2.6,1.1-3.5c0.8-0.8,1.8-1.2,3-1.2
		c1.2,0,2.2,0.4,2.9,1.2c0.7,0.8,1.1,1.9,1.1,3.4c0,0.1,0,0.2,0,0.4h-6.6c0.1,1,0.3,1.7,0.8,2.2c0.5,0.5,1.1,0.8,1.8,0.8
		c0.6,0,1-0.1,1.4-0.4S-22.5,14.8-22.3,14.2z M-27.2,11.8h4.9c-0.1-0.7-0.3-1.3-0.6-1.7c-0.5-0.6-1.1-0.9-1.9-0.9
		c-0.7,0-1.2,0.2-1.7,0.7C-26.9,10.4-27.2,11-27.2,11.8z M-13.3,15.9c-0.6,0.5-1.1,0.8-1.6,1c-0.5,0.2-1.1,0.3-1.6,0.3
		c-1,0-1.7-0.2-2.2-0.7c-0.5-0.5-0.8-1.1-0.8-1.8c0-0.4,0.1-0.8,0.3-1.2c0.2-0.4,0.5-0.6,0.8-0.9s0.7-0.4,1.1-0.5
		c0.3-0.1,0.7-0.1,1.3-0.2c1.2-0.1,2.1-0.3,2.7-0.5c0-0.2,0-0.3,0-0.4c0-0.6-0.1-1-0.4-1.3c-0.4-0.3-0.9-0.5-1.7-0.5
		c-0.7,0-1.2,0.1-1.5,0.4c-0.3,0.2-0.6,0.7-0.8,1.3l-1.5-0.2c0.1-0.6,0.4-1.1,0.7-1.5c0.3-0.4,0.7-0.7,1.3-0.9
		c0.6-0.2,1.2-0.3,2-0.3c0.8,0,1.4,0.1,1.8,0.3s0.8,0.4,1,0.7c0.2,0.3,0.4,0.6,0.5,1c0.1,0.3,0.1,0.7,0.1,1.4v2c0,1.4,0,2.3,0.1,2.6
		c0.1,0.4,0.2,0.7,0.4,1.1H-13C-13.2,16.7-13.3,16.3-13.3,15.9z M-13.5,12.6c-0.5,0.2-1.4,0.4-2.4,0.6c-0.6,0.1-1,0.2-1.3,0.3
		c-0.3,0.1-0.5,0.3-0.6,0.5c-0.1,0.2-0.2,0.5-0.2,0.7c0,0.4,0.2,0.7,0.5,1c0.3,0.3,0.7,0.4,1.3,0.4c0.6,0,1.1-0.1,1.5-0.4
		c0.4-0.3,0.8-0.6,1-1c0.2-0.3,0.2-0.8,0.2-1.5V12.6z M-9.8,17V8.2h1.3v1.3c0.3-0.6,0.7-1,0.9-1.2C-7.3,8.1-6.9,8-6.6,8
		c0.5,0,1,0.2,1.5,0.5l-0.5,1.4c-0.4-0.2-0.7-0.3-1.1-0.3c-0.3,0-0.6,0.1-0.9,0.3s-0.4,0.5-0.6,0.8c-0.2,0.5-0.3,1.1-0.3,1.8V17
		H-9.8z M6.1,17v-1.1c-0.6,0.9-1.4,1.3-2.5,1.3c-0.7,0-1.3-0.2-1.9-0.6c-0.6-0.4-1.1-0.9-1.4-1.6c-0.3-0.7-0.5-1.5-0.5-2.4
		c0-0.9,0.1-1.7,0.4-2.4S1,8.9,1.6,8.6C2.2,8.2,2.8,8,3.5,8c0.5,0,1,0.1,1.4,0.3c0.4,0.2,0.7,0.5,1,0.9V4.8h1.5V17H6.1z M1.3,12.6
		c0,1.1,0.2,2,0.7,2.5c0.5,0.6,1,0.8,1.7,0.8c0.7,0,1.2-0.3,1.7-0.8c0.5-0.5,0.7-1.3,0.7-2.5c0-1.2-0.2-2.1-0.7-2.6
		c-0.5-0.6-1-0.9-1.7-0.9C3,9.2,2.5,9.5,2,10C1.6,10.6,1.3,11.4,1.3,12.6z M15.6,14.2l1.5,0.2c-0.3,0.9-0.7,1.6-1.4,2.1
		c-0.7,0.5-1.5,0.8-2.5,0.8c-1.3,0-2.3-0.4-3.1-1.2c-0.8-0.8-1.1-1.9-1.1-3.3c0-1.5,0.4-2.6,1.1-3.5C11,8.4,12,8,13.2,8
		c1.2,0,2.2,0.4,2.9,1.2c0.7,0.8,1.1,1.9,1.1,3.4c0,0.1,0,0.2,0,0.4h-6.6c0.1,1,0.3,1.7,0.8,2.2c0.5,0.5,1.1,0.8,1.8,0.8
		c0.6,0,1-0.1,1.4-0.4C15.1,15.3,15.4,14.8,15.6,14.2z M10.7,11.8h4.9c-0.1-0.7-0.2-1.3-0.6-1.7c-0.5-0.6-1.1-0.9-1.9-0.9
		c-0.7,0-1.2,0.2-1.7,0.7C11.1,10.4,10.8,11,10.7,11.8z M18.9,20.4V8.2h1.4v1.1c0.3-0.4,0.7-0.8,1.1-1C21.7,8.1,22.2,8,22.8,8
		c0.8,0,1.4,0.2,2,0.6s1,0.9,1.3,1.6c0.3,0.7,0.4,1.5,0.4,2.3c0,0.9-0.2,1.7-0.5,2.4c-0.3,0.7-0.8,1.3-1.4,1.7
		c-0.6,0.4-1.3,0.6-1.9,0.6c-0.5,0-0.9-0.1-1.3-0.3c-0.4-0.2-0.7-0.5-1-0.8v4.3H18.9z M20.2,12.6c0,1.1,0.2,2,0.7,2.5
		c0.5,0.5,1,0.8,1.7,0.8c0.7,0,1.2-0.3,1.7-0.8c0.5-0.6,0.7-1.4,0.7-2.6c0-1.1-0.2-2-0.7-2.5c-0.5-0.6-1-0.8-1.7-0.8
		C22,9.2,21.4,9.5,21,10C20.5,10.6,20.2,11.5,20.2,12.6z M31.4,15.7l0.2,1.3c-0.4,0.1-0.8,0.1-1.1,0.1c-0.5,0-1-0.1-1.3-0.3
		c-0.3-0.2-0.5-0.4-0.6-0.7c-0.1-0.3-0.2-0.9-0.2-1.8V9.3h-1.1V8.2h1.1V6l1.5-0.9v3.1h1.5v1.2h-1.5v5.2c0,0.4,0,0.7,0.1,0.8
		c0.1,0.1,0.1,0.2,0.3,0.3c0.1,0.1,0.3,0.1,0.5,0.1C30.9,15.7,31.1,15.7,31.4,15.7z M32.8,17V4.8h1.5v4.4C35,8.4,35.8,8,36.9,8
		c0.7,0,1.2,0.1,1.7,0.4c0.5,0.3,0.8,0.6,1,1.1c0.2,0.5,0.3,1.1,0.3,2V17h-1.5v-5.6c0-0.7-0.2-1.3-0.5-1.6c-0.3-0.3-0.8-0.5-1.4-0.5
		c-0.4,0-0.9,0.1-1.3,0.3c-0.4,0.2-0.7,0.5-0.8,0.9c-0.2,0.4-0.3,0.9-0.3,1.6V17H32.8z"/>
</g>
<g transform="translate(354,386.6667)">
	<path class="st3" d="M-34.6,17V4.8h8.2v1.4H-33V10h5.7v1.4H-33V17H-34.6z M-19,15.9c-0.6,0.5-1.1,0.8-1.6,1
		c-0.5,0.2-1.1,0.3-1.6,0.3c-1,0-1.7-0.2-2.2-0.7c-0.5-0.5-0.8-1.1-0.8-1.8c0-0.4,0.1-0.8,0.3-1.2c0.2-0.4,0.5-0.6,0.8-0.9
		c0.3-0.2,0.7-0.4,1.1-0.5c0.3-0.1,0.7-0.1,1.3-0.2c1.2-0.1,2.1-0.3,2.7-0.5c0-0.2,0-0.3,0-0.4c0-0.6-0.1-1-0.4-1.3
		c-0.4-0.3-0.9-0.5-1.7-0.5c-0.7,0-1.2,0.1-1.5,0.4c-0.3,0.2-0.6,0.7-0.8,1.3l-1.5-0.2c0.1-0.6,0.4-1.1,0.7-1.5
		c0.3-0.4,0.7-0.7,1.3-0.9c0.6-0.2,1.2-0.3,2-0.3c0.8,0,1.4,0.1,1.8,0.3c0.5,0.2,0.8,0.4,1,0.7c0.2,0.3,0.4,0.6,0.5,1
		c0.1,0.3,0.1,0.7,0.1,1.4v2c0,1.4,0,2.3,0.1,2.6c0.1,0.4,0.2,0.7,0.4,1.1h-1.6C-18.8,16.7-18.9,16.3-19,15.9z M-19.1,12.6
		c-0.5,0.2-1.4,0.4-2.4,0.6c-0.6,0.1-1,0.2-1.3,0.3s-0.5,0.3-0.6,0.5c-0.1,0.2-0.2,0.5-0.2,0.7c0,0.4,0.2,0.7,0.5,1
		c0.3,0.3,0.7,0.4,1.3,0.4c0.6,0,1.1-0.1,1.5-0.4c0.4-0.3,0.8-0.6,1-1c0.2-0.3,0.2-0.8,0.2-1.5V12.6z M-15.5,17V8.2h1.3v1.3
		c0.3-0.6,0.7-1,0.9-1.2c0.3-0.2,0.6-0.3,1-0.3c0.5,0,1,0.2,1.5,0.5l-0.5,1.4c-0.4-0.2-0.7-0.3-1.1-0.3c-0.3,0-0.6,0.1-0.9,0.3
		c-0.3,0.2-0.4,0.5-0.6,0.8c-0.2,0.5-0.3,1.1-0.3,1.8V17H-15.5z M0.5,17v-1.1c-0.6,0.9-1.4,1.3-2.5,1.3c-0.7,0-1.3-0.2-1.9-0.6
		C-4.5,16.2-5,15.7-5.3,15c-0.3-0.7-0.5-1.5-0.5-2.4c0-0.9,0.1-1.7,0.4-2.4C-5.1,9.5-4.6,8.9-4,8.6C-3.5,8.2-2.8,8-2.1,8
		c0.5,0,1,0.1,1.4,0.3c0.4,0.2,0.7,0.5,1,0.9V4.8h1.5V17H0.5z M-4.3,12.6c0,1.1,0.2,2,0.7,2.5c0.5,0.6,1,0.8,1.7,0.8
		c0.7,0,1.2-0.3,1.7-0.8c0.5-0.5,0.7-1.3,0.7-2.5c0-1.2-0.2-2.1-0.7-2.6c-0.5-0.6-1-0.9-1.7-0.9c-0.7,0-1.2,0.3-1.7,0.8
		C-4.1,10.6-4.3,11.4-4.3,12.6z M10,14.2l1.5,0.2c-0.2,0.9-0.7,1.6-1.4,2.1c-0.7,0.5-1.5,0.8-2.5,0.8c-1.3,0-2.3-0.4-3.1-1.2
		c-0.8-0.8-1.1-1.9-1.1-3.3c0-1.5,0.4-2.6,1.1-3.5C5.4,8.4,6.4,8,7.6,8c1.2,0,2.2,0.4,2.9,1.2c0.7,0.8,1.1,1.9,1.1,3.4
		c0,0.1,0,0.2,0,0.4H5c0.1,1,0.3,1.7,0.8,2.2C6.4,15.7,7,16,7.7,16c0.6,0,1-0.1,1.4-0.4S9.8,14.8,10,14.2z M5.1,11.8H10
		C10,11,9.8,10.5,9.5,10.1C9,9.5,8.4,9.2,7.6,9.2c-0.7,0-1.2,0.2-1.7,0.7C5.4,10.4,5.2,11,5.1,11.8z M13.3,20.4V8.2h1.4v1.1
		c0.3-0.4,0.7-0.8,1.1-1C16.1,8.1,16.6,8,17.2,8c0.8,0,1.4,0.2,2,0.6s1,0.9,1.3,1.6c0.3,0.7,0.4,1.5,0.4,2.3c0,0.9-0.2,1.7-0.5,2.4
		c-0.3,0.7-0.8,1.3-1.4,1.7c-0.6,0.4-1.3,0.6-1.9,0.6c-0.5,0-0.9-0.1-1.3-0.3c-0.4-0.2-0.7-0.5-1-0.8v4.3H13.3z M14.6,12.6
		c0,1.1,0.2,2,0.7,2.5c0.5,0.5,1,0.8,1.7,0.8c0.7,0,1.2-0.3,1.7-0.8c0.5-0.6,0.7-1.4,0.7-2.6c0-1.1-0.2-2-0.7-2.5
		c-0.5-0.6-1-0.8-1.7-0.8c-0.6,0-1.2,0.3-1.7,0.9C14.9,10.6,14.6,11.5,14.6,12.6z M25.8,15.7L26,17c-0.4,0.1-0.8,0.1-1.1,0.1
		c-0.5,0-1-0.1-1.3-0.3c-0.3-0.2-0.5-0.4-0.6-0.7c-0.1-0.3-0.2-0.9-0.2-1.8V9.3h-1.1V8.2h1.1V6l1.5-0.9v3.1h1.5v1.2h-1.5v5.2
		c0,0.4,0,0.7,0.1,0.8c0.1,0.1,0.1,0.2,0.3,0.3c0.1,0.1,0.3,0.1,0.5,0.1C25.3,15.7,25.5,15.7,25.8,15.7z M27.2,17V4.8h1.5v4.4
		C29.3,8.4,30.2,8,31.3,8c0.7,0,1.2,0.1,1.7,0.4c0.5,0.3,0.8,0.6,1,1.1c0.2,0.5,0.3,1.1,0.3,2V17h-1.5v-5.6c0-0.7-0.2-1.3-0.5-1.6
		C32,9.4,31.6,9.3,31,9.3c-0.4,0-0.9,0.1-1.3,0.3c-0.4,0.2-0.7,0.5-0.8,0.9c-0.2,0.4-0.3,0.9-0.3,1.6V17H27.2z"/>
</g>
<g transform="translate(460,386.6667)">
	<path class="st3" d="M-38,12.7l1.6,0.4c-0.3,1.3-1,2.3-1.8,3c-0.9,0.7-1.9,1-3.2,1c-1.3,0-2.4-0.3-3.2-0.8
		c-0.8-0.5-1.4-1.3-1.9-2.3c-0.4-1-0.6-2.1-0.6-3.3c0-1.3,0.2-2.4,0.7-3.3c0.5-0.9,1.2-1.7,2.1-2.1c0.9-0.5,1.9-0.7,3-0.7
		c1.2,0,2.2,0.3,3.1,0.9c0.8,0.6,1.4,1.5,1.7,2.6l-1.6,0.4c-0.3-0.9-0.7-1.5-1.2-1.9C-40,6.2-40.6,6-41.4,6c-0.9,0-1.7,0.2-2.4,0.7
		c-0.6,0.4-1.1,1-1.3,1.8c-0.3,0.8-0.4,1.5-0.4,2.3c0,1,0.2,1.9,0.5,2.7c0.3,0.8,0.8,1.3,1.4,1.7c0.6,0.4,1.3,0.6,2.1,0.6
		c0.9,0,1.7-0.3,2.3-0.8C-38.7,14.5-38.2,13.8-38,12.7z M-34.9,17V8.2h1.3v1.3c0.3-0.6,0.7-1,0.9-1.2c0.3-0.2,0.6-0.3,1-0.3
		c0.5,0,1,0.2,1.5,0.5l-0.5,1.4c-0.4-0.2-0.7-0.3-1.1-0.3c-0.3,0-0.6,0.1-0.9,0.3c-0.3,0.2-0.4,0.5-0.6,0.8
		c-0.2,0.5-0.3,1.1-0.3,1.8V17H-34.9z M-29.9,12.6c0-1.6,0.5-2.8,1.4-3.6c0.8-0.7,1.7-1,2.8-1c1.2,0,2.2,0.4,3,1.2
		c0.8,0.8,1.2,1.9,1.2,3.3c0,1.1-0.2,2-0.5,2.7c-0.3,0.7-0.8,1.2-1.5,1.5c-0.6,0.4-1.4,0.5-2.1,0.5c-1.2,0-2.2-0.4-3-1.2
		C-29.5,15.2-29.9,14.1-29.9,12.6z M-28.3,12.6c0,1.1,0.2,2,0.7,2.5s1.1,0.8,1.9,0.8c0.7,0,1.4-0.3,1.8-0.8c0.5-0.6,0.7-1.4,0.7-2.6
		c0-1.1-0.2-1.9-0.7-2.5c-0.5-0.6-1.1-0.8-1.8-0.8c-0.7,0-1.4,0.3-1.9,0.8S-28.3,11.5-28.3,12.6z M-20.6,14.4l1.5-0.2
		c0.1,0.6,0.3,1,0.7,1.4c0.4,0.3,0.9,0.5,1.6,0.5c0.7,0,1.2-0.1,1.5-0.4c0.3-0.3,0.5-0.6,0.5-1c0-0.3-0.1-0.6-0.4-0.8
		c-0.2-0.1-0.7-0.3-1.5-0.5c-1.1-0.3-1.9-0.5-2.3-0.7c-0.4-0.2-0.8-0.5-1-0.8c-0.2-0.4-0.3-0.8-0.3-1.2c0-0.4,0.1-0.8,0.3-1.1
		c0.2-0.3,0.4-0.6,0.7-0.8c0.2-0.2,0.5-0.3,0.9-0.4C-18,8-17.6,8-17.1,8c0.7,0,1.3,0.1,1.8,0.3c0.5,0.2,0.9,0.5,1.2,0.8
		c0.3,0.3,0.4,0.8,0.5,1.4l-1.5,0.2c-0.1-0.4-0.3-0.8-0.6-1.1C-16,9.3-16.5,9.2-17,9.2c-0.7,0-1.2,0.1-1.5,0.3
		c-0.3,0.2-0.4,0.5-0.4,0.8c0,0.2,0.1,0.4,0.2,0.5c0.1,0.2,0.3,0.3,0.6,0.4c0.2,0.1,0.6,0.2,1.3,0.4c1.1,0.3,1.8,0.5,2.2,0.7
		c0.4,0.2,0.7,0.4,1,0.8c0.2,0.3,0.4,0.8,0.4,1.3c0,0.5-0.1,1-0.4,1.4s-0.7,0.8-1.3,1c-0.5,0.2-1.2,0.4-1.9,0.4
		c-1.1,0-2-0.2-2.6-0.7C-20.1,16-20.5,15.3-20.6,14.4z M-12.3,14.4l1.5-0.2c0.1,0.6,0.3,1,0.7,1.4c0.4,0.3,0.9,0.5,1.6,0.5
		c0.7,0,1.2-0.1,1.5-0.4c0.3-0.3,0.5-0.6,0.5-1c0-0.3-0.1-0.6-0.4-0.8c-0.2-0.1-0.7-0.3-1.5-0.5c-1.1-0.3-1.9-0.5-2.3-0.7
		c-0.4-0.2-0.7-0.5-1-0.8c-0.2-0.4-0.3-0.8-0.3-1.2c0-0.4,0.1-0.8,0.3-1.1c0.2-0.3,0.4-0.6,0.7-0.8c0.2-0.2,0.5-0.3,0.9-0.4
		C-9.7,8-9.3,8-8.8,8C-8.1,8-7.5,8.1-7,8.3c0.5,0.2,0.9,0.5,1.2,0.8c0.3,0.3,0.4,0.8,0.5,1.4l-1.5,0.2C-6.8,10.2-7,9.9-7.4,9.6
		c-0.3-0.3-0.8-0.4-1.4-0.4c-0.7,0-1.2,0.1-1.5,0.3c-0.3,0.2-0.4,0.5-0.4,0.8c0,0.2,0.1,0.4,0.2,0.5c0.1,0.2,0.3,0.3,0.6,0.4
		c0.2,0.1,0.6,0.2,1.3,0.4c1.1,0.3,1.8,0.5,2.2,0.7c0.4,0.2,0.7,0.4,1,0.8c0.2,0.3,0.4,0.8,0.4,1.3c0,0.5-0.1,1-0.4,1.4
		c-0.3,0.4-0.7,0.8-1.3,1c-0.5,0.2-1.2,0.4-1.9,0.4c-1.1,0-2-0.2-2.6-0.7C-11.8,16-12.2,15.3-12.3,14.4z M-4,13.3v-1.5h4.6v1.5H-4z
		 M2.2,17V8.2h1.3v1.3c0.3-0.6,0.7-1,0.9-1.2C4.7,8.1,5,8,5.4,8c0.5,0,1,0.2,1.5,0.5L6.4,9.9C6.1,9.6,5.7,9.5,5.3,9.5
		C5,9.5,4.7,9.6,4.4,9.8C4.2,10,4,10.3,3.9,10.6c-0.2,0.5-0.3,1.1-0.3,1.8V17H2.2z M13.7,14.2l1.5,0.2c-0.3,0.9-0.7,1.6-1.4,2.1
		c-0.7,0.5-1.5,0.8-2.5,0.8c-1.3,0-2.3-0.4-3.1-1.2c-0.8-0.8-1.1-1.9-1.1-3.3c0-1.5,0.4-2.6,1.1-3.5c0.8-0.8,1.7-1.2,3-1.2
		c1.2,0,2.2,0.4,2.9,1.2s1.1,1.9,1.1,3.4c0,0.1,0,0.2,0,0.4H8.8c0.1,1,0.3,1.7,0.8,2.2c0.5,0.5,1.1,0.8,1.8,0.8c0.6,0,1-0.1,1.4-0.4
		C13.2,15.3,13.5,14.8,13.7,14.2z M8.8,11.8h4.9c-0.1-0.7-0.2-1.3-0.6-1.7c-0.5-0.6-1.1-0.9-1.9-0.9c-0.7,0-1.3,0.2-1.7,0.7
		C9.2,10.4,8.9,11,8.8,11.8z M16.7,17.7l1.5,0.2c0.1,0.4,0.2,0.8,0.5,1c0.4,0.3,0.9,0.4,1.5,0.4c0.7,0,1.2-0.1,1.6-0.4
		c0.4-0.3,0.6-0.7,0.8-1.2c0.1-0.3,0.1-0.9,0.1-1.9C22,16.6,21.2,17,20.2,17c-1.2,0-2.1-0.4-2.8-1.3c-0.7-0.9-1-1.9-1-3.1
		c0-0.8,0.2-1.6,0.5-2.3c0.3-0.7,0.7-1.3,1.3-1.6c0.6-0.4,1.3-0.6,2-0.6c1,0,1.9,0.4,2.6,1.3V8.2h1.4v7.6c0,1.4-0.1,2.3-0.4,2.9
		c-0.3,0.6-0.7,1-1.3,1.4c-0.6,0.3-1.4,0.5-2.2,0.5c-1.1,0-1.9-0.2-2.5-0.7C17,19.4,16.7,18.7,16.7,17.7z M17.9,12.4
		c0,1.2,0.2,2,0.7,2.5c0.5,0.5,1,0.8,1.7,0.8c0.7,0,1.3-0.3,1.7-0.8c0.5-0.5,0.7-1.4,0.7-2.5c0-1.1-0.2-1.9-0.7-2.4
		c-0.5-0.5-1.1-0.8-1.7-0.8c-0.7,0-1.2,0.3-1.7,0.8C18.2,10.6,17.9,11.4,17.9,12.4z M26.2,6.5V4.8h1.5v1.7H26.2z M26.2,17V8.2h1.5
		V17H26.2z M29.4,12.6c0-1.6,0.5-2.8,1.4-3.6c0.8-0.7,1.7-1,2.8-1c1.2,0,2.2,0.4,3,1.2c0.8,0.8,1.2,1.9,1.2,3.3c0,1.1-0.2,2-0.5,2.7
		c-0.3,0.7-0.8,1.2-1.5,1.5c-0.6,0.4-1.4,0.5-2.1,0.5c-1.2,0-2.2-0.4-3-1.2C29.8,15.2,29.4,14.1,29.4,12.6z M30.9,12.6
		c0,1.1,0.2,2,0.7,2.5s1.1,0.8,1.9,0.8c0.7,0,1.4-0.3,1.8-0.8c0.5-0.6,0.7-1.4,0.7-2.6c0-1.1-0.2-1.9-0.7-2.5s-1.1-0.8-1.8-0.8
		c-0.8,0-1.4,0.3-1.9,0.8S30.9,11.5,30.9,12.6z M39.2,17V8.2h1.3v1.3c0.6-1,1.6-1.5,2.8-1.5c0.5,0,1,0.1,1.5,0.3
		c0.4,0.2,0.8,0.4,1,0.8c0.2,0.3,0.4,0.7,0.5,1.1c0.1,0.3,0.1,0.8,0.1,1.5V17h-1.5v-5.4c0-0.6-0.1-1.1-0.2-1.4
		c-0.1-0.3-0.3-0.5-0.6-0.7c-0.3-0.2-0.6-0.3-1-0.3c-0.6,0-1.2,0.2-1.6,0.6c-0.5,0.4-0.7,1.2-0.7,2.3V17H39.2z"/>
</g>
<g transform="translate(518,404)">
	<path class="st3" d="M10-4.3l1.6,0.4c-0.3,1.3-1,2.3-1.8,3c-0.9,0.7-1.9,1-3.2,1c-1.3,0-2.4-0.3-3.2-0.8C2.5-1.1,1.9-1.9,1.5-2.9
		C1.1-3.9,0.8-5,0.8-6.2c0-1.3,0.2-2.4,0.7-3.3c0.5-0.9,1.2-1.7,2.1-2.1c0.9-0.5,1.9-0.7,3-0.7c1.2,0,2.2,0.3,3.1,0.9
		c0.8,0.6,1.4,1.5,1.7,2.6L9.8-8.5C9.5-9.3,9.1-10,8.6-10.4C8-10.8,7.4-11,6.6-11c-0.9,0-1.7,0.2-2.4,0.7c-0.6,0.4-1.1,1-1.3,1.8
		C2.6-7.8,2.5-7,2.5-6.2c0,1,0.2,1.9,0.5,2.7c0.3,0.8,0.8,1.3,1.4,1.7C5-1.4,5.7-1.2,6.4-1.2c0.9,0,1.7-0.3,2.3-0.8
		C9.3-2.5,9.8-3.2,10-4.3z M13.1,0v-8.8h1.3v1.3c0.3-0.6,0.7-1,0.9-1.2C15.7-8.9,16-9,16.4-9c0.5,0,1,0.2,1.5,0.5l-0.5,1.4
		c-0.4-0.2-0.7-0.3-1.1-0.3c-0.3,0-0.6,0.1-0.9,0.3C15.2-7,15-6.7,14.9-6.4c-0.2,0.5-0.2,1.1-0.3,1.8V0H13.1z M18.1-4.4
		c0-1.6,0.5-2.8,1.4-3.6c0.8-0.7,1.7-1,2.8-1c1.2,0,2.2,0.4,3,1.2C26-7,26.4-5.9,26.4-4.5c0,1.1-0.2,2-0.5,2.7
		c-0.3,0.7-0.8,1.2-1.5,1.5C23.8,0,23,0.2,22.3,0.2c-1.2,0-2.2-0.4-3-1.2S18.1-2.9,18.1-4.4z M19.7-4.4c0,1.1,0.2,2,0.7,2.5
		S21.5-1,22.3-1c0.7,0,1.4-0.3,1.8-0.8c0.5-0.6,0.7-1.4,0.7-2.6c0-1.1-0.2-1.9-0.7-2.5c-0.5-0.6-1.1-0.8-1.8-0.8
		c-0.7,0-1.4,0.3-1.9,0.8S19.7-5.5,19.7-4.4z M27.4-2.6l1.5-0.2c0.1,0.6,0.3,1,0.7,1.4C29.9-1.2,30.4-1,31.1-1
		c0.7,0,1.2-0.1,1.5-0.4s0.5-0.6,0.5-1c0-0.3-0.1-0.6-0.4-0.8c-0.2-0.1-0.7-0.3-1.5-0.5c-1.1-0.3-1.9-0.5-2.3-0.7
		c-0.4-0.2-0.8-0.5-1-0.8c-0.2-0.4-0.3-0.8-0.3-1.2c0-0.4,0.1-0.8,0.3-1.1c0.2-0.3,0.4-0.6,0.7-0.8c0.2-0.2,0.5-0.3,0.9-0.4
		C30-9,30.4-9,30.9-9c0.7,0,1.3,0.1,1.8,0.3c0.5,0.2,0.9,0.5,1.2,0.8c0.3,0.3,0.4,0.8,0.5,1.4l-1.5,0.2c-0.1-0.4-0.3-0.8-0.6-1.1
		C32-7.7,31.5-7.8,31-7.8c-0.7,0-1.2,0.1-1.5,0.3c-0.3,0.2-0.4,0.5-0.4,0.8c0,0.2,0.1,0.4,0.2,0.5c0.1,0.2,0.3,0.3,0.6,0.4
		c0.2,0.1,0.6,0.2,1.3,0.4c1.1,0.3,1.8,0.5,2.2,0.7c0.4,0.2,0.7,0.4,1,0.8c0.2,0.3,0.4,0.8,0.4,1.3c0,0.5-0.1,1-0.4,1.4
		c-0.3,0.4-0.7,0.8-1.3,1c-0.5,0.2-1.2,0.4-1.9,0.4c-1.1,0-2-0.2-2.6-0.7C27.9-1,27.5-1.7,27.4-2.6z M35.7-2.6l1.5-0.2
		c0.1,0.6,0.3,1,0.7,1.4S38.8-1,39.4-1c0.7,0,1.2-0.1,1.5-0.4s0.5-0.6,0.5-1c0-0.3-0.1-0.6-0.4-0.8c-0.2-0.1-0.7-0.3-1.5-0.5
		c-1.1-0.3-1.9-0.5-2.3-0.7c-0.4-0.2-0.7-0.5-1-0.8C36-5.6,35.9-6,35.9-6.5c0-0.4,0.1-0.8,0.3-1.1c0.2-0.3,0.4-0.6,0.7-0.8
		c0.2-0.2,0.5-0.3,0.9-0.4C38.3-9,38.7-9,39.2-9c0.7,0,1.3,0.1,1.8,0.3c0.5,0.2,0.9,0.5,1.2,0.8c0.3,0.3,0.4,0.8,0.5,1.4l-1.5,0.2
		c-0.1-0.4-0.3-0.8-0.6-1.1c-0.3-0.3-0.8-0.4-1.4-0.4c-0.7,0-1.2,0.1-1.5,0.3c-0.3,0.2-0.4,0.5-0.4,0.8c0,0.2,0.1,0.4,0.2,0.5
		c0.1,0.2,0.3,0.3,0.6,0.4c0.2,0.1,0.6,0.2,1.3,0.4c1.1,0.3,1.8,0.5,2.2,0.7c0.4,0.2,0.7,0.4,1,0.8S43-3.1,43-2.6
		c0,0.5-0.1,1-0.4,1.4c-0.3,0.4-0.7,0.8-1.3,1c-0.5,0.2-1.2,0.4-1.9,0.4c-1.1,0-2-0.2-2.6-0.7C36.2-1,35.8-1.7,35.7-2.6z M44-3.7
		v-1.5h4.6v1.5H44z M50.2,0v-8.8h1.3v1.3c0.3-0.6,0.7-1,0.9-1.2C52.7-8.9,53-9,53.4-9c0.5,0,1,0.2,1.5,0.5l-0.5,1.4
		c-0.4-0.2-0.7-0.3-1.1-0.3c-0.3,0-0.6,0.1-0.9,0.3C52.2-7,52-6.7,51.9-6.4c-0.2,0.5-0.3,1.1-0.3,1.8V0H50.2z M61.7-2.8l1.5,0.2
		C63-1.7,62.6-1,61.9-0.5c-0.7,0.5-1.5,0.8-2.5,0.8c-1.3,0-2.3-0.4-3.1-1.2s-1.1-1.9-1.1-3.3c0-1.5,0.4-2.6,1.1-3.5
		c0.8-0.8,1.7-1.2,3-1.2c1.2,0,2.2,0.4,2.9,1.2s1.1,1.9,1.1,3.4c0,0.1,0,0.2,0,0.4h-6.6c0.1,1,0.3,1.7,0.8,2.2
		C58.1-1.3,58.7-1,59.4-1c0.6,0,1-0.1,1.4-0.4C61.2-1.7,61.5-2.2,61.7-2.8z M56.8-5.3h4.9c-0.1-0.7-0.2-1.3-0.6-1.7
		c-0.5-0.6-1.1-0.9-1.9-0.9c-0.7,0-1.3,0.2-1.7,0.7C57.2-6.6,56.9-6,56.8-5.3z M64.7,0.7L66.1,1c0.1,0.4,0.2,0.8,0.5,1
		c0.4,0.3,0.9,0.4,1.5,0.4c0.7,0,1.2-0.1,1.6-0.4s0.6-0.7,0.8-1.2c0.1-0.3,0.1-0.9,0.1-1.9C70-0.4,69.2,0,68.2,0
		c-1.2,0-2.1-0.4-2.8-1.3s-1-1.9-1-3.1c0-0.8,0.2-1.6,0.5-2.3c0.3-0.7,0.7-1.3,1.3-1.6c0.6-0.4,1.3-0.6,2-0.6c1,0,1.9,0.4,2.6,1.3
		v-1.1h1.4v7.6c0,1.4-0.1,2.3-0.4,2.9c-0.3,0.6-0.7,1-1.3,1.4c-0.6,0.3-1.4,0.5-2.2,0.5c-1.1,0-1.9-0.2-2.5-0.7
		C65,2.4,64.7,1.7,64.7,0.7z M65.9-4.6c0,1.2,0.2,2,0.7,2.5c0.5,0.5,1,0.8,1.7,0.8c0.7,0,1.3-0.3,1.7-0.8c0.5-0.5,0.7-1.4,0.7-2.5
		c0-1.1-0.2-1.9-0.7-2.4c-0.5-0.5-1.1-0.8-1.7-0.8c-0.7,0-1.2,0.3-1.7,0.8C66.2-6.4,65.9-5.6,65.9-4.6z M74.2-10.5v-1.7h1.5v1.7
		H74.2z M74.2,0v-8.8h1.5V0H74.2z M77.4-4.4c0-1.6,0.5-2.8,1.4-3.6c0.8-0.7,1.7-1,2.8-1c1.2,0,2.2,0.4,3,1.2
		c0.8,0.8,1.2,1.9,1.2,3.3c0,1.1-0.2,2-0.5,2.7c-0.3,0.7-0.8,1.2-1.5,1.5C83,0,82.3,0.2,81.5,0.2c-1.2,0-2.2-0.4-3-1.2
		C77.8-1.8,77.4-2.9,77.4-4.4z M78.9-4.4c0,1.1,0.2,2,0.7,2.5C80.1-1.3,80.8-1,81.5-1c0.7,0,1.4-0.3,1.8-0.8
		c0.5-0.6,0.7-1.4,0.7-2.6c0-1.1-0.2-1.9-0.7-2.5s-1.1-0.8-1.8-0.8c-0.8,0-1.4,0.3-1.9,0.8C79.2-6.4,78.9-5.5,78.9-4.4z M87.2,0
		v-8.8h1.3v1.3c0.6-1,1.6-1.5,2.8-1.5c0.5,0,1,0.1,1.5,0.3c0.4,0.2,0.8,0.4,1,0.7c0.2,0.3,0.4,0.7,0.5,1.1c0.1,0.3,0.1,0.8,0.1,1.5
		V0h-1.5v-5.4c0-0.6-0.1-1.1-0.2-1.4c-0.1-0.3-0.3-0.5-0.6-0.7c-0.3-0.2-0.6-0.3-1-0.3c-0.6,0-1.2,0.2-1.6,0.6s-0.7,1.2-0.7,2.3V0
		H87.2z"/>
</g>
<g transform="translate(518,426)">
	<path class="st3" d="M19.2-2.6l1.5-0.2c0.1,0.6,0.3,1,0.7,1.4S22.3-1,23-1c0.7,0,1.2-0.1,1.5-0.4c0.3-0.3,0.5-0.6,0.5-1
		c0-0.3-0.1-0.6-0.4-0.8c-0.2-0.1-0.7-0.3-1.5-0.5c-1.1-0.3-1.9-0.5-2.3-0.7c-0.4-0.2-0.7-0.5-1-0.8c-0.2-0.4-0.3-0.8-0.3-1.2
		c0-0.4,0.1-0.8,0.3-1.1c0.2-0.3,0.4-0.6,0.7-0.8c0.2-0.2,0.5-0.3,0.9-0.4C21.8-9,22.3-9,22.7-9c0.7,0,1.3,0.1,1.8,0.3
		c0.5,0.2,0.9,0.5,1.2,0.8c0.3,0.3,0.4,0.8,0.5,1.4l-1.5,0.2c-0.1-0.4-0.3-0.8-0.6-1.1c-0.3-0.3-0.8-0.4-1.4-0.4
		c-0.7,0-1.2,0.1-1.5,0.3c-0.3,0.2-0.4,0.5-0.4,0.8c0,0.2,0.1,0.4,0.2,0.5c0.1,0.2,0.3,0.3,0.6,0.4c0.2,0.1,0.6,0.2,1.3,0.4
		c1.1,0.3,1.8,0.5,2.2,0.7c0.4,0.2,0.7,0.4,1,0.8c0.2,0.3,0.4,0.8,0.4,1.3c0,0.5-0.1,1-0.4,1.4c-0.3,0.4-0.7,0.8-1.3,1
		c-0.5,0.2-1.2,0.4-1.9,0.4c-1.1,0-2-0.2-2.6-0.7C19.8-1,19.4-1.7,19.2-2.6z M28.2,0v-12.2h1.5v4.4C30.3-8.6,31.2-9,32.3-9
		c0.7,0,1.2,0.1,1.7,0.4c0.5,0.3,0.8,0.6,1,1.1c0.2,0.5,0.3,1.1,0.3,2V0h-1.5v-5.6c0-0.7-0.2-1.3-0.5-1.6C33-7.6,32.6-7.7,32-7.7
		c-0.4,0-0.9,0.1-1.3,0.3c-0.4,0.2-0.7,0.5-0.8,0.9c-0.2,0.4-0.3,0.9-0.3,1.6V0H28.2z M43.2,0v-1.3c-0.7,1-1.6,1.5-2.8,1.5
		c-0.5,0-1-0.1-1.4-0.3c-0.5-0.2-0.8-0.5-1-0.8c-0.2-0.3-0.4-0.7-0.5-1.1c-0.1-0.3-0.1-0.8-0.1-1.4v-5.5h1.5v4.9
		c0,0.8,0,1.3,0.1,1.6c0.1,0.4,0.3,0.7,0.6,0.9c0.3,0.2,0.7,0.3,1.1,0.3s0.9-0.1,1.3-0.3c0.4-0.2,0.7-0.5,0.8-0.9s0.2-1,0.2-1.7
		v-4.7h1.5V0H43.2z M47,0v-7.7h-1.3v-1.2H47v-0.9c0-0.6,0.1-1,0.2-1.3c0.1-0.4,0.4-0.7,0.8-0.9c0.4-0.2,0.9-0.4,1.5-0.4
		c0.4,0,0.9,0,1.4,0.1l-0.2,1.3C50.3-11,50-11,49.8-11c-0.4,0-0.8,0.1-1,0.3c-0.2,0.2-0.3,0.6-0.3,1.1v0.8h1.7v1.2h-1.7V0H47z
		 M51.7,0v-7.7h-1.3v-1.2h1.3v-0.9c0-0.6,0.1-1,0.2-1.3c0.1-0.4,0.4-0.7,0.8-0.9c0.4-0.2,0.9-0.4,1.5-0.4c0.4,0,0.9,0,1.4,0.1
		l-0.2,1.3C55-11,54.7-11,54.4-11c-0.4,0-0.8,0.1-1,0.3c-0.2,0.2-0.3,0.6-0.3,1.1v0.8h1.7v1.2h-1.7V0H51.7z M55.9,0v-12.2h1.5V0
		H55.9z M65.7-2.8l1.5,0.2C67-1.7,66.5-1,65.9-0.5c-0.7,0.5-1.5,0.8-2.5,0.8C62,0.2,61-0.2,60.3-1c-0.8-0.8-1.1-1.9-1.1-3.3
		c0-1.5,0.4-2.6,1.1-3.5C61-8.6,62-9,63.2-9c1.2,0,2.2,0.4,2.9,1.2c0.7,0.8,1.1,1.9,1.1,3.4c0,0.1,0,0.2,0,0.4h-6.6
		c0.1,1,0.3,1.7,0.8,2.2C62-1.3,62.6-1,63.3-1c0.6,0,1-0.1,1.4-0.4C65.1-1.7,65.4-2.2,65.7-2.8z M60.8-5.3h4.9
		c-0.1-0.7-0.3-1.3-0.6-1.7c-0.5-0.6-1.1-0.9-1.9-0.9c-0.7,0-1.2,0.2-1.7,0.7C61.1-6.6,60.8-6,60.8-5.3z M74.6,0v-1.1
		c-0.6,0.9-1.4,1.3-2.5,1.3c-0.7,0-1.3-0.2-1.9-0.6c-0.6-0.4-1.1-0.9-1.4-1.6c-0.3-0.7-0.5-1.5-0.5-2.4c0-0.9,0.1-1.7,0.4-2.4
		s0.7-1.3,1.3-1.6c0.6-0.4,1.2-0.6,2-0.6c0.5,0,1,0.1,1.4,0.3c0.4,0.2,0.7,0.5,1,0.9v-4.4H76V0H74.6z M69.9-4.4c0,1.1,0.2,2,0.7,2.5
		c0.5,0.6,1,0.8,1.7,0.8c0.7,0,1.2-0.3,1.7-0.8c0.5-0.5,0.7-1.3,0.7-2.5c0-1.2-0.2-2.1-0.7-2.6c-0.5-0.6-1-0.9-1.7-0.9
		c-0.7,0-1.2,0.3-1.7,0.8C70.1-6.4,69.9-5.6,69.9-4.4z"/>
</g>
<g>
	<line class="st2" x1="89" y1="380" x2="89" y2="32"/>
	<line class="st2" x1="89" y1="380" x2="94.3" y2="380"/>
	<line class="st2" x1="89" y1="322" x2="94.3" y2="322"/>
	<line class="st2" x1="89" y1="264" x2="94.3" y2="264"/>
	<line class="st2" x1="89" y1="206" x2="94.3" y2="206"/>
	<line class="st2" x1="89" y1="148" x2="94.3" y2="148"/>
	<line class="st2" x1="89" y1="80.1" x2="94.3" y2="80.1"/>
</g>
<g transform="translate(82.3333,380)">
	<path class="st3" d="M-9.3,0.5c0-1.4,0.1-2.6,0.4-3.5c0.3-0.9,0.7-1.6,1.3-2c0.6-0.5,1.3-0.7,2.2-0.7c0.7,0,1.2,0.1,1.7,0.4
		c0.5,0.3,0.9,0.6,1.2,1.1s0.6,1.1,0.8,1.8s0.3,1.7,0.3,2.9c0,1.4-0.1,2.6-0.4,3.5s-0.7,1.6-1.3,2c-0.6,0.5-1.3,0.7-2.2,0.7
		c-1.2,0-2.1-0.4-2.8-1.3C-8.9,4.4-9.3,2.8-9.3,0.5z M-7.8,0.5c0,2,0.2,3.3,0.7,4s1,1,1.7,1c0.7,0,1.3-0.3,1.7-1
		c0.5-0.7,0.7-2,0.7-4c0-2-0.2-3.3-0.7-4c-0.5-0.7-1.1-1-1.8-1C-6-4.5-6.6-4.2-7-3.6C-7.5-2.9-7.8-1.5-7.8,0.5z"/>
</g>
<g transform="translate(82.3333,322)">
	<path class="st3" d="M-23.3,0.5c0-1.4,0.1-2.6,0.4-3.5c0.3-0.9,0.7-1.6,1.3-2c0.6-0.5,1.3-0.7,2.2-0.7c0.7,0,1.2,0.1,1.7,0.4
		c0.5,0.3,0.9,0.6,1.2,1.1s0.6,1.1,0.8,1.8c0.2,0.7,0.3,1.7,0.3,2.9c0,1.4-0.1,2.6-0.4,3.5c-0.3,0.9-0.7,1.6-1.3,2
		c-0.6,0.5-1.3,0.7-2.2,0.7c-1.2,0-2.1-0.4-2.8-1.3C-22.9,4.4-23.3,2.8-23.3,0.5z M-21.8,0.5c0,2,0.2,3.3,0.7,4c0.5,0.7,1,1,1.7,1
		c0.7,0,1.3-0.3,1.7-1c0.5-0.7,0.7-2,0.7-4c0-2-0.2-3.3-0.7-4c-0.5-0.7-1.1-1-1.8-1c-0.7,0-1.2,0.3-1.6,0.9
		C-21.5-2.9-21.8-1.5-21.8,0.5z M-13.2,6.5V4.8h1.7v1.7H-13.2z M-9.4,3.3l1.6-0.1C-7.7,3.9-7.4,4.5-7,4.9c0.4,0.4,0.9,0.6,1.5,0.6
		c0.7,0,1.3-0.3,1.8-0.8s0.8-1.3,0.8-2.2c0-0.8-0.2-1.5-0.7-2C-4.1,0-4.7-0.3-5.5-0.3c-0.5,0-0.9,0.1-1.3,0.3
		c-0.4,0.2-0.7,0.5-0.9,0.9l-1.4-0.2L-8-5.5h6v1.4h-4.9l-0.7,3.3c0.7-0.5,1.5-0.8,2.3-0.8c1.1,0,2,0.4,2.7,1.1
		c0.7,0.7,1.1,1.7,1.1,2.8c0,1.1-0.3,2.1-1,2.9c-0.8,1-1.8,1.5-3.2,1.5c-1.1,0-2-0.3-2.7-0.9C-8.9,5.2-9.3,4.3-9.4,3.3z"/>
</g>
<g transform="translate(82.3333,264)">
	<path class="st3" d="M-3.7,6.5h-1.5V-3C-5.5-2.7-6-2.3-6.6-2s-1.1,0.6-1.6,0.8v-1.5C-7.3-3.1-6.6-3.5-6-4.1
		c0.6-0.6,1.1-1.1,1.3-1.6h1V6.5z"/>
</g>
<g transform="translate(82.3333,206)">
	<path class="st3" d="M-17.7,6.5h-1.5V-3c-0.4,0.3-0.8,0.7-1.4,1c-0.6,0.3-1.1,0.6-1.6,0.8v-1.5c0.8-0.4,1.6-0.9,2.2-1.4
		c0.6-0.6,1.1-1.1,1.3-1.6h1V6.5z M-13.2,6.5V4.8h1.7v1.7H-13.2z M-9.4,3.3l1.6-0.1C-7.7,3.9-7.4,4.5-7,4.9c0.4,0.4,0.9,0.6,1.5,0.6
		c0.7,0,1.3-0.3,1.8-0.8s0.8-1.3,0.8-2.2c0-0.8-0.2-1.5-0.7-2C-4.1,0-4.7-0.3-5.5-0.3c-0.5,0-0.9,0.1-1.3,0.3
		c-0.4,0.2-0.7,0.5-0.9,0.9l-1.4-0.2L-8-5.5h6v1.4h-4.9l-0.7,3.3c0.7-0.5,1.5-0.8,2.3-0.8c1.1,0,2,0.4,2.7,1.1
		c0.7,0.7,1.1,1.7,1.1,2.8c0,1.1-0.3,2.1-1,2.9c-0.8,1-1.8,1.5-3.2,1.5c-1.1,0-2-0.3-2.7-0.9C-8.9,5.2-9.3,4.3-9.4,3.3z"/>
</g>
<g transform="translate(82.3333,148)">
	<path class="st3" d="M-1.4,5.1v1.4h-8c0-0.4,0-0.7,0.2-1c0.2-0.6,0.5-1.1,1-1.6c0.4-0.5,1.1-1.1,2-1.8c1.3-1.1,2.2-1.9,2.7-2.6
		S-3-1.8-3-2.4C-3-3-3.2-3.5-3.6-3.9c-0.4-0.4-1-0.6-1.6-0.6C-6-4.5-6.6-4.3-7-3.8c-0.4,0.4-0.7,1-0.7,1.8l-1.5-0.2
		c0.1-1.1,0.5-2,1.2-2.6c0.7-0.6,1.6-0.9,2.8-0.9c1.2,0,2.1,0.3,2.8,1c0.7,0.6,1,1.4,1,2.4c0,0.5-0.1,1-0.3,1.4
		c-0.2,0.5-0.5,1-1,1.5C-3.2,1.1-4,1.8-5,2.7C-5.9,3.5-6.5,4-6.8,4.3C-7,4.5-7.2,4.8-7.4,5.1H-1.4z"/>
</g>
<g transform="translate(82.3333,80.1443)">
	<path class="st3" d="M-30.9,6.5v-8.8h1.3v1.2c0.3-0.4,0.7-0.8,1.1-1s1-0.4,1.6-0.4c0.7,0,1.2,0.1,1.6,0.4c0.4,0.3,0.7,0.7,0.9,1.1
		c0.7-1,1.6-1.5,2.7-1.5c0.9,0,1.5,0.2,2,0.7c0.5,0.5,0.7,1.2,0.7,2.2v6h-1.5V1c0-0.6,0-1-0.1-1.3c-0.1-0.3-0.3-0.5-0.5-0.6
		c-0.3-0.2-0.6-0.2-0.9-0.2c-0.6,0-1.1,0.2-1.5,0.6c-0.4,0.4-0.6,1.1-0.6,2v5.1h-1.5V0.8c0-0.7-0.1-1.2-0.4-1.5
		c-0.2-0.3-0.6-0.5-1.2-0.5c-0.4,0-0.8,0.1-1.2,0.3c-0.4,0.2-0.6,0.5-0.8,1c-0.2,0.4-0.2,1-0.2,1.8v4.6H-30.9z M-11.3,5.4
		c-0.6,0.5-1.1,0.8-1.6,1c-0.5,0.2-1.1,0.3-1.6,0.3c-1,0-1.7-0.2-2.2-0.7c-0.5-0.5-0.8-1.1-0.8-1.8c0-0.4,0.1-0.8,0.3-1.2
		c0.2-0.4,0.5-0.6,0.8-0.9c0.3-0.2,0.7-0.4,1.1-0.5c0.3-0.1,0.7-0.1,1.3-0.2c1.2-0.1,2.1-0.3,2.7-0.5c0-0.2,0-0.3,0-0.4
		c0-0.6-0.1-1-0.4-1.3c-0.4-0.3-0.9-0.5-1.7-0.5c-0.7,0-1.2,0.1-1.5,0.4c-0.3,0.2-0.6,0.7-0.8,1.3l-1.5-0.2c0.1-0.6,0.4-1.1,0.7-1.5
		c0.3-0.4,0.7-0.7,1.3-0.9c0.6-0.2,1.2-0.3,2-0.3c0.8,0,1.4,0.1,1.8,0.3c0.5,0.2,0.8,0.4,1,0.7c0.2,0.3,0.4,0.6,0.5,1
		c0.1,0.3,0.1,0.7,0.1,1.4v2c0,1.4,0,2.3,0.1,2.6c0.1,0.4,0.2,0.7,0.4,1.1H-11C-11.1,6.2-11.2,5.8-11.3,5.4z M-11.4,2.1
		c-0.5,0.2-1.4,0.4-2.4,0.6c-0.6,0.1-1,0.2-1.3,0.3c-0.3,0.1-0.5,0.3-0.6,0.5c-0.1,0.2-0.2,0.5-0.2,0.7c0,0.4,0.2,0.7,0.5,1
		c0.3,0.3,0.7,0.4,1.3,0.4c0.6,0,1.1-0.1,1.5-0.4c0.4-0.3,0.8-0.6,1-1c0.2-0.3,0.2-0.8,0.2-1.5V2.1z M-8.7,6.5l3.2-4.6l-3-4.2h1.9
		l1.4,2.1c0.3,0.4,0.5,0.7,0.6,1C-4.4,0.4-4.2,0-4-0.2l1.5-2.1h1.8l-3,4.1l3.3,4.7h-1.8l-1.8-2.7L-4.6,3l-2.3,3.5H-8.7z"/>
</g>
<g transform="translate(45.3333,205.9998) rotate(-90)">
	<path class="st3" d="M-97.2-5v-12.9h2.6l3,9.1c0.3,0.9,0.5,1.5,0.6,1.9c0.1-0.5,0.4-1.2,0.7-2.1l3.1-9h2.3V-5h-1.6v-10.8L-90.3-5
		h-1.5l-3.7-11v11H-97.2z M-75.9-5v-1.4c-0.7,1.1-1.7,1.6-3,1.6c-0.6,0-1.1-0.1-1.5-0.3c-0.5-0.2-0.8-0.5-1.1-0.8
		c-0.2-0.3-0.4-0.7-0.5-1.2c-0.1-0.3-0.1-0.8-0.1-1.5v-5.8h1.6v5.2c0,0.8,0,1.4,0.1,1.7c0.1,0.4,0.3,0.7,0.6,1
		c0.3,0.2,0.7,0.4,1.2,0.4c0.5,0,0.9-0.1,1.3-0.4c0.4-0.2,0.7-0.6,0.9-1c0.2-0.4,0.3-1,0.3-1.8v-5h1.6V-5H-75.9z M-68.4-6.4l0.2,1.4
		c-0.4,0.1-0.8,0.1-1.2,0.1c-0.6,0-1-0.1-1.3-0.3c-0.3-0.2-0.5-0.4-0.7-0.7c-0.1-0.3-0.2-0.9-0.2-1.9v-5.4h-1.2v-1.2h1.2v-2.3l1.6-1
		v3.3h1.6v1.2H-70v5.5c0,0.4,0,0.7,0.1,0.9c0.1,0.1,0.1,0.2,0.3,0.3c0.1,0.1,0.3,0.1,0.5,0.1C-68.9-6.4-68.7-6.4-68.4-6.4z M-60.7-5
		v-1.4c-0.7,1.1-1.7,1.6-3,1.6c-0.6,0-1.1-0.1-1.5-0.3c-0.5-0.2-0.8-0.5-1.1-0.8c-0.2-0.3-0.4-0.7-0.5-1.2c-0.1-0.3-0.1-0.8-0.1-1.5
		v-5.8h1.6v5.2c0,0.8,0,1.4,0.1,1.7c0.1,0.4,0.3,0.7,0.6,1c0.3,0.2,0.7,0.4,1.2,0.4c0.5,0,0.9-0.1,1.3-0.4c0.4-0.2,0.7-0.6,0.9-1
		c0.2-0.4,0.3-1,0.3-1.8v-5h1.6V-5H-60.7z M-50.5-6.2c-0.6,0.5-1.1,0.9-1.7,1.1c-0.5,0.2-1.1,0.3-1.7,0.3c-1,0-1.8-0.3-2.4-0.8
		c-0.5-0.5-0.8-1.1-0.8-1.9c0-0.4,0.1-0.9,0.3-1.2c0.2-0.4,0.5-0.7,0.8-0.9s0.7-0.4,1.1-0.5c0.3-0.1,0.8-0.2,1.4-0.2
		c1.3-0.2,2.2-0.3,2.8-0.5c0-0.2,0-0.4,0-0.4c0-0.6-0.2-1.1-0.5-1.4c-0.4-0.4-1-0.5-1.8-0.5c-0.8,0-1.3,0.1-1.7,0.4
		c-0.4,0.3-0.6,0.7-0.8,1.4l-1.5-0.2c0.1-0.7,0.4-1.2,0.7-1.6c0.3-0.4,0.8-0.7,1.4-0.9c0.6-0.2,1.3-0.3,2.1-0.3
		c0.8,0,1.4,0.1,1.9,0.3c0.5,0.2,0.9,0.4,1.1,0.7c0.2,0.3,0.4,0.6,0.5,1.1c0.1,0.3,0.1,0.8,0.1,1.5v2.1c0,1.5,0,2.4,0.1,2.8
		c0.1,0.4,0.2,0.8,0.4,1.1h-1.7C-50.4-5.3-50.5-5.7-50.5-6.2z M-50.6-9.7c-0.6,0.2-1.4,0.4-2.6,0.6c-0.6,0.1-1.1,0.2-1.4,0.3
		c-0.3,0.1-0.5,0.3-0.6,0.5c-0.1,0.2-0.2,0.5-0.2,0.8c0,0.4,0.2,0.8,0.5,1c0.3,0.3,0.8,0.4,1.4,0.4s1.2-0.1,1.6-0.4
		c0.5-0.3,0.8-0.6,1-1.1c0.2-0.4,0.3-0.9,0.3-1.6V-9.7z M-46.4-5v-12.9h1.6V-5H-46.4z M-37.2-16.1v-1.8h1.6v1.8H-37.2z M-37.2-5
		v-9.3h1.6V-5H-37.2z M-33.2-5v-9.3h1.4v1.3c0.7-1,1.7-1.5,3-1.5c0.6,0,1.1,0.1,1.6,0.3c0.5,0.2,0.8,0.5,1.1,0.8
		c0.2,0.3,0.4,0.7,0.5,1.2c0.1,0.3,0.1,0.8,0.1,1.5V-5h-1.6v-5.7c0-0.6-0.1-1.1-0.2-1.5c-0.1-0.3-0.3-0.6-0.7-0.8
		c-0.3-0.2-0.7-0.3-1.1-0.3c-0.7,0-1.3,0.2-1.8,0.6c-0.5,0.4-0.7,1.2-0.7,2.4V-5H-33.2z M-22.6-5v-8.1H-24v-1.2h1.4v-1
		c0-0.6,0.1-1.1,0.2-1.4c0.1-0.4,0.4-0.8,0.8-1c0.4-0.3,0.9-0.4,1.6-0.4c0.4,0,0.9,0.1,1.5,0.2l-0.2,1.4c-0.3-0.1-0.6-0.1-0.9-0.1
		c-0.5,0-0.8,0.1-1,0.3c-0.2,0.2-0.3,0.6-0.3,1.1v0.9h1.8v1.2h-1.8V-5H-22.6z M-18.5-9.7c0-1.7,0.5-3,1.5-3.8c0.8-0.7,1.8-1,2.9-1
		c1.3,0,2.3,0.4,3.2,1.3c0.8,0.8,1.2,2,1.2,3.5c0,1.2-0.2,2.1-0.5,2.8c-0.4,0.7-0.9,1.2-1.6,1.6c-0.7,0.4-1.4,0.6-2.3,0.6
		c-1.3,0-2.4-0.4-3.2-1.3C-18.1-6.9-18.5-8.1-18.5-9.7z M-16.9-9.7c0,1.2,0.3,2.1,0.8,2.7c0.5,0.6,1.2,0.9,2,0.9
		c0.8,0,1.4-0.3,2-0.9c0.5-0.6,0.8-1.5,0.8-2.7c0-1.2-0.3-2-0.8-2.6c-0.5-0.6-1.2-0.9-2-0.9c-0.8,0-1.4,0.3-2,0.9
		C-16.6-11.8-16.9-10.9-16.9-9.7z M-7.8-5v-9.3h1.4v1.4c0.4-0.7,0.7-1.1,1-1.3c0.3-0.2,0.6-0.3,1-0.3c0.5,0,1.1,0.2,1.6,0.5
		l-0.5,1.5c-0.4-0.2-0.8-0.3-1.2-0.3c-0.3,0-0.7,0.1-0.9,0.3c-0.3,0.2-0.5,0.5-0.6,0.9c-0.2,0.6-0.3,1.2-0.3,1.8V-5H-7.8z M-1.6-5
		v-9.3h1.4v1.3c0.3-0.4,0.7-0.8,1.2-1.1s1-0.4,1.7-0.4c0.7,0,1.3,0.1,1.7,0.4c0.4,0.3,0.8,0.7,0.9,1.2C6-14,6.9-14.5,8.1-14.5
		c0.9,0,1.6,0.3,2.1,0.8c0.5,0.5,0.7,1.3,0.7,2.4V-5H9.4v-5.9c0-0.6-0.1-1.1-0.2-1.4c-0.1-0.3-0.3-0.5-0.6-0.7
		c-0.3-0.2-0.6-0.3-1-0.3c-0.7,0-1.2,0.2-1.6,0.7c-0.4,0.4-0.6,1.1-0.6,2.1V-5H3.9v-6.1c0-0.7-0.1-1.2-0.4-1.6
		c-0.3-0.3-0.7-0.5-1.3-0.5c-0.4,0-0.9,0.1-1.2,0.4c-0.4,0.2-0.6,0.6-0.8,1c-0.2,0.4-0.3,1.1-0.3,2V-5H-1.6z M19.7-6.2
		c-0.6,0.5-1.1,0.9-1.7,1.1c-0.5,0.2-1.1,0.3-1.7,0.3c-1,0-1.8-0.3-2.4-0.8c-0.5-0.5-0.8-1.1-0.8-1.9c0-0.4,0.1-0.9,0.3-1.2
		c0.2-0.4,0.5-0.7,0.8-0.9c0.3-0.2,0.7-0.4,1.1-0.5c0.3-0.1,0.8-0.2,1.4-0.2c1.3-0.2,2.2-0.3,2.8-0.5c0-0.2,0-0.4,0-0.4
		c0-0.6-0.2-1.1-0.5-1.4c-0.4-0.4-1-0.5-1.8-0.5c-0.8,0-1.3,0.1-1.7,0.4c-0.4,0.3-0.6,0.7-0.8,1.4l-1.5-0.2c0.1-0.7,0.4-1.2,0.7-1.6
		c0.3-0.4,0.8-0.7,1.4-0.9c0.6-0.2,1.3-0.3,2.1-0.3c0.8,0,1.4,0.1,1.9,0.3c0.5,0.2,0.9,0.4,1.1,0.7c0.2,0.3,0.4,0.6,0.5,1.1
		c0.1,0.3,0.1,0.8,0.1,1.5v2.1c0,1.5,0,2.4,0.1,2.8c0.1,0.4,0.2,0.8,0.4,1.1H20C19.9-5.3,19.8-5.7,19.7-6.2z M19.6-9.7
		C19-9.4,18.1-9.3,17-9.1c-0.6,0.1-1.1,0.2-1.4,0.3c-0.3,0.1-0.5,0.3-0.6,0.5c-0.1,0.2-0.2,0.5-0.2,0.8c0,0.4,0.2,0.8,0.5,1
		C15.6-6.2,16-6,16.6-6c0.6,0,1.2-0.1,1.6-0.4c0.5-0.3,0.8-0.6,1-1.1c0.2-0.4,0.3-0.9,0.3-1.6V-9.7z M27.3-6.4L27.5-5
		c-0.4,0.1-0.8,0.1-1.2,0.1c-0.6,0-1-0.1-1.3-0.3c-0.3-0.2-0.5-0.4-0.7-0.7c-0.1-0.3-0.2-0.9-0.2-1.9v-5.4h-1.2v-1.2h1.2v-2.3l1.6-1
		v3.3h1.6v1.2h-1.6v5.5c0,0.4,0,0.7,0.1,0.9c0.1,0.1,0.1,0.2,0.3,0.3c0.1,0.1,0.3,0.1,0.5,0.1C26.7-6.4,27-6.4,27.3-6.4z M28.9-16.1
		v-1.8h1.6v1.8H28.9z M28.9-5v-9.3h1.6V-5H28.9z M32.4-9.7c0-1.7,0.5-3,1.5-3.8c0.8-0.7,1.8-1,2.9-1c1.3,0,2.3,0.4,3.2,1.3
		c0.8,0.8,1.2,2,1.2,3.5c0,1.2-0.2,2.1-0.5,2.8c-0.4,0.7-0.9,1.2-1.6,1.6c-0.7,0.4-1.4,0.6-2.3,0.6c-1.3,0-2.4-0.4-3.2-1.3
		C32.8-6.9,32.4-8.1,32.4-9.7z M34-9.7c0,1.2,0.3,2.1,0.8,2.7c0.5,0.6,1.2,0.9,2,0.9s1.4-0.3,2-0.9c0.5-0.6,0.8-1.5,0.8-2.7
		c0-1.2-0.3-2-0.8-2.6c-0.5-0.6-1.2-0.9-2-0.9c-0.8,0-1.4,0.3-2,0.9C34.3-11.8,34-10.9,34-9.7z M43.1-5v-9.3h1.4v1.3
		c0.7-1,1.7-1.5,3-1.5c0.6,0,1.1,0.1,1.6,0.3c0.5,0.2,0.8,0.5,1.1,0.8c0.2,0.3,0.4,0.7,0.5,1.2c0.1,0.3,0.1,0.8,0.1,1.5V-5h-1.6
		v-5.7c0-0.6-0.1-1.1-0.2-1.5c-0.1-0.3-0.3-0.6-0.7-0.8c-0.3-0.2-0.7-0.3-1.1-0.3c-0.7,0-1.3,0.2-1.8,0.6c-0.5,0.4-0.7,1.2-0.7,2.4
		V-5H43.1z M61.4-1.2c-0.9-1.1-1.6-2.4-2.2-3.9c-0.6-1.5-0.9-3-0.9-4.6c0-1.4,0.2-2.7,0.7-4c0.5-1.5,1.3-3,2.4-4.4h1.1
		c-0.7,1.2-1.2,2.1-1.4,2.6c-0.4,0.8-0.6,1.7-0.8,2.5c-0.3,1.1-0.4,2.2-0.4,3.3c0,2.8,0.9,5.6,2.6,8.4H61.4z M66-5h-1.5v-12.9h1.6
		v4.6c0.7-0.8,1.5-1.3,2.5-1.3c0.6,0,1.1,0.1,1.6,0.4c0.5,0.2,0.9,0.6,1.3,1c0.3,0.4,0.6,0.9,0.8,1.5c0.2,0.6,0.3,1.2,0.3,1.9
		c0,1.6-0.4,2.8-1.2,3.7c-0.8,0.9-1.7,1.3-2.9,1.3c-1.1,0-2-0.5-2.6-1.4V-5z M66-9.7c0,1.1,0.2,1.9,0.5,2.4c0.5,0.8,1.2,1.2,2,1.2
		c0.7,0,1.3-0.3,1.8-0.9S71-8.5,71-9.7c0-1.2-0.2-2.1-0.7-2.7c-0.5-0.6-1.1-0.9-1.8-0.9c-0.7,0-1.3,0.3-1.8,0.9
		C66.2-11.7,66-10.9,66-9.7z M74.7-16.1v-1.8h1.6v1.8H74.7z M74.7-5v-9.3h1.6V-5H74.7z M82.2-6.4L82.5-5c-0.4,0.1-0.8,0.1-1.2,0.1
		c-0.6,0-1-0.1-1.3-0.3c-0.3-0.2-0.5-0.4-0.7-0.7c-0.1-0.3-0.2-0.9-0.2-1.9v-5.4h-1.2v-1.2h1.2v-2.3l1.6-1v3.3h1.6v1.2h-1.6v5.5
		c0,0.4,0,0.7,0.1,0.9c0.1,0.1,0.1,0.2,0.3,0.3c0.1,0.1,0.3,0.1,0.5,0.1C81.7-6.4,81.9-6.4,82.2-6.4z M83.2-7.8L84.8-8
		c0.1,0.6,0.3,1.1,0.7,1.4c0.4,0.3,1,0.5,1.7,0.5c0.7,0,1.3-0.1,1.6-0.4c0.4-0.3,0.5-0.6,0.5-1c0-0.4-0.2-0.6-0.5-0.8
		c-0.2-0.1-0.8-0.3-1.6-0.5c-1.2-0.3-2-0.5-2.4-0.8c-0.4-0.2-0.8-0.5-1-0.9c-0.2-0.4-0.4-0.8-0.4-1.3c0-0.4,0.1-0.8,0.3-1.2
		c0.2-0.4,0.5-0.6,0.8-0.9c0.3-0.2,0.6-0.3,1-0.5c0.4-0.1,0.9-0.2,1.4-0.2c0.7,0,1.4,0.1,1.9,0.3c0.6,0.2,1,0.5,1.2,0.9
		c0.3,0.4,0.4,0.8,0.5,1.4l-1.5,0.2c-0.1-0.5-0.3-0.9-0.6-1.1c-0.3-0.3-0.8-0.4-1.4-0.4c-0.7,0-1.3,0.1-1.6,0.4
		C85.2-12.7,85-12.4,85-12c0,0.2,0.1,0.4,0.2,0.6c0.1,0.2,0.3,0.3,0.6,0.4c0.2,0.1,0.6,0.2,1.4,0.4c1.1,0.3,1.9,0.5,2.3,0.7
		c0.4,0.2,0.8,0.5,1,0.8C90.9-8.7,91-8.3,91-7.8c0,0.5-0.2,1-0.5,1.5c-0.3,0.5-0.8,0.8-1.3,1.1c-0.6,0.3-1.2,0.4-2,0.4
		c-1.2,0-2.1-0.3-2.8-0.8C83.8-6,83.4-6.8,83.2-7.8z M94-1.2h-1.1c1.8-2.8,2.6-5.6,2.6-8.4c0-1.1-0.1-2.2-0.4-3.3
		c-0.2-0.9-0.5-1.7-0.8-2.5c-0.2-0.5-0.7-1.4-1.4-2.6H94c1.1,1.5,1.9,2.9,2.5,4.4c0.4,1.3,0.7,2.6,0.7,4c0,1.6-0.3,3.1-0.9,4.6
		C95.7-3.6,94.9-2.3,94-1.2z"/>
</g>
<g transform="translate(354.0003,29.25)">
	<path d="M-217.2-5v-12.9h3.9l2.3,8.8l2.3-8.8h3.9V-5h-2.4v-10.1L-209.8-5h-2.5l-2.5-10.1V-5H-217.2z M-195.8-5v-1.4
		c-0.3,0.5-0.8,0.9-1.3,1.2c-0.6,0.3-1.1,0.4-1.8,0.4c-0.6,0-1.2-0.1-1.7-0.4s-0.9-0.7-1.1-1.2c-0.2-0.5-0.3-1.2-0.3-2.1v-5.9h2.5
		v4.3c0,1.3,0,2.1,0.1,2.4c0.1,0.3,0.3,0.5,0.5,0.7c0.2,0.2,0.5,0.3,0.9,0.3c0.4,0,0.8-0.1,1.1-0.3c0.3-0.2,0.6-0.5,0.7-0.9
		c0.1-0.3,0.2-1.2,0.2-2.5v-3.9h2.5V-5H-195.8z M-186.5-14.3v2h-1.7v3.8c0,0.8,0,1.2,0,1.3c0,0.1,0.1,0.2,0.2,0.3
		c0.1,0.1,0.3,0.1,0.4,0.1c0.2,0,0.5-0.1,1-0.2l0.2,1.9c-0.6,0.3-1.2,0.4-2,0.4c-0.4,0-0.9-0.1-1.2-0.2c-0.4-0.2-0.6-0.3-0.8-0.6
		c-0.2-0.2-0.3-0.6-0.3-1c-0.1-0.3-0.1-0.9-0.1-1.7v-4.1h-1.1v-2h1.1v-1.9l2.5-1.4v3.3H-186.5z M-178.5-5v-1.4
		c-0.3,0.5-0.8,0.9-1.3,1.2c-0.6,0.3-1.1,0.4-1.8,0.4c-0.6,0-1.2-0.1-1.7-0.4s-0.9-0.7-1.1-1.2c-0.2-0.5-0.3-1.2-0.3-2.1v-5.9h2.5
		v4.3c0,1.3,0,2.1,0.1,2.4c0.1,0.3,0.3,0.5,0.5,0.7c0.2,0.2,0.5,0.3,0.9,0.3c0.4,0,0.8-0.1,1.1-0.3c0.3-0.2,0.6-0.5,0.7-0.9
		c0.1-0.3,0.2-1.2,0.2-2.5v-3.9h2.5V-5H-178.5z M-171.6-11.5l-2.3-0.4c0.3-0.9,0.7-1.6,1.3-2c0.6-0.4,1.5-0.6,2.7-0.6
		c1.1,0,1.9,0.1,2.5,0.4c0.5,0.3,0.9,0.6,1.1,1c0.2,0.4,0.3,1.1,0.3,2.2l0,2.9c0,0.8,0,1.4,0.1,1.8c0.1,0.4,0.2,0.8,0.4,1.3h-2.4
		c-0.1-0.2-0.2-0.4-0.3-0.7c0-0.1-0.1-0.2-0.1-0.3c-0.4,0.4-0.9,0.7-1.4,0.9c-0.5,0.2-1,0.3-1.5,0.3c-1,0-1.7-0.3-2.3-0.8
		s-0.8-1.2-0.8-2c0-0.5,0.1-1,0.4-1.4c0.3-0.4,0.6-0.7,1.1-0.9c0.5-0.2,1.1-0.4,2-0.6c1.2-0.2,2-0.4,2.4-0.6v-0.3
		c0-0.5-0.1-0.8-0.4-1c-0.2-0.2-0.7-0.3-1.3-0.3c-0.4,0-0.8,0.1-1,0.3C-171.3-12.2-171.5-11.9-171.6-11.5z M-168.3-9.5
		c-0.3,0.1-0.8,0.2-1.5,0.4c-0.7,0.1-1.1,0.3-1.3,0.4c-0.3,0.2-0.5,0.5-0.5,0.9c0,0.3,0.1,0.6,0.4,0.9c0.3,0.3,0.6,0.4,1,0.4
		c0.4,0,0.9-0.1,1.3-0.4c0.3-0.2,0.5-0.5,0.6-0.8c0.1-0.2,0.1-0.6,0.1-1.2V-9.5z M-163.3-5v-12.9h2.5V-5H-163.3z M-153.1-15.6v-2.3
		h2.5v2.3H-153.1z M-153.1-5v-9.3h2.5V-5H-153.1z M-139.5-5h-2.5v-4.8c0-1-0.1-1.7-0.2-2c-0.1-0.3-0.3-0.5-0.5-0.7
		c-0.2-0.2-0.5-0.3-0.9-0.3c-0.4,0-0.8,0.1-1.1,0.4c-0.3,0.2-0.6,0.5-0.7,0.9s-0.2,1.1-0.2,2.1V-5h-2.5v-9.3h2.3v1.4
		c0.8-1.1,1.8-1.6,3.1-1.6c0.6,0,1.1,0.1,1.5,0.3c0.4,0.2,0.8,0.4,1,0.8c0.2,0.3,0.4,0.6,0.5,1c0.1,0.4,0.1,0.9,0.1,1.7V-5z
		 M-137.9-14.3h1.4V-15c0-0.8,0.1-1.4,0.3-1.8c0.2-0.4,0.5-0.7,0.9-0.9c0.4-0.2,1-0.4,1.7-0.4c0.7,0,1.4,0.1,2.1,0.3l-0.3,1.7
		c-0.4-0.1-0.8-0.1-1.1-0.1c-0.4,0-0.6,0.1-0.8,0.3c-0.2,0.2-0.2,0.5-0.2,1v0.7h1.8v1.9h-1.8V-5h-2.5v-7.4h-1.4V-14.3z M-131.3-9.8
		c0-0.8,0.2-1.6,0.6-2.4c0.4-0.8,1-1.4,1.7-1.8c0.7-0.4,1.6-0.6,2.5-0.6c1.4,0,2.6,0.5,3.5,1.4c0.9,0.9,1.4,2.1,1.4,3.5
		s-0.5,2.6-1.4,3.5c-0.9,0.9-2.1,1.4-3.4,1.4c-0.9,0-1.7-0.2-2.4-0.6c-0.8-0.4-1.4-1-1.8-1.7C-131.1-7.8-131.3-8.7-131.3-9.8z
		 M-128.8-9.7c0,0.9,0.2,1.6,0.7,2.1c0.4,0.5,1,0.7,1.6,0.7c0.6,0,1.2-0.2,1.6-0.7c0.4-0.5,0.7-1.2,0.7-2.1c0-0.9-0.2-1.6-0.7-2.1
		c-0.4-0.5-1-0.7-1.6-0.7c-0.6,0-1.2,0.2-1.6,0.7C-128.6-11.3-128.8-10.6-128.8-9.7z M-117.2-5h-2.5v-9.3h2.3v1.3
		c0.4-0.6,0.7-1.1,1.1-1.3c0.3-0.2,0.7-0.3,1.1-0.3c0.6,0,1.1,0.2,1.6,0.5l-0.8,2.2c-0.4-0.3-0.8-0.4-1.2-0.4
		c-0.3,0-0.6,0.1-0.9,0.3c-0.2,0.2-0.4,0.5-0.6,1c-0.1,0.5-0.2,1.5-0.2,3.1V-5z M-112.6-14.3h2.3v1.3c0.8-1,1.8-1.5,2.9-1.5
		c0.6,0,1.1,0.1,1.6,0.4c0.4,0.2,0.8,0.6,1.1,1.1c0.4-0.5,0.8-0.9,1.3-1.1c0.5-0.2,1-0.4,1.5-0.4c0.7,0,1.3,0.1,1.7,0.4
		c0.5,0.3,0.8,0.7,1.1,1.2c0.2,0.4,0.3,1.1,0.3,1.9v6h-2.5v-5.3c0-0.9-0.1-1.5-0.3-1.8c-0.2-0.4-0.6-0.5-1-0.5c-0.4,0-0.7,0.1-1,0.3
		c-0.3,0.2-0.5,0.5-0.7,0.9c-0.1,0.4-0.2,1-0.2,1.9V-5h-2.5v-5.1c0-0.9,0-1.5-0.1-1.8c-0.1-0.3-0.2-0.5-0.4-0.6
		c-0.2-0.1-0.4-0.2-0.8-0.2c-0.4,0-0.7,0.1-1,0.3c-0.3,0.2-0.5,0.5-0.7,0.9c-0.1,0.4-0.2,1-0.2,1.9V-5h-2.5V-14.3z M-94.3-11.5
		l-2.3-0.4c0.3-0.9,0.7-1.6,1.3-2c0.6-0.4,1.5-0.6,2.7-0.6c1.1,0,1.9,0.1,2.5,0.4c0.5,0.3,0.9,0.6,1.1,1c0.2,0.4,0.3,1.1,0.3,2.2
		l0,2.9c0,0.8,0,1.4,0.1,1.8c0.1,0.4,0.2,0.8,0.4,1.3h-2.4c-0.1-0.2-0.2-0.4-0.3-0.7c0-0.1-0.1-0.2-0.1-0.3
		c-0.4,0.4-0.9,0.7-1.4,0.9c-0.5,0.2-1,0.3-1.5,0.3c-1,0-1.7-0.3-2.3-0.8s-0.8-1.2-0.8-2c0-0.5,0.1-1,0.4-1.4
		c0.3-0.4,0.6-0.7,1.1-0.9c0.5-0.2,1.1-0.4,2-0.6c1.2-0.2,2-0.4,2.4-0.6v-0.3c0-0.5-0.1-0.8-0.4-1c-0.2-0.2-0.7-0.3-1.3-0.3
		c-0.4,0-0.8,0.1-1,0.3C-94-12.2-94.2-11.9-94.3-11.5z M-91-9.5c-0.3,0.1-0.8,0.2-1.5,0.4c-0.7,0.1-1.1,0.3-1.3,0.4
		c-0.3,0.2-0.5,0.5-0.5,0.9c0,0.3,0.1,0.6,0.4,0.9c0.3,0.3,0.6,0.4,1,0.4c0.4,0,0.9-0.1,1.3-0.4c0.3-0.2,0.5-0.5,0.6-0.8
		C-91-8-91-8.4-91-9V-9.5z M-81.7-14.3v2h-1.7v3.8c0,0.8,0,1.2,0,1.3c0,0.1,0.1,0.2,0.2,0.3c0.1,0.1,0.3,0.1,0.4,0.1
		c0.2,0,0.5-0.1,1-0.2l0.2,1.9c-0.6,0.3-1.2,0.4-2,0.4c-0.4,0-0.9-0.1-1.2-0.2c-0.4-0.2-0.6-0.3-0.8-0.6c-0.2-0.2-0.3-0.6-0.3-1
		c-0.1-0.3-0.1-0.9-0.1-1.7v-4.1H-87v-2h1.1v-1.9l2.5-1.4v3.3H-81.7z M-79.9-15.6v-2.3h2.5v2.3H-79.9z M-79.9-5v-9.3h2.5V-5H-79.9z
		 M-75.4-9.8c0-0.8,0.2-1.6,0.6-2.4c0.4-0.8,1-1.4,1.7-1.8s1.6-0.6,2.5-0.6c1.4,0,2.6,0.5,3.5,1.4c0.9,0.9,1.4,2.1,1.4,3.5
		s-0.5,2.6-1.4,3.5c-0.9,0.9-2.1,1.4-3.4,1.4c-0.9,0-1.7-0.2-2.4-0.6c-0.8-0.4-1.4-1-1.8-1.7C-75.2-7.8-75.4-8.7-75.4-9.8z
		 M-72.8-9.7c0,0.9,0.2,1.6,0.7,2.1c0.4,0.5,1,0.7,1.6,0.7c0.6,0,1.2-0.2,1.6-0.7c0.4-0.5,0.7-1.2,0.7-2.1c0-0.9-0.2-1.6-0.7-2.1
		c-0.4-0.5-1-0.7-1.6-0.7c-0.6,0-1.2,0.2-1.6,0.7C-72.6-11.3-72.8-10.6-72.8-9.7z M-55.1-5h-2.5v-4.8c0-1-0.1-1.7-0.2-2
		c-0.1-0.3-0.3-0.5-0.5-0.7c-0.2-0.2-0.5-0.3-0.9-0.3c-0.4,0-0.8,0.1-1.1,0.4c-0.3,0.2-0.6,0.5-0.7,0.9s-0.2,1.1-0.2,2.1V-5h-2.5
		v-9.3h2.3v1.4c0.8-1.1,1.8-1.6,3.1-1.6c0.6,0,1.1,0.1,1.5,0.3c0.4,0.2,0.8,0.4,1,0.8c0.2,0.3,0.4,0.6,0.5,1
		c0.1,0.4,0.1,0.9,0.1,1.7V-5z M-47.4-5v-12.9h2.5v4.6c0.8-0.9,1.7-1.3,2.7-1.3c1.1,0,2.1,0.4,2.8,1.2c0.7,0.8,1.1,2,1.1,3.5
		c0,1.6-0.4,2.8-1.1,3.7s-1.7,1.3-2.8,1.3c-0.5,0-1.1-0.1-1.6-0.4c-0.5-0.3-1-0.7-1.3-1.2V-5H-47.4z M-45-9.9c0,1,0.2,1.7,0.5,2.2
		c0.4,0.7,1,1,1.7,1c0.6,0,1-0.2,1.4-0.7c0.4-0.5,0.6-1.2,0.6-2.2c0-1.1-0.2-1.8-0.6-2.3c-0.4-0.5-0.9-0.7-1.5-0.7
		c-0.6,0-1.1,0.2-1.5,0.7C-44.8-11.5-45-10.8-45-9.9z M-37.3-14.3h2.6l2.2,6.6l2.2-6.6h2.6l-3.3,9l-0.6,1.6c-0.2,0.5-0.4,1-0.6,1.2
		c-0.2,0.3-0.4,0.5-0.7,0.7c-0.3,0.2-0.6,0.3-0.9,0.4c-0.4,0.1-0.8,0.1-1.3,0.1c-0.5,0-0.9,0-1.4-0.1l-0.2-1.9
		c0.4,0.1,0.7,0.1,1,0.1c0.6,0,1-0.2,1.3-0.5c0.3-0.3,0.5-0.8,0.6-1.3L-37.3-14.3z M-20.9-14.3h2.3v1.4c0.3-0.5,0.7-0.8,1.2-1.1
		c0.5-0.3,1.1-0.4,1.7-0.4c1.1,0,2,0.4,2.8,1.3c0.8,0.8,1.1,2,1.1,3.6c0,1.6-0.4,2.8-1.1,3.6c-0.8,0.9-1.7,1.3-2.8,1.3
		c-0.5,0-1-0.1-1.4-0.3c-0.4-0.2-0.9-0.6-1.3-1.1v4.7h-2.5V-14.3z M-18.5-9.8c0,1.1,0.2,1.8,0.6,2.3c0.4,0.5,0.9,0.8,1.5,0.8
		c0.6,0,1-0.2,1.4-0.7c0.4-0.5,0.6-1.2,0.6-2.3c0-1-0.2-1.7-0.6-2.2c-0.4-0.5-0.9-0.7-1.5-0.7c-0.6,0-1.1,0.2-1.5,0.7
		C-18.3-11.4-18.5-10.7-18.5-9.8z M-7.8-11.5l-2.2-0.4c0.3-0.9,0.7-1.6,1.3-2c0.6-0.4,1.5-0.6,2.7-0.6c1.1,0,1.9,0.1,2.5,0.4
		c0.5,0.3,0.9,0.6,1.1,1c0.2,0.4,0.3,1.1,0.3,2.2l0,2.9c0,0.8,0,1.4,0.1,1.8C-1.9-5.9-1.8-5.4-1.6-5H-4c-0.1-0.2-0.2-0.4-0.3-0.7
		C-4.3-5.9-4.3-6-4.3-6c-0.4,0.4-0.9,0.7-1.4,0.9c-0.5,0.2-1,0.3-1.5,0.3c-1,0-1.7-0.3-2.3-0.8s-0.8-1.2-0.8-2c0-0.5,0.1-1,0.4-1.4
		c0.3-0.4,0.6-0.7,1.1-0.9c0.5-0.2,1.1-0.4,2-0.6c1.2-0.2,2-0.4,2.4-0.6v-0.3c0-0.5-0.1-0.8-0.4-1c-0.2-0.2-0.7-0.3-1.3-0.3
		c-0.4,0-0.8,0.1-1,0.3C-7.5-12.2-7.7-11.9-7.8-11.5z M-4.5-9.5C-4.8-9.4-5.3-9.3-6-9.1C-6.7-9-7.2-8.8-7.4-8.7
		c-0.3,0.2-0.5,0.5-0.5,0.9c0,0.3,0.1,0.6,0.4,0.9c0.3,0.3,0.6,0.4,1,0.4C-6-6.5-5.6-6.7-5.2-7c0.3-0.2,0.5-0.5,0.6-0.8
		C-4.6-8-4.5-8.4-4.5-9V-9.5z M0.5-15.6v-2.3H3v2.3H0.5z M0.5-5v-9.3H3V-5H0.5z M8-5H5.5v-9.3h2.3v1.3c0.4-0.6,0.7-1.1,1.1-1.3
		c0.3-0.2,0.7-0.3,1.1-0.3c0.6,0,1.1,0.2,1.6,0.5l-0.8,2.2c-0.4-0.3-0.8-0.4-1.2-0.4c-0.3,0-0.6,0.1-0.9,0.3c-0.2,0.2-0.4,0.5-0.6,1
		C8-10.5,8-9.5,8-7.9V-5z M22.1-14.3v2h-1.7v3.8c0,0.8,0,1.2,0,1.3c0,0.1,0.1,0.2,0.2,0.3c0.1,0.1,0.3,0.1,0.4,0.1
		c0.2,0,0.5-0.1,1-0.2l0.2,1.9c-0.6,0.3-1.2,0.4-2,0.4c-0.4,0-0.9-0.1-1.2-0.2c-0.4-0.2-0.6-0.3-0.8-0.6c-0.2-0.2-0.3-0.6-0.3-1
		c-0.1-0.3-0.1-0.9-0.1-1.7v-4.1h-1.1v-2h1.1v-1.9l2.5-1.4v3.3H22.1z M22.7-14.3h2.6l2.2,6.6l2.2-6.6h2.6l-3.3,9l-0.6,1.6
		c-0.2,0.5-0.4,1-0.6,1.2c-0.2,0.3-0.4,0.5-0.7,0.7c-0.3,0.2-0.6,0.3-0.9,0.4c-0.4,0.1-0.8,0.1-1.3,0.1c-0.5,0-0.9,0-1.4-0.1
		l-0.2-1.9c0.4,0.1,0.7,0.1,1,0.1c0.6,0,1-0.2,1.3-0.5C25.9-4,26.1-4.4,26.3-5L22.7-14.3z M34-14.3h2.3v1.4c0.3-0.5,0.7-0.8,1.2-1.1
		c0.5-0.3,1.1-0.4,1.7-0.4c1.1,0,2,0.4,2.8,1.3c0.8,0.8,1.1,2,1.1,3.6c0,1.6-0.4,2.8-1.1,3.6c-0.8,0.9-1.7,1.3-2.8,1.3
		c-0.5,0-1-0.1-1.4-0.3c-0.4-0.2-0.9-0.6-1.3-1.1v4.7H34V-14.3z M36.5-9.8c0,1.1,0.2,1.8,0.6,2.3s0.9,0.8,1.5,0.8
		c0.6,0,1-0.2,1.4-0.7s0.6-1.2,0.6-2.3c0-1-0.2-1.7-0.6-2.2c-0.4-0.5-0.9-0.7-1.5-0.7c-0.6,0-1.1,0.2-1.5,0.7
		C36.7-11.4,36.5-10.7,36.5-9.8z M50.7-8l2.5,0.4c-0.3,0.9-0.8,1.6-1.5,2.1C51-5,50.1-4.8,49.1-4.8c-1.6,0-2.8-0.5-3.6-1.6
		c-0.6-0.9-0.9-1.9-0.9-3.2c0-1.6,0.4-2.8,1.2-3.6c0.8-0.9,1.8-1.3,3.1-1.3c1.4,0,2.5,0.5,3.3,1.4c0.8,0.9,1.2,2.3,1.2,4.2h-6.2
		c0,0.7,0.2,1.3,0.6,1.7c0.4,0.4,0.9,0.6,1.4,0.6c0.4,0,0.7-0.1,1-0.3C50.3-7.2,50.5-7.5,50.7-8z M50.8-10.5c0-0.7-0.2-1.3-0.6-1.6
		c-0.4-0.4-0.8-0.6-1.3-0.6c-0.5,0-1,0.2-1.3,0.6c-0.4,0.4-0.5,0.9-0.5,1.6H50.8z M62.4-11.5l-2.3-0.4c0.3-0.9,0.7-1.6,1.3-2
		c0.6-0.4,1.5-0.6,2.7-0.6c1.1,0,1.9,0.1,2.5,0.4c0.5,0.3,0.9,0.6,1.1,1c0.2,0.4,0.3,1.1,0.3,2.2l0,2.9c0,0.8,0,1.4,0.1,1.8
		c0.1,0.4,0.2,0.8,0.4,1.3h-2.4c-0.1-0.2-0.2-0.4-0.3-0.7c0-0.1-0.1-0.2-0.1-0.3c-0.4,0.4-0.9,0.7-1.4,0.9c-0.5,0.2-1,0.3-1.5,0.3
		c-1,0-1.7-0.3-2.3-0.8c-0.6-0.5-0.8-1.2-0.8-2c0-0.5,0.1-1,0.4-1.4c0.3-0.4,0.6-0.7,1.1-0.9c0.5-0.2,1.1-0.4,2-0.6
		c1.2-0.2,2-0.4,2.4-0.6v-0.3c0-0.5-0.1-0.8-0.4-1c-0.2-0.2-0.7-0.3-1.3-0.3c-0.4,0-0.8,0.1-1,0.3C62.7-12.2,62.5-11.9,62.4-11.5z
		 M65.7-9.5c-0.3,0.1-0.8,0.2-1.5,0.4c-0.7,0.1-1.1,0.3-1.3,0.4c-0.3,0.2-0.5,0.5-0.5,0.9c0,0.3,0.1,0.6,0.4,0.9s0.6,0.4,1,0.4
		c0.4,0,0.9-0.1,1.3-0.4c0.3-0.2,0.5-0.5,0.6-0.8C65.7-8,65.7-8.4,65.7-9V-9.5z M78.9-11.6l-2.4,0.4c-0.1-0.5-0.3-0.8-0.6-1.1
		c-0.3-0.3-0.7-0.4-1.1-0.4c-0.6,0-1.1,0.2-1.5,0.6c-0.4,0.4-0.6,1.1-0.6,2.1c0,1.1,0.2,1.9,0.6,2.3s0.9,0.7,1.5,0.7
		c0.5,0,0.9-0.1,1.1-0.4c0.3-0.3,0.5-0.7,0.6-1.4L79-8.2c-0.3,1.1-0.7,2-1.4,2.5c-0.7,0.6-1.7,0.9-2.9,0.9c-1.4,0-2.5-0.4-3.3-1.3
		c-0.8-0.9-1.2-2.1-1.2-3.6c0-1.5,0.4-2.7,1.2-3.6c0.8-0.9,1.9-1.3,3.3-1.3c1.1,0,2,0.2,2.7,0.7S78.6-12.6,78.9-11.6z M83.3-5h-2.5
		v-9.3h2.3v1.3c0.4-0.6,0.7-1.1,1.1-1.3c0.3-0.2,0.7-0.3,1.1-0.3c0.6,0,1.1,0.2,1.6,0.5l-0.8,2.2c-0.4-0.3-0.8-0.4-1.2-0.4
		c-0.3,0-0.6,0.1-0.9,0.3c-0.2,0.2-0.4,0.5-0.6,1c-0.1,0.5-0.2,1.5-0.2,3.1V-5z M87.5-9.8c0-0.8,0.2-1.6,0.6-2.4
		c0.4-0.8,1-1.4,1.7-1.8c0.7-0.4,1.6-0.6,2.5-0.6c1.4,0,2.6,0.5,3.5,1.4c0.9,0.9,1.4,2.1,1.4,3.5s-0.5,2.6-1.4,3.5
		c-0.9,0.9-2.1,1.4-3.4,1.4c-0.9,0-1.7-0.2-2.4-0.6c-0.8-0.4-1.4-1-1.8-1.7S87.5-8.7,87.5-9.8z M90-9.7c0,0.9,0.2,1.6,0.7,2.1
		c0.4,0.5,1,0.7,1.6,0.7c0.6,0,1.2-0.2,1.6-0.7c0.4-0.5,0.7-1.2,0.7-2.1c0-0.9-0.2-1.6-0.7-2.1c-0.4-0.5-1-0.7-1.6-0.7
		c-0.6,0-1.2,0.2-1.6,0.7C90.2-11.3,90-10.6,90-9.7z M98.4-7.7l2.5-0.4c0.1,0.5,0.3,0.8,0.6,1.1c0.3,0.3,0.8,0.4,1.3,0.4
		c0.6,0,1.1-0.1,1.5-0.3c0.2-0.2,0.3-0.4,0.3-0.7c0-0.2-0.1-0.3-0.2-0.5c-0.1-0.1-0.4-0.2-0.8-0.3c-2-0.4-3.2-0.8-3.8-1.2
		c-0.7-0.5-1.1-1.2-1.1-2.1c0-0.8,0.3-1.5,1-2c0.6-0.6,1.6-0.8,3-0.8c1.3,0,2.2,0.2,2.9,0.6c0.6,0.4,1,1,1.3,1.8l-2.3,0.4
		c-0.1-0.4-0.3-0.6-0.6-0.8c-0.3-0.2-0.7-0.3-1.2-0.3c-0.6,0-1.1,0.1-1.4,0.3c-0.2,0.1-0.3,0.3-0.3,0.5c0,0.2,0.1,0.3,0.3,0.5
		c0.2,0.2,1,0.4,2.3,0.7c1.3,0.3,2.2,0.7,2.8,1.1c0.5,0.4,0.8,1,0.8,1.8c0,0.9-0.4,1.6-1.1,2.2s-1.8,0.9-3.2,0.9
		c-1.3,0-2.3-0.3-3-0.8C99.1-6.1,98.6-6.8,98.4-7.7z M108.5-7.7L111-8c0.1,0.5,0.3,0.8,0.6,1.1s0.8,0.4,1.3,0.4
		c0.6,0,1.1-0.1,1.5-0.3c0.2-0.2,0.3-0.4,0.3-0.7c0-0.2-0.1-0.3-0.2-0.5c-0.1-0.1-0.4-0.2-0.8-0.3c-2-0.4-3.3-0.8-3.8-1.2
		c-0.7-0.5-1.1-1.2-1.1-2.1c0-0.8,0.3-1.5,1-2c0.6-0.6,1.6-0.8,3-0.8c1.3,0,2.2,0.2,2.9,0.6c0.6,0.4,1,1,1.3,1.8l-2.3,0.4
		c-0.1-0.4-0.3-0.6-0.6-0.8c-0.3-0.2-0.7-0.3-1.2-0.3c-0.6,0-1.1,0.1-1.4,0.3c-0.2,0.1-0.3,0.3-0.3,0.5c0,0.2,0.1,0.3,0.3,0.5
		c0.2,0.2,1,0.4,2.3,0.7c1.3,0.3,2.2,0.7,2.8,1.1c0.5,0.4,0.8,1,0.8,1.8c0,0.9-0.4,1.6-1.1,2.2s-1.8,0.9-3.2,0.9
		c-1.3,0-2.3-0.3-3-0.8C109.3-6.1,108.8-6.8,108.5-7.7z M127-5h-2.5v-9.3h2.3v1.3c0.4-0.6,0.7-1.1,1.1-1.3c0.3-0.2,0.7-0.3,1.1-0.3
		c0.6,0,1.1,0.2,1.6,0.5l-0.8,2.2c-0.4-0.3-0.8-0.4-1.2-0.4c-0.3,0-0.6,0.1-0.9,0.3c-0.2,0.2-0.4,0.5-0.6,1
		c-0.1,0.5-0.2,1.5-0.2,3.1V-5z M137.2-8l2.5,0.4c-0.3,0.9-0.8,1.6-1.5,2.1c-0.7,0.5-1.5,0.7-2.6,0.7c-1.6,0-2.8-0.5-3.6-1.6
		c-0.6-0.9-0.9-1.9-0.9-3.2c0-1.6,0.4-2.8,1.2-3.6c0.8-0.9,1.8-1.3,3.1-1.3c1.4,0,2.5,0.5,3.3,1.4c0.8,0.9,1.2,2.3,1.2,4.2h-6.2
		c0,0.7,0.2,1.3,0.6,1.7c0.4,0.4,0.9,0.6,1.4,0.6c0.4,0,0.7-0.1,1-0.3C136.9-7.2,137.1-7.5,137.2-8z M137.4-10.5
		c0-0.7-0.2-1.3-0.6-1.6c-0.4-0.4-0.8-0.6-1.3-0.6c-0.5,0-1,0.2-1.3,0.6c-0.4,0.4-0.5,0.9-0.5,1.6H137.4z M150.1-11.6l-2.4,0.4
		c-0.1-0.5-0.3-0.8-0.6-1.1c-0.3-0.3-0.7-0.4-1.1-0.4c-0.6,0-1.1,0.2-1.5,0.6c-0.4,0.4-0.6,1.1-0.6,2.1c0,1.1,0.2,1.9,0.6,2.3
		s0.9,0.7,1.5,0.7c0.5,0,0.9-0.1,1.1-0.4c0.3-0.3,0.5-0.7,0.6-1.4l2.4,0.4c-0.3,1.1-0.7,2-1.4,2.5c-0.7,0.6-1.7,0.9-2.9,0.9
		c-1.4,0-2.5-0.4-3.3-1.3c-0.8-0.9-1.2-2.1-1.2-3.6c0-1.5,0.4-2.7,1.2-3.6c0.8-0.9,1.9-1.3,3.3-1.3c1.1,0,2,0.2,2.7,0.7
		C149.4-13.3,149.8-12.6,150.1-11.6z M151.6-9.8c0-0.8,0.2-1.6,0.6-2.4c0.4-0.8,1-1.4,1.7-1.8c0.7-0.4,1.6-0.6,2.5-0.6
		c1.4,0,2.6,0.5,3.5,1.4c0.9,0.9,1.4,2.1,1.4,3.5s-0.5,2.6-1.4,3.5c-0.9,0.9-2.1,1.4-3.4,1.4c-0.9,0-1.7-0.2-2.4-0.6
		c-0.8-0.4-1.4-1-1.8-1.7C151.8-7.8,151.6-8.7,151.6-9.8z M154.1-9.7c0,0.9,0.2,1.6,0.7,2.1c0.4,0.5,1,0.7,1.6,0.7
		c0.6,0,1.2-0.2,1.6-0.7c0.4-0.5,0.7-1.2,0.7-2.1c0-0.9-0.2-1.6-0.7-2.1c-0.4-0.5-1-0.7-1.6-0.7c-0.6,0-1.2,0.2-1.6,0.7
		C154.4-11.3,154.1-10.6,154.1-9.7z M165.7-5h-2.5v-9.3h2.3v1.3c0.4-0.6,0.7-1.1,1.1-1.3c0.3-0.2,0.7-0.3,1.1-0.3
		c0.6,0,1.1,0.2,1.6,0.5l-0.8,2.2c-0.4-0.3-0.8-0.4-1.2-0.4c-0.3,0-0.6,0.1-0.9,0.3c-0.2,0.2-0.4,0.5-0.6,1
		c-0.1,0.5-0.2,1.5-0.2,3.1V-5z M179.1-5h-2.3v-1.4c-0.4,0.5-0.8,0.9-1.4,1.2c-0.5,0.3-1,0.4-1.6,0.4c-1.1,0-2-0.4-2.8-1.3
		c-0.8-0.9-1.1-2.1-1.1-3.6c0-1.6,0.4-2.8,1.1-3.6c0.7-0.8,1.7-1.2,2.8-1.2c1,0,1.9,0.4,2.7,1.3v-4.6h2.5V-5z M172.5-9.9
		c0,1,0.1,1.7,0.4,2.2c0.4,0.6,1,1,1.7,1c0.6,0,1.1-0.2,1.5-0.7c0.4-0.5,0.6-1.2,0.6-2.2c0-1.1-0.2-1.8-0.6-2.3
		c-0.4-0.5-0.9-0.7-1.5-0.7c-0.6,0-1.1,0.2-1.5,0.7C172.7-11.5,172.5-10.8,172.5-9.9z M181.7-15.6v-2.3h2.5v2.3H181.7z M181.7-5
		v-9.3h2.5V-5H181.7z M195.3-5h-2.5v-4.8c0-1-0.1-1.7-0.2-2c-0.1-0.3-0.3-0.5-0.5-0.7c-0.2-0.2-0.5-0.3-0.9-0.3
		c-0.4,0-0.8,0.1-1.1,0.4c-0.3,0.2-0.6,0.5-0.7,0.9s-0.2,1.1-0.2,2.1V-5h-2.5v-9.3h2.3v1.4c0.8-1.1,1.8-1.6,3.1-1.6
		c0.6,0,1.1,0.1,1.5,0.3c0.4,0.2,0.8,0.4,1,0.8c0.2,0.3,0.4,0.6,0.5,1c0.1,0.4,0.1,0.9,0.1,1.7V-5z M197.7-4.4l2.8,0.3
		c0,0.3,0.1,0.6,0.3,0.7c0.2,0.2,0.6,0.3,1.1,0.3c0.6,0,1.1-0.1,1.5-0.3c0.2-0.1,0.4-0.3,0.5-0.6c0.1-0.2,0.1-0.6,0.1-1.1v-1.4
		c-0.7,1-1.7,1.5-2.8,1.5c-1.3,0-2.2-0.5-3-1.6c-0.6-0.8-0.9-1.9-0.9-3.1c0-1.6,0.4-2.8,1.1-3.6c0.8-0.8,1.7-1.2,2.8-1.2
		c1.2,0,2.1,0.5,2.9,1.5v-1.3h2.3V-6c0,1.1-0.1,1.9-0.3,2.5c-0.2,0.5-0.4,1-0.8,1.3c-0.3,0.3-0.8,0.6-1.3,0.7
		c-0.5,0.2-1.2,0.3-2.1,0.3c-1.6,0-2.7-0.3-3.4-0.8c-0.7-0.5-1-1.2-1-2C197.7-4.2,197.7-4.3,197.7-4.4z M199.9-9.9
		c0,1,0.2,1.7,0.6,2.2c0.4,0.5,0.9,0.7,1.4,0.7c0.6,0,1.1-0.2,1.5-0.7c0.4-0.5,0.6-1.2,0.6-2.1c0-1-0.2-1.7-0.6-2.2
		c-0.4-0.5-0.9-0.7-1.5-0.7c-0.6,0-1.1,0.2-1.5,0.7C200.1-11.5,199.9-10.8,199.9-9.9z M208.3-7.7l2.5-0.4c0.1,0.5,0.3,0.8,0.6,1.1
		c0.3,0.3,0.8,0.4,1.3,0.4c0.6,0,1.1-0.1,1.5-0.3c0.2-0.2,0.3-0.4,0.3-0.7c0-0.2-0.1-0.3-0.2-0.5c-0.1-0.1-0.4-0.2-0.8-0.3
		c-2-0.4-3.3-0.8-3.8-1.2c-0.7-0.5-1.1-1.2-1.1-2.1c0-0.8,0.3-1.5,1-2c0.6-0.6,1.6-0.8,3-0.8c1.3,0,2.2,0.2,2.9,0.6
		c0.6,0.4,1,1,1.3,1.8l-2.3,0.4c-0.1-0.4-0.3-0.6-0.6-0.8c-0.3-0.2-0.7-0.3-1.2-0.3c-0.6,0-1.1,0.1-1.4,0.3
		c-0.2,0.1-0.3,0.3-0.3,0.5c0,0.2,0.1,0.3,0.3,0.5c0.2,0.2,1,0.4,2.3,0.7c1.3,0.3,2.2,0.7,2.8,1.1c0.5,0.4,0.8,1,0.8,1.8
		c0,0.9-0.4,1.6-1.1,2.2c-0.7,0.6-1.8,0.9-3.2,0.9c-1.3,0-2.3-0.3-3-0.8C209-6.1,208.5-6.8,208.3-7.7z"/>
</g>
<g transform="translate(114.3496,110.2789)">
	<circle class="st4" cx="0" cy="0" r="5"/>
	<circle class="st4" cx="19.2" cy="22.7" r="5"/>
	<circle class="st4" cx="13.2" cy="7.8" r="5"/>
	<circle class="st4" cx="39.4" cy="24.7" r="5"/>
	<circle class="st4" cx="16" cy="-12.7" r="5"/>
	<circle class="st4" cx="15.1" cy="28.7" r="5"/>
	<circle class="st4" cx="23.1" cy="19.1" r="5"/>
	<circle class="st4" cx="-3.8" cy="8.1" r="5"/>
	<circle class="st4" cx="27.1" cy="20.1" r="5"/>
	<circle class="st4" cx="44.2" cy="-17.5" r="5"/>
	<circle class="st4" cx="15.2" cy="-18.3" r="5"/>
	<circle class="st4" cx="14.7" cy="-4.1" r="5"/>
	<circle class="st4" cx="8.3" cy="-6.1" r="5"/>
</g>
<g>
	<path class="st4" d="M116.8,136.4l1.2,1.3l1.3,1.3h45.5l1.3-1.3l1.2-1.3l1.1-1.3l1-1.3l0.9-1.3l0.8-1.3l0.7-1.3l0.6-1.3l0.5-1.3
		l0.4-1.3l0.3-1.3l0.2-1.3l0.1-1.3l0.1-1.3l0-1.3l0-1.3l0-1.3l-0.1-1.3l-0.1-1.3l-0.1-1.3l-0.1-1.3l-0.2-1.3l-0.2-1.3l-0.3-1.3
		l-0.3-1.3l-0.4-1.3l-0.4-1.3l-0.5-1.3l-0.6-1.3l-0.6-1.3l-0.7-1.3l-0.8-1.3l-0.9-1.3l-1-1.3l-1.1-1.3l-1.1-1.3l-1.2-1.3h-42.3
		l-1.2,1.3l-1.1,1.3l-1.1,1.3l-1,1.3l-0.9,1.3l-0.8,1.3l-0.7,1.3l-0.6,1.3l-0.6,1.3l-0.5,1.3l-0.4,1.3l-0.4,1.3l-0.3,1.3l-0.3,1.3
		l-0.2,1.3l-0.2,1.3l-0.1,1.3l-0.1,1.3l-0.1,1.3l-0.1,1.3l0,1.3l0,1.3l0,1.3l0.1,1.3l0.1,1.3l0.2,1.3l0.3,1.3l0.4,1.3l0.5,1.3
		l0.6,1.3l0.7,1.3l0.8,1.3l0.9,1.3l1,1.3L116.8,136.4z"/>
</g>
<g>
	<path class="st5" d="M164.8,138.9l1.3-1.3l1.2-1.3l1.1-1.3l1-1.3l0.9-1.3l0.8-1.3l0.7-1.3l0.6-1.3l0.5-1.3l0.4-1.3l0.3-1.3l0.2-1.3
		l0.1-1.3l0.1-1.3l0-1.3l0-1.3l0-1.3l-0.1-1.3l-0.1-1.3l-0.1-1.3l-0.1-1.3l-0.2-1.3l-0.2-1.3l-0.3-1.3l-0.3-1.3l-0.4-1.3l-0.4-1.3
		l-0.5-1.3l-0.6-1.3l-0.6-1.3l-0.7-1.3l-0.8-1.3l-0.9-1.3l-1-1.3l-1.1-1.3l-1.1-1.3l-1.2-1.3h-42.3l-1.2,1.3l-1.1,1.3l-1.1,1.3
		l-1,1.3l-0.9,1.3l-0.8,1.3l-0.7,1.3l-0.6,1.3l-0.6,1.3l-0.5,1.3l-0.4,1.3l-0.4,1.3l-0.3,1.3l-0.3,1.3l-0.2,1.3l-0.2,1.3l-0.1,1.3
		l-0.1,1.3l-0.1,1.3l-0.1,1.3l0,1.3l0,1.3l0,1.3l0.1,1.3l0.1,1.3l0.2,1.3l0.3,1.3l0.4,1.3l0.5,1.3l0.6,1.3l0.7,1.3l0.8,1.3l0.9,1.3
		l1,1.3l1.1,1.3l1.2,1.3l1.3,1.3H164.8"/>
</g>
<g>
	<path class="st6" d="M140.9,131h2.1v-28.5h-2.1V131z"/>
</g>
<g>
	<path class="st5" d="M140.9,131h2.1v-28.5h-2.1V131"/>
	<line class="st7" x1="142" y1="138.9" x2="142" y2="92"/>
</g>
<g transform="translate(142,118.1061)">
	<circle class="st1" cx="0" cy="0" r="5"/>
</g>
<g transform="translate(142,118.1061)">
	<path class="st6" d="M0-4.6c2.5,0,4.6,2.1,4.6,4.6l0,0c0,2.5-2.1,4.6-4.6,4.6S-4.6,2.5-4.6,0S-2.5-4.6,0-4.6z M0-5.4
		C-3-5.4-5.4-3-5.4,0S-3,5.4,0,5.4S5.4,3,5.4,0l0,0C5.4-3,3-5.4,0-5.4z"/>
</g>
<g transform="translate(247.691,264.2285)">
	<circle class="st8" cx="0" cy="0" r="5"/>
	<circle class="st8" cx="-9.4" cy="28" r="5"/>
	<circle class="st8" cx="31.2" cy="18.9" r="5"/>
	<circle class="st8" cx="-13.8" cy="32.1" r="5"/>
	<circle class="st8" cx="-15.4" cy="18" r="5"/>
	<circle class="st8" cx="-1.6" cy="-2.6" r="5"/>
	<circle class="st8" cx="10.2" cy="20.1" r="5"/>
	<circle class="st8" cx="-25.4" cy="21.2" r="5"/>
	<circle class="st8" cx="-17.9" cy="17.4" r="5"/>
	<circle class="st8" cx="-18" cy="12.1" r="5"/>
	<circle class="st8" cx="26.1" cy="24.5" r="5"/>
	<circle class="st8" cx="6.2" cy="-9.8" r="5"/>
	<circle class="st8" cx="-0.9" cy="-28.7" r="5"/>
</g>
<g>
	<path class="st8" d="M224.1,291l1.9,1l1.9,1l1.9,1l1.9,1l1.8,1.4h28.8l1.8-1.4l1.9-1l1.9-1l1.9-1l1.9-1l1.9-1l1.7-1l1.5-1l1.3-1
		l0.9-1l0.5-1l0.1-1l-0.4-1l-0.9-1l-1.3-1l-1.7-1l-2-1l-2.2-1l-2.2-1l-2.2-1l-2.1-1l-1.9-1l-1.6-1l-1.3-1l-0.9-1l-0.6-1l-0.3-1l0-1
		l0.2-1l0.3-1l0.4-1l0.4-1l0.3-1l0.2-1l0.1-1l-0.1-1l-0.2-1l-0.4-1l-0.5-1l-0.6-1l-0.7-1l-0.8-1l-0.8-1l-0.8-1l-0.8-1l-0.8-1l-0.7-1
		l-0.6-1l-0.5-1l-0.4-1l-0.2-1l-0.1-1l0-1l0.1-1l0.2-1l0.3-1l0.3-1l0.3-1l0.3-1l0.2-1l0.1-1.4h-9.7l0.1,1.4l0.2,1l0.3,1l0.3,1l0.3,1
		l0.3,1l0.2,1l0.1,1l0,1l-0.1,1l-0.2,1l-0.4,1l-0.5,1l-0.6,1l-0.7,1l-0.8,1l-0.8,1l-0.8,1l-0.8,1l-0.8,1l-0.7,1l-0.6,1l-0.5,1
		l-0.4,1l-0.2,1l-0.1,1l0.1,1l0.2,1l0.3,1l0.4,1l0.4,1l0.3,1l0.2,1l0,1l-0.3,1l-0.6,1l-0.9,1l-1.3,1l-1.6,1l-1.9,1l-2.1,1l-2.2,1
		l-2.2,1l-2.2,1l-2,1l-1.7,1l-1.3,1l-0.9,1l-0.4,1l0.1,1l0.5,1l0.9,1l1.3,1l1.5,1l1.7,1L224.1,291z"/>
</g>
<g>
	<path class="st5" d="M262.4,296.3l1.8-1.4l1.9-1l1.9-1l1.9-1l1.9-1l1.9-1l1.7-1l1.5-1l1.3-1l0.9-1l0.5-1l0.1-1l-0.4-1l-0.9-1
		l-1.3-1l-1.7-1l-2-1l-2.2-1l-2.2-1l-2.2-1l-2.1-1l-1.9-1l-1.6-1l-1.3-1l-0.9-1l-0.6-1l-0.3-1l0-1l0.2-1l0.3-1l0.4-1l0.4-1l0.3-1
		l0.2-1l0.1-1l-0.1-1l-0.2-1l-0.4-1l-0.5-1l-0.6-1l-0.7-1l-0.8-1l-0.8-1l-0.8-1l-0.8-1l-0.8-1l-0.7-1l-0.6-1l-0.5-1l-0.4-1l-0.2-1
		l-0.1-1l0-1l0.1-1l0.2-1l0.3-1l0.3-1l0.3-1l0.3-1l0.2-1l0.1-1.4h-9.7l0.1,1.4l0.2,1l0.3,1l0.3,1l0.3,1l0.3,1l0.2,1l0.1,1l0,1
		l-0.1,1l-0.2,1l-0.4,1l-0.5,1l-0.6,1l-0.7,1l-0.8,1l-0.8,1l-0.8,1l-0.8,1l-0.8,1l-0.7,1l-0.6,1l-0.5,1l-0.4,1l-0.2,1l-0.1,1l0.1,1
		l0.2,1l0.3,1l0.4,1l0.4,1l0.3,1l0.2,1l0,1l-0.3,1l-0.6,1l-0.9,1l-1.3,1l-1.6,1l-1.9,1l-2.1,1l-2.2,1l-2.2,1l-2.2,1l-2,1l-1.7,1
		l-1.3,1l-0.9,1l-0.4,1l0.1,1l0.5,1l0.9,1l1.3,1l1.5,1l1.7,1l1.9,1l1.9,1l1.9,1l1.9,1l1.9,1l1.8,1.4H262.4"/>
</g>
<g>
	<path class="st6" d="M246.9,286.2h2.1v-22.7h-2.1V286.2z"/>
</g>
<g>
	<path class="st5" d="M246.9,286.2h2.1v-22.7h-2.1V286.2"/>
	<line class="st7" x1="248" y1="296.3" x2="248" y2="235.5"/>
</g>
<g transform="translate(248,282.2542)">
	<circle class="st1" cx="0" cy="0" r="5"/>
</g>
<g transform="translate(248,282.2542)">
	<path class="st6" d="M0-4.6c2.5,0,4.6,2.1,4.6,4.6l0,0c0,2.5-2.1,4.6-4.6,4.6S-4.6,2.5-4.6,0S-2.5-4.6,0-4.6z M0-5.4
		C-3-5.4-5.4-3-5.4,0S-3,5.4,0,5.4S5.4,3,5.4,0l0,0C5.4-3,3-5.4,0-5.4z"/>
</g>
<g transform="translate(375.9189,258.769)">
	<circle class="st9" cx="0" cy="0" r="5"/>
	<circle class="st9" cx="-1" cy="26.6" r="5"/>
	<circle class="st9" cx="4.6" cy="18.3" r="5"/>
	<circle class="st9" cx="-41.6" cy="22.3" r="5"/>
	<circle class="st9" cx="-40.4" cy="24.7" r="5"/>
	<circle class="st9" cx="-42.8" cy="3.9" r="5"/>
	<circle class="st9" cx="-9.3" cy="17.1" r="5"/>
	<circle class="st9" cx="-12.9" cy="23.1" r="5"/>
	<circle class="st9" cx="9.3" cy="14.6" r="5"/>
	<circle class="st9" cx="-42.3" cy="0" r="5"/>
	<circle class="st9" cx="-12.8" cy="8.9" r="5"/>
	<circle class="st9" cx="-20.5" cy="-3.4" r="5"/>
	<circle class="st9" cx="-20" cy="-25.3" r="5"/>
</g>
<g>
	<path class="st9" d="M330.3,260l-0.9,1.1l-0.8,1.1l-0.8,1.1l-0.7,1.1l-0.7,1.1l-0.6,1.1l-0.6,1.1l-0.6,1.1l-0.5,1.1l-0.5,1.1
		l-0.4,1.1l-0.4,1.1l-0.3,1.1l-0.1,1.1l0,1.1l0.2,1.1l0.4,1.1l0.6,1.1l0.8,1.1l1,1.1l1.2,1.1l1.4,1.1l1.5,1.2h49.6l1.5-1.2l1.4-1.1
		l1.2-1.1l1-1.1l0.8-1.1l0.6-1.1l0.4-1.1l0.2-1.1l0-1.1l-0.1-1.1l-0.3-1.1l-0.4-1.1l-0.4-1.1l-0.5-1.1l-0.5-1.1l-0.6-1.1l-0.6-1.1
		l-0.6-1.1l-0.7-1.1l-0.7-1.1l-0.8-1.1l-0.8-1.1l-0.9-1.1l-1-1.1l-1.1-1.1l-1.1-1.1l-1.2-1.1l-1.2-1.1l-1.3-1.1l-1.3-1.1l-1.3-1.1
		l-1.2-1.1l-1.2-1.1l-1.1-1.1l-1-1.1l-0.9-1.1l-0.8-1.1l-0.7-1.1l-0.6-1.1l-0.5-1.1l-0.4-1.1l-0.3-1.1l-0.2-1.1l-0.2-1.1l-0.2-1.1
		l-0.2-1.1l-0.2-1.2h-9.7l-0.2,1.2l-0.2,1.1l-0.2,1.1l-0.2,1.1l-0.2,1.1l-0.3,1.1l-0.4,1.1l-0.5,1.1l-0.6,1.1l-0.7,1.1l-0.8,1.1
		l-0.9,1.1l-1,1.1l-1.1,1.1l-1.2,1.1l-1.2,1.1l-1.3,1.1l-1.3,1.1l-1.3,1.1l-1.2,1.1l-1.2,1.1l-1.1,1.1l-1.1,1.1L330.3,260z"/>
</g>
<g>
	<path class="st5" d="M378.8,285.3l1.5-1.2l1.4-1.1l1.2-1.1l1-1.1l0.8-1.1l0.6-1.1l0.4-1.1l0.2-1.1l0-1.1l-0.1-1.1l-0.3-1.1
		l-0.4-1.1l-0.4-1.1l-0.5-1.1l-0.5-1.1l-0.6-1.1l-0.6-1.1l-0.6-1.1l-0.7-1.1l-0.7-1.1l-0.8-1.1l-0.8-1.1l-0.9-1.1l-1-1.1l-1.1-1.1
		l-1.1-1.1l-1.2-1.1l-1.2-1.1l-1.3-1.1l-1.3-1.1l-1.3-1.1l-1.2-1.1l-1.2-1.1l-1.1-1.1l-1-1.1l-0.9-1.1l-0.8-1.1l-0.7-1.1l-0.6-1.1
		l-0.5-1.1l-0.4-1.1l-0.3-1.1l-0.2-1.1l-0.2-1.1l-0.2-1.1l-0.2-1.1l-0.2-1.2h-9.7l-0.2,1.2l-0.2,1.1l-0.2,1.1l-0.2,1.1l-0.2,1.1
		l-0.3,1.1l-0.4,1.1l-0.5,1.1l-0.6,1.1l-0.7,1.1l-0.8,1.1l-0.9,1.1l-1,1.1l-1.1,1.1l-1.2,1.1l-1.2,1.1l-1.3,1.1l-1.3,1.1l-1.3,1.1
		l-1.2,1.1l-1.2,1.1l-1.1,1.1l-1.1,1.1l-1,1.1l-0.9,1.1l-0.8,1.1l-0.8,1.1l-0.7,1.1l-0.7,1.1l-0.6,1.1l-0.6,1.1l-0.6,1.1l-0.5,1.1
		l-0.5,1.1l-0.4,1.1l-0.4,1.1l-0.3,1.1l-0.1,1.1l0,1.1l0.2,1.1l0.4,1.1l0.6,1.1l0.8,1.1l1,1.1l1.2,1.1l1.4,1.1l1.5,1.2H378.8"/>
</g>
<g>
	<path class="st6" d="M352.9,281.3h2.1v-22.5h-2.1V281.3z"/>
</g>
<g>
	<path class="st5" d="M352.9,281.3h2.1v-22.5h-2.1V281.3"/>
	<line class="st7" x1="354" y1="285.3" x2="354" y2="233.5"/>
</g>
<g transform="translate(354,273.345)">
	<circle class="st1" cx="0" cy="0" r="5"/>
</g>
<g transform="translate(354,273.345)">
	<path class="st6" d="M0-4.6c2.5,0,4.6,2.1,4.6,4.6l0,0c0,2.5-2.1,4.6-4.6,4.6S-4.6,2.5-4.6,0S-2.5-4.6,0-4.6z M0-5.4
		C-3-5.4-5.4-3-5.4,0S-3,5.4,0,5.4S5.4,3,5.4,0l0,0C5.4-3,3-5.4,0-5.4z"/>
</g>
<g transform="translate(432.4493,321.3375)">
	<circle class="st10" cx="0" cy="0" r="5"/>
	<circle class="st10" cx="5.9" cy="4.3" r="5"/>
	<circle class="st10" cx="5.9" cy="-9.2" r="5"/>
	<circle class="st10" cx="15.4" cy="9" r="5"/>
	<circle class="st10" cx="44.1" cy="-6.6" r="5"/>
	<circle class="st10" cx="5.7" cy="-14.7" r="5"/>
	<circle class="st10" cx="26" cy="22.2" r="5"/>
	<circle class="st10" cx="42.4" cy="7.1" r="5"/>
	<circle class="st10" cx="0.7" cy="-0.1" r="5"/>
	<circle class="st10" cx="4" cy="-10.8" r="5"/>
	<circle class="st10" cx="17.2" cy="12" r="5"/>
	<circle class="st10" cx="20" cy="-8.2" r="5"/>
	<circle class="st10" cx="41.4" cy="-11.5" r="5"/>
</g>
<g>
	<path class="st10" d="M443.4,336.2l1,0.9l1,0.9l1,0.9l1,0.9l0.9,0.9l0.9,0.9l0.9,0.9l0.8,1.1H469l0.8-1.1l0.9-0.9l0.9-0.9l0.9-0.9
		l1-0.9l1-0.9l1-0.9l1-0.9l1.1-0.9l1.1-0.9l1.1-0.9l1-0.9l1-0.9l1-0.9l1-0.9l0.9-0.9l0.9-0.9l0.8-0.9l0.8-0.9l0.7-0.9l0.7-0.9
		l0.6-0.9l0.6-0.9l0.5-0.9l0.5-0.9l0.4-0.9l0.3-0.9l0.2-0.9l0.1-0.9l0-0.9l-0.1-0.9l-0.2-0.9l-0.4-0.9l-0.5-0.9l-0.7-0.9l-0.8-0.9
		l-1-0.9l-1.1-0.9l-1.2-0.9l-1.4-0.9l-1.5-1.1h-46.2l-1.5,1.1l-1.4,0.9l-1.2,0.9l-1.1,0.9l-1,0.9l-0.8,0.9l-0.7,0.9l-0.5,0.9
		l-0.4,0.9l-0.2,0.9l-0.1,0.9l0,0.9l0.1,0.9l0.2,0.9l0.3,0.9l0.4,0.9l0.5,0.9l0.5,0.9l0.6,0.9l0.6,0.9l0.7,0.9l0.7,0.9l0.8,0.9
		l0.8,0.9l0.9,0.9l0.9,0.9l1,0.9l1,0.9l1,0.9l1,0.9l1.1,0.9l1.1,0.9L443.4,336.2z"/>
</g>
<g>
	<path class="st5" d="M469,343.5l0.8-1.1l0.9-0.9l0.9-0.9l0.9-0.9l1-0.9l1-0.9l1-0.9l1-0.9l1.1-0.9l1.1-0.9l1.1-0.9l1-0.9l1-0.9
		l1-0.9l1-0.9l0.9-0.9l0.9-0.9l0.8-0.9l0.8-0.9l0.7-0.9l0.7-0.9l0.6-0.9l0.6-0.9l0.5-0.9l0.5-0.9l0.4-0.9l0.3-0.9l0.2-0.9l0.1-0.9
		l0-0.9l-0.1-0.9l-0.2-0.9l-0.4-0.9l-0.5-0.9l-0.7-0.9l-0.8-0.9l-1-0.9l-1.1-0.9l-1.2-0.9l-1.4-0.9l-1.5-1.1h-46.2l-1.5,1.1
		l-1.4,0.9l-1.2,0.9l-1.1,0.9l-1,0.9l-0.8,0.9l-0.7,0.9l-0.5,0.9l-0.4,0.9l-0.2,0.9l-0.1,0.9l0,0.9l0.1,0.9l0.2,0.9l0.3,0.9l0.4,0.9
		l0.5,0.9l0.5,0.9l0.6,0.9l0.6,0.9l0.7,0.9l0.7,0.9l0.8,0.9l0.8,0.9l0.9,0.9l0.9,0.9l1,0.9l1,0.9l1,0.9l1,0.9l1.1,0.9l1.1,0.9
		l1.1,0.9l1,0.9l1,0.9l1,0.9l1,0.9l0.9,0.9l0.9,0.9l0.9,0.9l0.8,1.1H469"/>
</g>
<g>
	<path class="st6" d="M458.9,328.9h2.1v-17.2h-2.1V328.9z"/>
</g>
<g>
	<path class="st5" d="M458.9,328.9h2.1v-17.2h-2.1V328.9"/>
	<line class="st7" x1="460" y1="343.5" x2="460" y2="306.6"/>
</g>
<g transform="translate(460,321.2101)">
	<circle class="st1" cx="0" cy="0" r="5"/>
</g>
<g transform="translate(460,321.2101)">
	<path class="st6" d="M0-4.6c2.5,0,4.6,2.1,4.6,4.6l0,0c0,2.5-2.1,4.6-4.6,4.6S-4.6,2.5-4.6,0S-2.5-4.6,0-4.6z M0-5.4
		C-3-5.4-5.4-3-5.4,0S-3,5.4,0,5.4S5.4,3,5.4,0l0,0C5.4-3,3-5.4,0-5.4z"/>
</g>
<g transform="translate(573.3668,379.9699)">
	<circle class="st11" cx="0" cy="0" r="5"/>
	<circle class="st11" cx="1.6" cy="0" r="5"/>
	<circle class="st11" cx="-12.2" cy="0" r="5"/>
	<circle class="st11" cx="-12.7" cy="0" r="5"/>
	<circle class="st11" cx="1" cy="0" r="5"/>
	<circle class="st11" cx="-15.6" cy="0" r="5"/>
	<circle class="st11" cx="-13.3" cy="0" r="5"/>
	<circle class="st11" cx="-8.9" cy="0" r="5"/>
	<circle class="st11" cx="16" cy="0" r="5"/>
	<circle class="st11" cx="-19.9" cy="0" r="5"/>
	<circle class="st11" cx="-17.4" cy="0" r="5"/>
	<circle class="st11" cx="-7.5" cy="0" r="5"/>
	<circle class="st11" cx="10.4" cy="0" r="5"/>
</g>
<g>
	<path class="st11" d="M537.6,380l1.3,0l1.5,0l1.6,0l1.7,0l1.7,0l1.7,0l1.7,0l1.7,0l1.6,0h27.6l1.6,0l1.7,0l1.7,0l1.7,0l1.7,0l1.7,0
		l1.6,0l1.5,0l1.3,0l1.2,0l0.9,0l0.7,0l0.4,0l0.2,0l-0.1,0l-0.4,0l-0.6,0l-0.8,0l-1,0l-1.2,0l-1.3,0l-1.4,0l-1.5,0l-1.5,0l-1.5,0
		l-1.4,0l-1.3,0l-1.2,0l-1.1,0l-0.9,0l-0.8,0l-0.6,0l-0.4,0l-0.3,0l-0.1,0l0,0l0.1,0l0.2,0l0.3,0l0.3,0l0.3,0l0.3,0l0.2,0l0.1,0l0,0
		l-0.1,0l-0.3,0l-0.4,0l-0.5,0h-25.6l-0.5,0l-0.4,0l-0.3,0l-0.1,0l0,0l0.1,0l0.2,0l0.3,0l0.3,0l0.3,0l0.3,0l0.2,0l0.1,0l0,0l-0.1,0
		l-0.3,0l-0.4,0l-0.6,0l-0.8,0l-0.9,0l-1.1,0l-1.2,0l-1.3,0l-1.4,0l-1.5,0l-1.5,0l-1.5,0l-1.4,0l-1.3,0l-1.2,0l-1,0l-0.8,0l-0.6,0
		l-0.4,0l-0.1,0l0.2,0l0.4,0l0.7,0l0.9,0L537.6,380z"/>
</g>
<g>
	<path class="st5" d="M579.8,380l1.6,0l1.7,0l1.7,0l1.7,0l1.7,0l1.7,0l1.6,0l1.5,0l1.3,0l1.2,0l0.9,0l0.7,0l0.4,0l0.2,0l-0.1,0
		l-0.4,0l-0.6,0l-0.8,0l-1,0l-1.2,0l-1.3,0l-1.4,0l-1.5,0l-1.5,0l-1.5,0l-1.4,0l-1.3,0l-1.2,0l-1.1,0l-0.9,0L579.8,380l-0.5,0
		l-0.4,0l-0.3,0l-0.1,0l0,0l0.1,0l0.2,0l0.3,0l0.3,0l0.3,0L579.8,380l0.2,0l0.1,0l0,0l-0.1,0l-0.3,0l-0.4,0l-0.5,0h-25.6l-0.5,0
		l-0.4,0l-0.3,0l-0.1,0l0,0l0.1,0l0.2,0l0.3,0l0.3,0l0.3,0l0.3,0l0.2,0l0.1,0l0,0l-0.1,0l-0.3,0l-0.4,0l-0.6,0l-0.8,0l-0.9,0l-1.1,0
		l-1.2,0l-1.3,0l-1.4,0l-1.5,0l-1.5,0l-1.5,0l-1.4,0l-1.3,0l-1.2,0l-1,0l-0.8,0l-0.6,0l-0.4,0l-0.1,0l0.2,0l0.4,0l0.7,0l0.9,0l1.2,0
		l1.3,0l1.5,0l1.6,0l1.7,0l1.7,0l1.7,0l1.7,0l1.7,0l1.6,0H579.8"/>
</g>
<g>
	<path class="st6" d="M564.9,380h2.1v0L564.9,380L564.9,380z"/>
</g>
<g>
	<path class="st5" d="M564.9,380h2.1v0L564.9,380L564.9,380"/>
	<line class="st7" x1="566" y1="380" x2="566" y2="380"/>
</g>
<g transform="translate(566,379.9699)">
	<circle class="st1" cx="0" cy="0" r="5"/>
</g>
<g transform="translate(566,379.9699)">
	<path class="st6" d="M0-4.6c2.5,0,4.6,2.1,4.6,4.6l0,0c0,2.5-2.1,4.6-4.6,4.6S-4.6,2.5-4.6,0S-2.5-4.6,0-4.6z M0-5.4
		C-3-5.4-5.4-3-5.4,0S-3,5.4,0,5.4S5.4,3,5.4,0l0,0C5.4-3,3-5.4,0-5.4z"/>
</g>
<g>
	<line class="st12" x1="89" y1="80.1" x2="619" y2="80.1"/>
</g>
<polyline class="st13" points="146.1,72.2 146.1,55.7 243.9,55.7 243.9,72.2 "/>
<polyline class="st13" points="252.1,72.2 252.1,55.7 349.9,55.7 349.9,72.2 "/>
<polyline class="st13" points="358.1,72.2 358.1,55.7 455.9,55.7 455.9,72.2 "/>
<text transform="matrix(1.0758 0 0 1 181.812 58.7661)" class="st14 st15">***</text>
<text transform="matrix(1.0758 0 0 1 393.8124 58.7664)" class="st14 st15">***</text>
<text transform="matrix(1.0758 0 0 1 287.9947 51.8623)" class="st14 st16">n.s.</text>
<polyline class="st13" points="464.1,72.2 464.1,55.7 561.9,55.7 561.9,72.2 "/>
<text transform="matrix(1.0758 0 0 1 499.8125 58.7668)" class="st14 st15">***</text>
</svg>
