<?xml version="1.0" encoding="utf-8"?>
<!-- Generator: Adobe Illustrator 24.1.2, SVG Export Plug-In . SVG Version: 6.00 Build 0)  -->
<svg version="1.1" id="Layer_1" xmlns="http://www.w3.org/2000/svg" xmlns:xlink="http://www.w3.org/1999/xlink" x="0px" y="0px"
	 viewBox="0 0 565 432" style="enable-background:new 0 0 565 432;" xml:space="preserve">
<style type="text/css">
	.st0{clip-path:url(#SVGID_2_);fill:#FFFFFF;}
	.st1{fill:#FFFFFF;}
	.st2{fill:none;stroke:#262626;stroke-width:0.8333;stroke-linecap:square;stroke-linejoin:round;stroke-miterlimit:10;}
	.st3{fill:#262626;}
	.st4{font-family:'MyriadPro-Regular';}
	.st5{font-size:16.6667px;}
	.st6{font-size:18.3333px;}
	.st7{fill:#0072BD;fill-opacity:0.302;}
	.st8{fill:none;stroke:#808080;stroke-width:0.8333;stroke-linecap:square;stroke-miterlimit:10;}
	.st9{fill:#808080;}
	.st10{fill:none;stroke:#808080;stroke-width:0.8333;stroke-linejoin:round;stroke-miterlimit:10;}
	.st11{fill:#D95319;fill-opacity:0.302;}
	.st12{fill:#7E2F8E;fill-opacity:0.302;}
	.st13{fill:#77AC30;fill-opacity:0.302;}
	.st14{fill:none;stroke:#000000;stroke-width:0.8333;stroke-linejoin:bevel;stroke-miterlimit:1;stroke-dasharray:10,6;}
	.st15{fill:none;stroke:#000000;stroke-miterlimit:10;}
	.st16{font-family:'ArialMT';}
	.st17{font-size:21px;}
	.st18{font-size:15px;}
</style>
<g>
	<g>
		<g>
			<defs>
				<rect id="SVGID_1_" width="565" height="432"/>
			</defs>
			<clipPath id="SVGID_2_">
				<use xlink:href="#SVGID_1_"  style="overflow:visible;"/>
			</clipPath>
			<rect class="st0" width="565" height="432"/>
		</g>
	</g>
	<g>
		<rect class="st1" width="565" height="432"/>
		<path class="st1" d="M73,385h438V32H73V385z"/>
	</g>
	<g>
		<line class="st2" x1="73" y1="385" x2="511" y2="385"/>
		<line class="st2" x1="127.8" y1="385" x2="127.8" y2="380.6"/>
		<line class="st2" x1="237.3" y1="385" x2="237.3" y2="380.6"/>
		<line class="st2" x1="346.8" y1="385" x2="346.8" y2="380.6"/>
		<line class="st2" x1="456.3" y1="385" x2="456.3" y2="380.6"/>
	</g>
	<g transform="translate(127.75,391.6667)">
		<text transform="matrix(1 0 0 1 -53.5 17)" class="st3 st4 st5">Same channel</text>
	</g>
	<g transform="translate(237.25,391.6667)">
		<text transform="matrix(1 0 0 1 -41.5 17)" class="st3 st4 st5">Near depth</text>
	</g>
	<g transform="translate(346.75,391.6667)">
		<text transform="matrix(1 0 0 1 -36 17)" class="st3 st4 st5">Far depth</text>
	</g>
	<g transform="translate(456.25,391.6667)">
		<text transform="matrix(1 0 0 1 -48 17)" class="st3 st4 st5">Cross-region</text>
	</g>
	<g>
		<line class="st2" x1="73" y1="385" x2="73" y2="32"/>
		<line class="st2" x1="73" y1="385" x2="77.4" y2="385"/>
		<line class="st2" x1="73" y1="326.2" x2="77.4" y2="326.2"/>
		<line class="st2" x1="73" y1="267.3" x2="77.4" y2="267.3"/>
		<line class="st2" x1="73" y1="208.5" x2="77.4" y2="208.5"/>
		<line class="st2" x1="73" y1="149.7" x2="77.4" y2="149.7"/>
		<line class="st2" x1="73" y1="80.8" x2="77.4" y2="80.8"/>
	</g>
	<g transform="translate(66.3333,385)">
		<text transform="matrix(1 0 0 1 -10 6.5)" class="st3 st4 st5">0</text>
	</g>
	<g transform="translate(66.3333,326.1667)">
		<text transform="matrix(1 0 0 1 -24 6.5)" class="st3 st4 st5">0.5</text>
	</g>
	<g transform="translate(66.3333,267.3333)">
		<text transform="matrix(1 0 0 1 -10 6.5)" class="st3 st4 st5">1</text>
	</g>
	<g transform="translate(66.3333,208.5)">
		<text transform="matrix(1 0 0 1 -24 6.5)" class="st3 st4 st5">1.5</text>
	</g>
	<g transform="translate(66.3333,149.6667)">
		<text transform="matrix(1 0 0 1 -10 6.5)" class="st3 st4 st5">2</text>
	</g>
	<g transform="translate(66.3333,80.8361)">
		<text transform="matrix(1 0 0 1 -32 6.5)" class="st3 st4 st5">max</text>
	</g>
	<g transform="translate(29.3333,208.4998) rotate(-90)">
		<text transform="matrix(1 0 0 1 -98.5002 -5)" class="st3 st4 st6">Mutual information (bits)</text>
	</g>
	<g transform="translate(292.0003,29.25)">
		<text transform="matrix(1 0 0 1 -185.5 -5)" class="st4 st6">Mutual information by pair type across recordings</text>
	</g>
	<g transform="translate(138.084,111.4036)">
		<circle class="st7" cx="0" cy="0" r="5"/>
		<circle class="st7" cx="-9.4" cy="23" r="5"/>
		<circle class="st7" cx="-25.5" cy="7.9" r="5"/>
		<circle class="st7" cx="-29.2" cy="25" r="5"/>
		<circle class="st7" cx="-5" cy="-12.9" r="5"/>
		<circle class="st7" cx="0.3" cy="29.1" r="5"/>
		<circle class="st7" cx="9.9" cy="19.3" r="5"/>
		<circle class="st7" cx="-19.7" cy="8.2" r="5"/>
		<circle class="st7" cx="-26.7" cy="20.4" r="5"/>
		<circle class="st7" cx="-19.5" cy="-17.8" r="5"/>
		<circle class="st7" cx="-13.7" cy="-18.6" r="5"/>
		<circle class="st7" cx="-16.6" cy="-4.2" r="5"/>
		<circle class="st7" cx="13.1" cy="-6.2" r="5"/>
	</g>
	<g>
		<path class="st7" d="M101.7,137.9l1.2,1.3l1.3,1.3h47l1.3-1.3l1.2-1.3l1.1-1.3l1-1.3l0.9-1.3l0.8-1.3l0.7-1.3l0.6-1.3l0.5-1.3
			l0.4-1.3l0.3-1.3l0.2-1.3l0.1-1.3l0.1-1.3l0-1.3l0-1.3l0-1.3l-0.1-1.3l-0.1-1.3l-0.1-1.3l-0.1-1.3l-0.2-1.3l-0.2-1.3l-0.3-1.3
			l-0.3-1.3l-0.4-1.3l-0.4-1.3l-0.5-1.3l-0.6-1.3l-0.7-1.3l-0.8-1.3l-0.8-1.3l-0.9-1.3l-1-1.3l-1.1-1.3l-1.2-1.3l-1.2-1.3h-43.6
			l-1.2,1.3l-1.2,1.3l-1.1,1.3l-1,1.3l-0.9,1.3l-0.8,1.3l-0.8,1.3l-0.7,1.3l-0.6,1.3l-0.5,1.3l-0.4,1.3l-0.4,1.3l-0.3,1.3l-0.3,1.3
			l-0.2,1.3l-0.2,1.3l-0.1,1.3l-0.1,1.3l-0.1,1.3l-0.1,1.3l0,1.3l0,1.3l0,1.3l0.1,1.3l0.1,1.3l0.2,1.3l0.3,1.3l0.4,1.3l0.5,1.3
			l0.6,1.3l0.7,1.3l0.8,1.3l0.9,1.3l1,1.3L101.7,137.9z"/>
	</g>
	<g>
		<path class="st8" d="M151.3,140.5l1.3-1.3l1.2-1.3l1.1-1.3l1-1.3l0.9-1.3l0.8-1.3l0.7-1.3l0.6-1.3l0.5-1.3l0.4-1.3l0.3-1.3
			l0.2-1.3l0.1-1.3l0.1-1.3l0-1.3l0-1.3l0-1.3l-0.1-1.3l-0.1-1.3l-0.1-1.3l-0.1-1.3l-0.2-1.3l-0.2-1.3l-0.3-1.3l-0.3-1.3l-0.4-1.3
			l-0.4-1.3l-0.5-1.3l-0.6-1.3l-0.7-1.3l-0.8-1.3l-0.8-1.3l-0.9-1.3l-1-1.3l-1.1-1.3l-1.2-1.3l-1.2-1.3h-43.6l-1.2,1.3l-1.2,1.3
			l-1.1,1.3l-1,1.3l-0.9,1.3l-0.8,1.3l-0.8,1.3l-0.7,1.3l-0.6,1.3l-0.5,1.3l-0.4,1.3l-0.4,1.3l-0.3,1.3l-0.3,1.3l-0.2,1.3l-0.2,1.3
			l-0.1,1.3l-0.1,1.3l-0.1,1.3l-0.1,1.3l0,1.3l0,1.3l0,1.3l0.1,1.3l0.1,1.3l0.2,1.3l0.3,1.3l0.4,1.3l0.5,1.3l0.6,1.3l0.7,1.3
			l0.8,1.3l0.9,1.3l1,1.3l1.1,1.3l1.2,1.3l1.3,1.3H151.3"/>
	</g>
	<g>
		<path class="st9" d="M126.7,132.4h2.2v-28.9h-2.2V132.4z"/>
	</g>
	<g>
		<path class="st8" d="M126.7,132.4h2.2v-28.9h-2.2V132.4"/>
		<line class="st10" x1="127.8" y1="140.5" x2="127.8" y2="92.8"/>
	</g>
	<g transform="translate(127.75,119.3433)">
		<circle class="st1" cx="0" cy="0" r="5"/>
	</g>
	<g transform="translate(127.75,119.3433)">
		<path class="st9" d="M0-4.6c2.5,0,4.6,2.1,4.6,4.6l0,0c0,2.5-2.1,4.6-4.6,4.6S-4.6,2.5-4.6,0S-2.5-4.6,0-4.6z M0-5.4
			C-3-5.4-5.4-3-5.4,0S-3,5.4,0,5.4S5.4,3,5.4,0l0,0C5.4-3,3-5.4,0-5.4z"/>
	</g>
	<g transform="translate(246.0122,267.5651)">
		<circle class="st11" cx="0" cy="0" r="5"/>
		<circle class="st11" cx="-5.6" cy="28.4" r="5"/>
		<circle class="st11" cx="4.8" cy="19.2" r="5"/>
		<circle class="st11" cx="-3.6" cy="32.6" r="5"/>
		<circle class="st11" cx="-35.1" cy="18.3" r="5"/>
		<circle class="st11" cx="2.1" cy="-2.6" r="5"/>
		<circle class="st11" cx="-12.2" cy="20.4" r="5"/>
		<circle class="st11" cx="-40.9" cy="21.5" r="5"/>
		<circle class="st11" cx="9.2" cy="17.7" r="5"/>
		<circle class="st11" cx="-14.8" cy="12.3" r="5"/>
		<circle class="st11" cx="-14.3" cy="24.8" r="5"/>
		<circle class="st11" cx="-9.9" cy="-10" r="5"/>
		<circle class="st11" cx="-7.7" cy="-29.1" r="5"/>
	</g>
	<g>
		<path class="st11" d="M212.6,294.7l2,1l2,1l2,1l2,1l1.9,1.4h29.7l1.9-1.4l2-1l2-1l2-1l2-1l1.9-1l1.8-1l1.6-1l1.3-1l1-1l0.5-1
			l0.1-1l-0.4-1l-0.9-1l-1.4-1l-1.7-1l-2-1l-2.2-1l-2.3-1l-2.3-1l-2.2-1l-1.9-1l-1.7-1l-1.3-1l-1-1l-0.6-1l-0.3-1l0-1l0.2-1l0.3-1
			l0.4-1l0.4-1l0.3-1l0.2-1l0.1-1l-0.1-1l-0.2-1l-0.4-1l-0.5-1l-0.6-1l-0.7-1l-0.8-1l-0.8-1l-0.8-1l-0.8-1l-0.8-1l-0.7-1l-0.6-1
			l-0.5-1l-0.4-1l-0.3-1l-0.1-1l0-1l0.1-1l0.2-1l0.3-1l0.3-1l0.3-1l0.3-1l0.2-1l0.1-1.4h-10.1l0.1,1.4l0.2,1l0.3,1l0.3,1l0.3,1
			l0.3,1l0.2,1l0.1,1l0,1l-0.1,1l-0.3,1l-0.4,1l-0.5,1l-0.6,1l-0.7,1l-0.8,1l-0.8,1l-0.8,1l-0.8,1l-0.8,1l-0.7,1l-0.6,1l-0.5,1
			l-0.4,1l-0.2,1l-0.1,1l0.1,1l0.2,1l0.3,1l0.4,1l0.4,1l0.3,1l0.2,1l0,1l-0.3,1l-0.6,1l-1,1l-1.3,1l-1.7,1l-1.9,1l-2.2,1l-2.3,1
			l-2.3,1l-2.2,1l-2,1l-1.7,1l-1.4,1l-0.9,1l-0.4,1l0.1,1l0.5,1l1,1l1.3,1l1.6,1l1.8,1L212.6,294.7z"/>
	</g>
	<g>
		<path class="st8" d="M252.1,300.1l1.9-1.4l2-1l2-1l2-1l2-1l1.9-1l1.8-1l1.6-1l1.3-1l1-1l0.5-1l0.1-1l-0.4-1l-0.9-1l-1.4-1l-1.7-1
			l-2-1l-2.2-1l-2.3-1l-2.3-1l-2.2-1l-1.9-1l-1.7-1l-1.3-1l-1-1l-0.6-1l-0.3-1l0-1l0.2-1l0.3-1l0.4-1l0.4-1l0.3-1l0.2-1l0.1-1
			l-0.1-1l-0.2-1l-0.4-1l-0.5-1l-0.6-1l-0.7-1l-0.8-1l-0.8-1l-0.8-1l-0.8-1l-0.8-1l-0.7-1l-0.6-1l-0.5-1l-0.4-1l-0.3-1l-0.1-1l0-1
			l0.1-1l0.2-1l0.3-1l0.3-1l0.3-1l0.3-1l0.2-1l0.1-1.4h-10.1l0.1,1.4l0.2,1l0.3,1l0.3,1l0.3,1l0.3,1l0.2,1l0.1,1l0,1l-0.1,1l-0.3,1
			l-0.4,1l-0.5,1l-0.6,1l-0.7,1l-0.8,1l-0.8,1l-0.8,1l-0.8,1l-0.8,1l-0.7,1l-0.6,1l-0.5,1l-0.4,1l-0.2,1l-0.1,1l0.1,1l0.2,1l0.3,1
			l0.4,1l0.4,1l0.3,1l0.2,1l0,1l-0.3,1l-0.6,1l-1,1l-1.3,1l-1.7,1l-1.9,1l-2.2,1l-2.3,1l-2.3,1l-2.2,1l-2,1l-1.7,1l-1.4,1l-0.9,1
			l-0.4,1l0.1,1l0.5,1l1,1l1.3,1l1.6,1l1.8,1l1.9,1l2,1l2,1l2,1l2,1l1.9,1.4H252.1"/>
	</g>
	<g>
		<path class="st9" d="M236.2,289.9h2.2v-23h-2.2V289.9z"/>
	</g>
	<g>
		<path class="st8" d="M236.2,289.9h2.2v-23h-2.2V289.9"/>
		<line class="st10" x1="237.3" y1="300.1" x2="237.3" y2="238.4"/>
	</g>
	<g transform="translate(237.25,285.8498)">
		<circle class="st1" cx="0" cy="0" r="5"/>
	</g>
	<g transform="translate(237.25,285.8498)">
		<path class="st9" d="M0-4.6c2.5,0,4.6,2.1,4.6,4.6l0,0c0,2.5-2.1,4.6-4.6,4.6S-4.6,2.5-4.6,0S-2.5-4.6,0-4.6z M0-5.4
			C-3-5.4-5.4-3-5.4,0S-3,5.4,0,5.4S5.4,3,5.4,0l0,0C5.4-3,3-5.4,0-5.4z"/>
	</g>
	<g transform="translate(340.5691,262.0272)">
		<circle class="st12" cx="0" cy="0" r="5"/>
		<circle class="st12" cx="-3.4" cy="26.9" r="5"/>
		<circle class="st12" cx="4.2" cy="18.6" r="5"/>
		<circle class="st12" cx="26.4" cy="22.7" r="5"/>
		<circle class="st12" cx="-13.5" cy="25.1" r="5"/>
		<circle class="st12" cx="12.9" cy="3.9" r="5"/>
		<circle class="st12" cx="-21.5" cy="17.4" r="5"/>
		<circle class="st12" cx="-3.3" cy="23.4" r="5"/>
		<circle class="st12" cx="16.6" cy="14.8" r="5"/>
		<circle class="st12" cx="-9" cy="0" r="5"/>
		<circle class="st12" cx="22.3" cy="9" r="5"/>
		<circle class="st12" cx="-10" cy="-3.5" r="5"/>
		<circle class="st12" cx="9.9" cy="-25.6" r="5"/>
	</g>
	<g>
		<path class="st12" d="M322.2,263.2l-0.9,1.1l-0.9,1.1l-0.8,1.1l-0.8,1.1l-0.7,1.1l-0.7,1.1l-0.6,1.1l-0.6,1.1l-0.6,1.1l-0.5,1.1
			l-0.5,1.1l-0.4,1.1l-0.3,1.1l-0.1,1.1l0,1.1l0.2,1.1l0.4,1.1l0.6,1.1l0.8,1.1l1,1.1l1.2,1.1l1.4,1.1l1.6,1.2h51.2l1.6-1.2l1.4-1.1
			l1.2-1.1l1-1.1l0.8-1.1l0.6-1.1l0.4-1.1l0.2-1.1l0-1.1l-0.1-1.1l-0.3-1.1l-0.4-1.1l-0.5-1.1l-0.5-1.1l-0.6-1.1l-0.6-1.1l-0.6-1.1
			l-0.7-1.1l-0.7-1.1l-0.8-1.1l-0.8-1.1l-0.9-1.1l-0.9-1.1l-1-1.1l-1.1-1.1l-1.2-1.1l-1.2-1.1l-1.3-1.1l-1.3-1.1l-1.3-1.1l-1.3-1.1
			l-1.3-1.1l-1.2-1.1l-1.1-1.1l-1-1.1l-0.9-1.1l-0.8-1.1l-0.7-1.1l-0.6-1.1l-0.5-1.1l-0.4-1.1l-0.3-1.1l-0.2-1.1l-0.2-1.1l-0.2-1.1
			l-0.2-1.1l-0.2-1.2h-10l-0.2,1.2l-0.2,1.1l-0.2,1.1l-0.2,1.1l-0.2,1.1l-0.3,1.1l-0.4,1.1l-0.5,1.1l-0.6,1.1l-0.7,1.1l-0.8,1.1
			l-0.9,1.1l-1,1.1l-1.1,1.1l-1.2,1.1l-1.3,1.1l-1.3,1.1l-1.3,1.1l-1.3,1.1l-1.3,1.1l-1.2,1.1l-1.2,1.1l-1.1,1.1L322.2,263.2z"/>
	</g>
	<g>
		<path class="st8" d="M372.4,289l1.6-1.2l1.4-1.1l1.2-1.1l1-1.1l0.8-1.1l0.6-1.1l0.4-1.1l0.2-1.1l0-1.1l-0.1-1.1l-0.3-1.1l-0.4-1.1
			l-0.5-1.1l-0.5-1.1l-0.6-1.1l-0.6-1.1l-0.6-1.1l-0.7-1.1l-0.7-1.1l-0.8-1.1l-0.8-1.1l-0.9-1.1l-0.9-1.1l-1-1.1l-1.1-1.1l-1.2-1.1
			l-1.2-1.1l-1.3-1.1l-1.3-1.1l-1.3-1.1l-1.3-1.1l-1.3-1.1l-1.2-1.1l-1.1-1.1l-1-1.1l-0.9-1.1l-0.8-1.1l-0.7-1.1l-0.6-1.1l-0.5-1.1
			l-0.4-1.1l-0.3-1.1l-0.2-1.1l-0.2-1.1l-0.2-1.1l-0.2-1.1l-0.2-1.2h-10l-0.2,1.2l-0.2,1.1l-0.2,1.1l-0.2,1.1l-0.2,1.1l-0.3,1.1
			l-0.4,1.1l-0.5,1.1l-0.6,1.1l-0.7,1.1l-0.8,1.1l-0.9,1.1l-1,1.1l-1.1,1.1l-1.2,1.1l-1.3,1.1l-1.3,1.1l-1.3,1.1l-1.3,1.1l-1.3,1.1
			l-1.2,1.1l-1.2,1.1l-1.1,1.1l-1,1.1l-0.9,1.1l-0.9,1.1l-0.8,1.1l-0.8,1.1l-0.7,1.1l-0.7,1.1l-0.6,1.1l-0.6,1.1l-0.6,1.1l-0.5,1.1
			l-0.5,1.1l-0.4,1.1l-0.3,1.1l-0.1,1.1l0,1.1l0.2,1.1l0.4,1.1l0.6,1.1l0.8,1.1l1,1.1l1.2,1.1l1.4,1.1l1.6,1.2H372.4"/>
	</g>
	<g>
		<path class="st9" d="M345.7,284.9h2.2V262h-2.2V284.9z"/>
	</g>
	<g>
		<path class="st8" d="M345.7,284.9h2.2V262h-2.2V284.9"/>
		<line class="st10" x1="346.8" y1="289" x2="346.8" y2="236.4"/>
	</g>
	<g transform="translate(346.75,276.8126)">
		<circle class="st1" cx="0" cy="0" r="5"/>
	</g>
	<g transform="translate(346.75,276.8126)">
		<path class="st9" d="M0-4.6c2.5,0,4.6,2.1,4.6,4.6l0,0c0,2.5-2.1,4.6-4.6,4.6S-4.6,2.5-4.6,0S-2.5-4.6,0-4.6z M0-5.4
			C-3-5.4-5.4-3-5.4,0S-3,5.4,0,5.4S5.4,3,5.4,0l0,0C5.4-3,3-5.4,0-5.4z"/>
	</g>
	<g transform="translate(436.3092,325.4947)">
		<circle class="st13" cx="0" cy="0" r="5"/>
		<circle class="st13" cx="15.8" cy="4.4" r="5"/>
		<circle class="st13" cx="20.6" cy="-9.4" r="5"/>
		<circle class="st13" cx="21.1" cy="9.1" r="5"/>
		<circle class="st13" cx="-6.1" cy="-6.7" r="5"/>
		<circle class="st13" cx="32.9" cy="-14.9" r="5"/>
		<circle class="st13" cx="18.3" cy="22.5" r="5"/>
		<circle class="st13" cx="-4.4" cy="7.2" r="5"/>
		<circle class="st13" cx="5.4" cy="-0.1" r="5"/>
		<circle class="st13" cx="2.6" cy="-11" r="5"/>
		<circle class="st13" cx="10.7" cy="12.2" r="5"/>
		<circle class="st13" cx="21.8" cy="-8.3" r="5"/>
		<circle class="st13" cx="-6.5" cy="-11.7" r="5"/>
	</g>
	<g>
		<path class="st13" d="M439.1,340.6l1.1,0.9l1.1,0.9l1,0.9l1,0.9l1,0.9l0.9,0.9l0.9,0.9l0.8,1.1h18.7l0.8-1.1l0.9-0.9l0.9-0.9
			l1-0.9l1-0.9l1-0.9l1.1-0.9l1.1-0.9l1.1-0.9l1.1-0.9l1.1-0.9l1.1-0.9l1.1-0.9l1-0.9l1-0.9l0.9-0.9l0.9-0.9l0.9-0.9l0.8-0.9
			l0.8-0.9l0.7-0.9l0.6-0.9l0.6-0.9l0.5-0.9l0.5-0.9l0.4-0.9l0.3-0.9l0.2-0.9l0.1-0.9l0-0.9l-0.1-0.9l-0.2-0.9l-0.4-0.9l-0.5-0.9
			l-0.7-0.9l-0.8-0.9l-1-0.9l-1.1-0.9l-1.3-0.9l-1.4-0.9l-1.5-1.1h-47.7l-1.5,1.1l-1.4,0.9l-1.3,0.9l-1.1,0.9l-1,0.9l-0.8,0.9
			l-0.7,0.9l-0.5,0.9l-0.4,0.9l-0.2,0.9l-0.1,0.9l0,0.9l0.1,0.9l0.2,0.9l0.3,0.9l0.4,0.9l0.5,0.9l0.5,0.9l0.6,0.9l0.6,0.9l0.7,0.9
			l0.8,0.9l0.8,0.9l0.9,0.9l0.9,0.9l0.9,0.9l1,0.9l1,0.9l1.1,0.9l1.1,0.9l1.1,0.9l1.1,0.9L439.1,340.6z"/>
	</g>
	<g>
		<path class="st8" d="M465.6,348l0.8-1.1l0.9-0.9l0.9-0.9l1-0.9l1-0.9l1-0.9l1.1-0.9l1.1-0.9l1.1-0.9l1.1-0.9l1.1-0.9l1.1-0.9
			l1.1-0.9l1-0.9l1-0.9l0.9-0.9l0.9-0.9l0.9-0.9l0.8-0.9l0.8-0.9l0.7-0.9l0.6-0.9l0.6-0.9l0.5-0.9l0.5-0.9l0.4-0.9l0.3-0.9l0.2-0.9
			l0.1-0.9l0-0.9l-0.1-0.9l-0.2-0.9l-0.4-0.9l-0.5-0.9l-0.7-0.9l-0.8-0.9l-1-0.9l-1.1-0.9l-1.3-0.9l-1.4-0.9l-1.5-1.1h-47.7
			l-1.5,1.1l-1.4,0.9l-1.3,0.9l-1.1,0.9l-1,0.9l-0.8,0.9l-0.7,0.9l-0.5,0.9l-0.4,0.9l-0.2,0.9l-0.1,0.9l0,0.9l0.1,0.9l0.2,0.9
			l0.3,0.9l0.4,0.9l0.5,0.9l0.5,0.9l0.6,0.9l0.6,0.9l0.7,0.9l0.8,0.9l0.8,0.9l0.9,0.9l0.9,0.9l0.9,0.9l1,0.9l1,0.9l1.1,0.9l1.1,0.9
			l1.1,0.9l1.1,0.9l1.1,0.9l1.1,0.9l1.1,0.9l1,0.9l1,0.9l1,0.9l0.9,0.9l0.9,0.9l0.8,1.1H465.6"/>
	</g>
	<g>
		<path class="st9" d="M455.2,333.2h2.2v-17.4h-2.2V333.2z"/>
	</g>
	<g>
		<path class="st8" d="M455.2,333.2h2.2v-17.4h-2.2V333.2"/>
		<line class="st10" x1="456.3" y1="348" x2="456.3" y2="310.6"/>
	</g>
	<g transform="translate(456.25,325.3654)">
		<circle class="st1" cx="0" cy="0" r="5"/>
	</g>
	<g transform="translate(456.25,325.3654)">
		<path class="st9" d="M0-4.6c2.5,0,4.6,2.1,4.6,4.6l0,0c0,2.5-2.1,4.6-4.6,4.6S-4.6,2.5-4.6,0S-2.5-4.6,0-4.6z M0-5.4
			C-3-5.4-5.4-3-5.4,0S-3,5.4,0,5.4S5.4,3,5.4,0l0,0C5.4-3,3-5.4,0-5.4z"/>
	</g>
	<g>
		<line class="st14" x1="73" y1="80.8" x2="511" y2="80.8"/>
	</g>
</g>
<g id="Annotation">
	<polyline class="st15" points="131.8,73.4 131.8,56.9 229.4,56.9 229.4,73.4 	"/>
	<polyline class="st15" points="243.1,73.4 243.1,56.9 340.8,56.9 340.8,73.4 	"/>
	<polyline class="st15" points="354.5,73.4 354.5,56.9 452.3,56.9 452.3,73.4 	"/>
	<text transform="matrix(1.0758 0 0 1 166.5259 59.9946)" class="st16 st17">***</text>
	<text transform="matrix(1.0758 0 0 1 389.2861 59.9946)" class="st16 st17">***</text>
	<text transform="matrix(1.0758 0 0 1 280.9692 53.0908)" class="st16 st18">n.s.</text>
</g>
</svg>
